%TF.GenerationSoftware,KiCad,Pcbnew,(5.1.10)-1*%
%TF.CreationDate,2021-06-15T00:02:20+02:00*%
%TF.ProjectId,TrackJet_H01,54726163-6b4a-4657-945f-4830312e6b69,rev?*%
%TF.SameCoordinates,Original*%
%TF.FileFunction,Paste,Bot*%
%TF.FilePolarity,Positive*%
%FSLAX46Y46*%
G04 Gerber Fmt 4.6, Leading zero omitted, Abs format (unit mm)*
G04 Created by KiCad (PCBNEW (5.1.10)-1) date 2021-06-15 00:02:20*
%MOMM*%
%LPD*%
G01*
G04 APERTURE LIST*
%ADD10R,4.000000X2.000000*%
G04 APERTURE END LIST*
%TO.C,R76*%
G36*
G01*
X71766000Y-78730001D02*
X71766000Y-77479999D01*
G75*
G02*
X72015999Y-77230000I249999J0D01*
G01*
X72816001Y-77230000D01*
G75*
G02*
X73066000Y-77479999I0J-249999D01*
G01*
X73066000Y-78730001D01*
G75*
G02*
X72816001Y-78980000I-249999J0D01*
G01*
X72015999Y-78980000D01*
G75*
G02*
X71766000Y-78730001I0J249999D01*
G01*
G37*
G36*
G01*
X68666000Y-78730001D02*
X68666000Y-77479999D01*
G75*
G02*
X68915999Y-77230000I249999J0D01*
G01*
X69716001Y-77230000D01*
G75*
G02*
X69966000Y-77479999I0J-249999D01*
G01*
X69966000Y-78730001D01*
G75*
G02*
X69716001Y-78980000I-249999J0D01*
G01*
X68915999Y-78980000D01*
G75*
G02*
X68666000Y-78730001I0J249999D01*
G01*
G37*
%TD*%
%TO.C,R77*%
G36*
G01*
X66157001Y-75681000D02*
X64906999Y-75681000D01*
G75*
G02*
X64657000Y-75431001I0J249999D01*
G01*
X64657000Y-74630999D01*
G75*
G02*
X64906999Y-74381000I249999J0D01*
G01*
X66157001Y-74381000D01*
G75*
G02*
X66407000Y-74630999I0J-249999D01*
G01*
X66407000Y-75431001D01*
G75*
G02*
X66157001Y-75681000I-249999J0D01*
G01*
G37*
G36*
G01*
X66157001Y-78781000D02*
X64906999Y-78781000D01*
G75*
G02*
X64657000Y-78531001I0J249999D01*
G01*
X64657000Y-77730999D01*
G75*
G02*
X64906999Y-77481000I249999J0D01*
G01*
X66157001Y-77481000D01*
G75*
G02*
X66407000Y-77730999I0J-249999D01*
G01*
X66407000Y-78531001D01*
G75*
G02*
X66157001Y-78781000I-249999J0D01*
G01*
G37*
%TD*%
D10*
%TO.C,U12*%
X87500000Y-44500000D03*
X87500000Y-50000000D03*
%TD*%
%TO.C,U11*%
X87500000Y-30750000D03*
X87500000Y-36250000D03*
%TD*%
%TO.C,U10*%
X2500000Y-44500000D03*
X2500000Y-50000000D03*
%TD*%
%TO.C,U9*%
X2500000Y-30750000D03*
X2500000Y-36250000D03*
%TD*%
M02*
