M48
; DRILL file {KiCad (5.1.10)-1} date 06/14/21 22:23:32
; FORMAT={-:-/ absolute / inch / decimal}
; #@! TF.CreationDate,2021-06-14T22:23:32+02:00
; #@! TF.GenerationSoftware,Kicad,Pcbnew,(5.1.10)-1
; #@! TF.FileFunction,Plated,1,2,PTH
FMAT,2
INCH
T1C0.0079
T2C0.0118
T3C0.0157
T4C0.0197
T5C0.0236
T6C0.0276
T7C0.0315
T8C0.0354
T9C0.0374
T10C0.0394
T11C0.0591
T12C0.0787
%
G90
G05
T1
X2.5381Y-3.3705
X2.5381Y-3.4295
X2.5972Y-3.3705
X2.5972Y-3.4295
X2.6562Y-3.3705
X2.6562Y-3.4295
X3.2721Y-0.4072
X3.2721Y-0.4624
X3.2798Y-3.295
X3.3093Y-3.2645
X3.3093Y-3.295
X3.3093Y-3.3255
X3.3115Y-0.4072
X3.3115Y-0.4624
X3.3507Y-3.2645
X3.3507Y-3.295
X3.3507Y-3.3255
X3.3509Y-0.4072
X3.3509Y-0.4624
X3.3802Y-3.295
T2
X0.0277Y-1.8219
X0.0445Y-2.9456
X0.1283Y-2.2085
X0.1295Y-2.7947
X0.135Y-1.27
X0.1374Y-1.5004
X0.1437Y-1.3692
X0.1741Y-2.0344
X0.1781Y-1.3677
X0.1804Y-1.5719
X0.1872Y-1.1565
X0.195Y-1.485
X0.2102Y-1.5385
X0.2456Y-1.3654
X0.2471Y-2.1651
X0.2478Y-2.0344
X0.2665Y-1.0983
X0.285Y-2.8136
X0.2877Y-1.3863
X0.2896Y-1.2868
X0.3039Y-3.1874
X0.31Y-0.7
X0.3129Y-1.0518
X0.315Y-0.615
X0.3169Y-1.3282
X0.3206Y-1.282
X0.323Y-3.2575
X0.3588Y-3.254
X0.39Y-3.385
X0.39Y-3.435
X0.39Y-3.485
X0.3951Y-3.2798
X0.4208Y-3.8964
X0.4232Y-2.3947
X0.4294Y-1.2722
X0.4294Y-1.4224
X0.4649Y-3.8944
X0.4649Y-2.9974
X0.465Y-2.15
X0.47Y-2.875
X0.4805Y-2.9408
X0.5019Y-3.2074
X0.511Y-3.2927
X0.5182Y-1.2722
X0.5316Y-3.0882
X0.5353Y-3.1635
X0.575Y-2.05
X0.575Y-3.67
X0.5798Y-2.2639
X0.58Y-2.6115
X0.5845Y-2.9633
X0.5858Y-3.1116
X0.5921Y-1.4234
X0.6137Y-2.2978
X0.615Y-1.87
X0.6188Y-3.0184
X0.6213Y-3.63
X0.63Y-1.485
X0.6434Y-3.0487
X0.6652Y-0.7873
X0.6691Y-0.4994
X0.68Y-2.155
X0.6826Y-2.5937
X0.6909Y-0.5183
X0.6935Y-3.5183
X0.6981Y-0.7874
X0.715Y-3.08
X0.7186Y-3.7228
X0.73Y-2.16
X0.7305Y-3.4878
X0.735Y-1.915
X0.7419Y-3.3079
X0.7459Y-2.6993
X0.7542Y-3.1616
X0.76Y-3.08
X0.775Y-2.34
X0.7807Y-2.195
X0.811Y-3.6796
X0.82Y-1.495
X0.894Y-3.6805
X0.915Y-2.34
X0.95Y-1.88
X0.962Y-3.7228
X0.975Y-1.485
X0.9876Y-3.0564
X0.995Y-2.365
X1.0091Y-3.4936
X1.01Y-0.865
X1.0142Y-0.5807
X1.0187Y-3.777
X1.02Y-2.425
X1.0292Y-2.1831
X1.03Y-0.76
X1.0442Y-3.5617
X1.0588Y-3.1795
X1.065Y-3.395
X1.07Y-1.9
X1.077Y-0.622
X1.08Y-3.67
X1.0819Y-3.1488
X1.0841Y-0.3262
X1.085Y-1.785
X1.095Y-2.235
X1.1025Y-3.1694
X1.1125Y-3.2221
X1.115Y-2.725
X1.1158Y-3.7675
X1.1186Y-1.7469
X1.1283Y-0.0793
X1.1315Y-3.2003
X1.1467Y-3.4268
X1.1475Y-1.0662
X1.1512Y-0.4618
X1.1521Y-0.363
X1.165Y-0.5405
X1.1677Y-0.8468
X1.17Y-0.08
X1.1741Y-3.8641
X1.1896Y-3.6474
X1.1967Y-3.5248
X1.1972Y-3.2368
X1.205Y-1.79
X1.207Y-0.9421
X1.2144Y-0.4916
X1.2159Y-0.1607
X1.2174Y-3.8824
X1.2176Y-0.2126
X1.22Y-0.3573
X1.2281Y-3.0419
X1.2361Y-3.8328
X1.2364Y-1.445
X1.2366Y-0.4682
X1.2452Y-1.8634
X1.26Y-0.765
X1.2608Y-3.9126
X1.2616Y-1.9188
X1.2623Y-1.8287
X1.2629Y-1.0201
X1.2663Y-3.2346
X1.2673Y-2.5943
X1.2678Y-3.6422
X1.2711Y-2.7558
X1.2786Y-3.3737
X1.2823Y-0.1954
X1.291Y-2.4079
X1.3007Y-0.3098
X1.302Y-3.2064
X1.3116Y-0.0972
X1.315Y-3.83
X1.3224Y-3.6551
X1.3305Y-3.709
X1.3388Y-3.222
X1.3408Y-2.8091
X1.3433Y-0.2467
X1.3452Y-3.5075
X1.3541Y-3.6851
X1.36Y-3.06
X1.369Y-3.2434
X1.3732Y-3.6323
X1.3777Y-3.4878
X1.3778Y-2.3006
X1.3779Y-3.6624
X1.378Y-1.9146
X1.3798Y-0.2718
X1.3845Y-2.8177
X1.3869Y-3.3207
X1.3883Y-3.4341
X1.3938Y-3.062
X1.3986Y-1.7236
X1.4061Y-3.5122
X1.408Y-3.3401
X1.4167Y-3.3719
X1.425Y-3.07
X1.425Y-3.71
X1.4278Y-1.72
X1.4319Y-3.4295
X1.4467Y-1.9992
X1.4574Y-2.575
X1.4629Y-3.4932
X1.4642Y-2.0713
X1.4718Y-3.5355
X1.4726Y-3.6323
X1.4841Y-2.7365
X1.4894Y-1.5824
X1.4918Y-1.9866
X1.4933Y-0.5991
X1.4934Y-1.7965
X1.4938Y-2.0713
X1.4946Y-0.6765
X1.495Y-3.055
X1.4951Y-0.4217
X1.4956Y-2.1739
X1.4973Y-2.1368
X1.4983Y-3.6751
X1.4999Y-0.2011
X1.5039Y-0.1462
X1.505Y-3.715
X1.509Y-0.7294
X1.5178Y-2.7208
X1.5258Y-3.7626
X1.5353Y-3.1972
X1.5375Y-0.0675
X1.543Y-3.3695
X1.55Y-0.66
X1.5501Y-1.9802
X1.551Y-2.8676
X1.5558Y-2.4767
X1.57Y-3.05
X1.5779Y-2.9957
X1.5959Y-1.5307
X1.6029Y-2.1643
X1.6119Y-2.5652
X1.6251Y-1.923
X1.6329Y-2.7208
X1.6575Y-0.2875
X1.6575Y-0.3125
X1.6575Y-0.3375
X1.6575Y-0.3625
X1.6575Y-0.3875
X1.6575Y-0.4125
X1.6575Y-0.4375
X1.675Y-3.66
X1.6825Y-0.2875
X1.6825Y-0.3125
X1.6825Y-0.3375
X1.6825Y-0.3625
X1.6825Y-0.3875
X1.6825Y-0.4125
X1.6825Y-0.4375
X1.6825Y-3.6251
X1.685Y-2.0546
X1.6886Y-2.8676
X1.69Y-3.415
X1.7075Y-0.2875
X1.7075Y-0.3125
X1.7075Y-0.3375
X1.7075Y-0.3625
X1.7075Y-0.3875
X1.7075Y-0.4125
X1.7075Y-0.4375
X1.7169Y-0.8787
X1.7325Y-0.2875
X1.7325Y-0.3125
X1.7325Y-0.3375
X1.7325Y-0.3625
X1.7325Y-0.3875
X1.7325Y-0.4125
X1.7325Y-0.4375
X1.7338Y-3.3287
X1.7366Y-0.5977
X1.755Y-3.295
X1.7575Y-0.2875
X1.7575Y-0.3125
X1.7575Y-0.3375
X1.7575Y-0.3625
X1.7575Y-0.3875
X1.7575Y-0.4125
X1.7575Y-0.4375
X1.7626Y-3.0119
X1.765Y-3.495
X1.7717Y-0.6001
X1.7725Y-1.5696
X1.7825Y-0.2875
X1.7825Y-0.3125
X1.7825Y-0.3375
X1.7825Y-0.3625
X1.7825Y-0.3875
X1.7825Y-0.4125
X1.7825Y-0.4375
X1.801Y-0.592
X1.8047Y-3.0132
X1.8068Y-1.7413
X1.8075Y-0.2875
X1.8075Y-0.3125
X1.8075Y-0.3375
X1.8075Y-0.3625
X1.8075Y-0.3875
X1.8075Y-0.4125
X1.8075Y-0.4375
X1.8097Y-1.9363
X1.8126Y-2.9525
X1.8138Y-1.6714
X1.8177Y-1.8206
X1.8221Y-1.4485
X1.835Y-3.6
X1.855Y-1.535
X1.8838Y-2.9997
X1.915Y-1.605
X1.9305Y-0.3575
X1.9535Y-0.5575
X1.9535Y-0.8309
X1.9655Y-0.3909
X1.9821Y-0.5697
X2.0042Y-0.6233
X2.0046Y-0.54
X2.0049Y-0.4509
X2.005Y-0.07
X2.0073Y-0.3485
X2.0141Y-0.4021
X2.0191Y-0.9379
X2.0403Y-1.6036
X2.0464Y-0.8089
X2.0518Y-1.0222
X2.0651Y-1.2652
X2.0748Y-1.7127
X2.0928Y-1.2929
X2.0962Y-1.4675
X2.1131Y-2.2348
X2.1167Y-0.7542
X2.128Y-0.9544
X2.13Y-1.6029
X2.144Y-1.1266
X2.1504Y-2.2805
X2.1631Y-0.596
X2.1631Y-0.5437
X2.1639Y-0.636
X2.1687Y-1.8434
X2.1812Y-1.1728
X2.1824Y-1.9011
X2.1853Y-0.7167
X2.1922Y-0.5465
X2.2161Y-0.2448
X2.2262Y-1.0929
X2.239Y-1.8445
X2.2484Y-1.3635
X2.2486Y-1.2515
X2.2547Y-0.2251
X2.2558Y-0.0898
X2.2634Y-0.1366
X2.2701Y-0.977
X2.2711Y-0.9106
X2.2762Y-0.1644
X2.3004Y-1.9851
X2.3782Y-2.1283
X2.38Y-0.91
X2.385Y-3.535
X2.4178Y-2.1679
X2.421Y-2.054
X2.45Y-3.8782
X2.451Y-1.2223
X2.46Y-3.73
X2.4636Y-3.5247
X2.5028Y-1.2113
X2.5075Y-2.9996
X2.535Y-1.015
X2.54Y-3.22
X2.5736Y-3.8247
X2.6105Y-3.6875
X2.6198Y-1.6507
X2.6368Y-3.185
X2.6546Y-1.566
X2.705Y-1.99
X2.7323Y-3.646
X2.743Y-3.8238
X2.7435Y-1.8816
X2.75Y-3.16
X2.7659Y-1.4838
X2.7918Y-1.9121
X2.8093Y-3.8913
X2.83Y-0.355
X2.8718Y-3.7226
X2.8929Y-1.1931
X2.8932Y-0.994
X2.8943Y-1.1377
X2.8993Y-0.9281
X2.9245Y-0.9982
X2.935Y-0.93
X2.9526Y-0.5099
X2.96Y-1.13
X3.0048Y-0.51
X3.0201Y-3.7222
X3.0201Y-3.8075
X3.03Y-1.16
X3.05Y-0.929
X3.065Y-2.805
X3.1056Y-1.0612
X3.107Y-0.9507
X3.107Y-0.9845
X3.107Y-1.2918
X3.115Y-3.28
X3.16Y-3.405
X3.1726Y-1.0575
X3.173Y-0.9602
X3.18Y-0.34
X3.1854Y-1.3038
X3.2107Y-1.4434
X3.237Y-1.1819
X3.2862Y-1.0544
X3.3324Y-1.4541
X3.3362Y-1.5105
X3.3475Y-1.207
X3.3483Y-1.9907
X3.3489Y-1.7571
X3.3661Y-1.3709
X3.3789Y-1.5228
X3.4153Y-1.5911
X3.43Y-3.61
X3.44Y-1.2676
X3.4449Y-1.4854
X3.4449Y-2.0267
X3.445Y-3.465
X3.4481Y-3.2247
X3.45Y-3.4153
X3.4539Y-0.3313
X3.464Y-3.7082
X3.5Y-3.77
X3.5077Y-0.2584
X3.51Y-3.34
X3.51Y-3.6
T3
X2.4625Y-0.89
X2.5675Y-0.8275
X2.815Y-0.405
X2.815Y-0.465
X3.0425Y-0.78
X3.16Y-0.405
X3.16Y-0.465
X3.52Y-0.35
T4
X0.36Y-2.67
X1.285Y-0.84
X2.64Y-2.7
X2.69Y-2.88
X2.705Y-2.665
X2.77Y-2.825
T5
X1.4217Y-1.3976
X1.4217Y-2.3425
X1.5217Y-1.3976
X1.5217Y-2.3425
X1.6217Y-1.3976
X1.6217Y-2.3425
X1.7217Y-1.3976
X1.7217Y-2.3425
X1.8217Y-1.3976
X1.8217Y-2.3425
X1.9217Y-1.3976
X1.9217Y-2.3425
X2.0217Y-1.3976
X2.0217Y-2.3425
X2.1217Y-1.3976
X2.1217Y-2.3425
T6
X1.65Y-0.91
X3.035Y-2.28
X3.1Y-2.28
T7
X1.625Y-2.955
X1.7628Y-2.955
X1.815Y-1.075
X1.815Y-1.1537
X1.99Y-2.9713
X1.99Y-3.05
X2.6829Y-0.855
X2.875Y-0.855
X3.0022Y-2.5
X3.14Y-2.5
X3.195Y-3.765
X3.3328Y-3.765
X3.3713Y-0.115
X3.45Y-0.115
T8
X1.965Y-2.58
X1.965Y-2.68
X2.34Y-2.58
X2.34Y-2.68
X2.4841Y-1.419
X2.5841Y-1.419
X3.275Y-0.67
X3.275Y-0.77
X3.455Y-0.67
X3.455Y-0.77
T9
X0.375Y-1.035
X0.3754Y-1.305
X0.4734Y-1.035
X0.4738Y-1.305
X0.5719Y-1.035
X0.5722Y-1.305
X0.6703Y-1.035
X0.6706Y-1.305
X0.7687Y-1.035
X0.7691Y-1.305
X0.8671Y-1.035
X0.8675Y-1.305
T10
X0.1Y-2.265
X0.1Y-2.365
X0.1Y-2.465
X0.2Y-2.265
X0.2Y-2.365
X0.2Y-2.465
X0.245Y-0.0958
X0.245Y-0.395
X0.3Y-2.265
X0.3Y-2.365
X0.3Y-2.465
X0.355Y-1.54
X0.355Y-1.6384
X0.6299Y-0.675
X0.7016Y-1.625
X0.7016Y-2.01
X0.7283Y-0.675
X0.8Y-1.625
X0.8Y-2.01
X0.8268Y-0.675
X1.0366Y-1.625
X1.0366Y-2.01
X1.135Y-1.625
X1.135Y-2.01
X1.1886Y-2.89
X1.1886Y-2.99
X1.4051Y-2.89
X1.4051Y-2.99
X1.93Y-0.925
X2.075Y-0.955
X2.075Y-1.1322
X2.2086Y-2.89
X2.2086Y-2.99
X2.3309Y-0.955
X2.3309Y-1.1322
X2.355Y-0.1041
X2.355Y-0.675
X2.4251Y-2.89
X2.4251Y-2.99
X2.4534Y-0.675
X2.48Y-1.805
X2.48Y-1.905
X2.48Y-2.005
X2.48Y-2.105
X2.48Y-2.205
X2.5519Y-0.1041
X2.5519Y-0.675
X2.58Y-1.805
X2.58Y-1.905
X2.58Y-2.005
X2.58Y-2.105
X2.58Y-2.205
X3.095Y-0.59
X3.095Y-0.69
X3.115Y-1.5316
X3.115Y-1.63
T12
X0.1304Y-3.525
X2.965Y-3.525
T5
G00X2.8186Y-0.1255
M15
G01X2.8186Y-0.1019
M16
G05
G00X2.8186Y-0.2999
M15
G01X2.8186Y-0.2566
M16
G05
G00X3.1588Y-0.1255
M15
G01X3.1588Y-0.1019
M16
G05
G00X3.1588Y-0.2999
M15
G01X3.1588Y-0.2566
M16
G05
T8
G00X3.3497Y-2.18
M15
G01X3.4403Y-2.18
M16
G05
G00X3.3497Y-2.365
M15
G01X3.4403Y-2.365
M16
G05
G00X3.3497Y-2.55
M15
G01X3.4403Y-2.55
M16
G05
T11
G00X2.233Y-0.4053
M15
G01X2.233Y-0.3541
M16
G05
G00X2.6739Y-0.4053
M15
G01X2.6739Y-0.3541
M16
G05
T0
M30
