%TF.GenerationSoftware,KiCad,Pcbnew,(5.1.10)-1*%
%TF.CreationDate,2021-06-14T22:23:36+02:00*%
%TF.ProjectId,TrackJet_H01,54726163-6b4a-4657-945f-4830312e6b69,rev?*%
%TF.SameCoordinates,Original*%
%TF.FileFunction,Paste,Bot*%
%TF.FilePolarity,Positive*%
%FSLAX46Y46*%
G04 Gerber Fmt 4.6, Leading zero omitted, Abs format (unit mm)*
G04 Created by KiCad (PCBNEW (5.1.10)-1) date 2021-06-14 22:23:36*
%MOMM*%
%LPD*%
G01*
G04 APERTURE LIST*
%ADD10R,4.000000X2.000000*%
G04 APERTURE END LIST*
%TO.C,R76*%
G36*
G01*
X62346000Y-79385000D02*
X62346000Y-80635000D01*
G75*
G02*
X62096000Y-80885000I-250000J0D01*
G01*
X61296000Y-80885000D01*
G75*
G02*
X61046000Y-80635000I0J250000D01*
G01*
X61046000Y-79385000D01*
G75*
G02*
X61296000Y-79135000I250000J0D01*
G01*
X62096000Y-79135000D01*
G75*
G02*
X62346000Y-79385000I0J-250000D01*
G01*
G37*
G36*
G01*
X65446000Y-79385000D02*
X65446000Y-80635000D01*
G75*
G02*
X65196000Y-80885000I-250000J0D01*
G01*
X64396000Y-80885000D01*
G75*
G02*
X64146000Y-80635000I0J250000D01*
G01*
X64146000Y-79385000D01*
G75*
G02*
X64396000Y-79135000I250000J0D01*
G01*
X65196000Y-79135000D01*
G75*
G02*
X65446000Y-79385000I0J-250000D01*
G01*
G37*
%TD*%
%TO.C,R77*%
G36*
G01*
X60970000Y-84847000D02*
X62220000Y-84847000D01*
G75*
G02*
X62470000Y-85097000I0J-250000D01*
G01*
X62470000Y-85897000D01*
G75*
G02*
X62220000Y-86147000I-250000J0D01*
G01*
X60970000Y-86147000D01*
G75*
G02*
X60720000Y-85897000I0J250000D01*
G01*
X60720000Y-85097000D01*
G75*
G02*
X60970000Y-84847000I250000J0D01*
G01*
G37*
G36*
G01*
X60970000Y-81747000D02*
X62220000Y-81747000D01*
G75*
G02*
X62470000Y-81997000I0J-250000D01*
G01*
X62470000Y-82797000D01*
G75*
G02*
X62220000Y-83047000I-250000J0D01*
G01*
X60970000Y-83047000D01*
G75*
G02*
X60720000Y-82797000I0J250000D01*
G01*
X60720000Y-81997000D01*
G75*
G02*
X60970000Y-81747000I250000J0D01*
G01*
G37*
%TD*%
D10*
%TO.C,U12*%
X87500000Y-44500000D03*
X87500000Y-50000000D03*
%TD*%
%TO.C,U11*%
X87500000Y-30750000D03*
X87500000Y-36250000D03*
%TD*%
%TO.C,U10*%
X2500000Y-44500000D03*
X2500000Y-50000000D03*
%TD*%
%TO.C,U9*%
X2500000Y-30750000D03*
X2500000Y-36250000D03*
%TD*%
M02*
