%TF.GenerationSoftware,KiCad,Pcbnew,(5.1.10)-1*%
%TF.CreationDate,2021-06-15T00:02:20+02:00*%
%TF.ProjectId,TrackJet_H01,54726163-6b4a-4657-945f-4830312e6b69,rev?*%
%TF.SameCoordinates,Original*%
%TF.FileFunction,Paste,Top*%
%TF.FilePolarity,Positive*%
%FSLAX46Y46*%
G04 Gerber Fmt 4.6, Leading zero omitted, Abs format (unit mm)*
G04 Created by KiCad (PCBNEW (5.1.10)-1) date 2021-06-15 00:02:20*
%MOMM*%
%LPD*%
G01*
G04 APERTURE LIST*
%ADD10C,0.010000*%
%ADD11R,1.200000X0.900000*%
%ADD12R,4.000000X2.000000*%
%ADD13R,0.600000X1.450000*%
%ADD14R,0.300000X1.450000*%
%ADD15R,0.900000X1.200000*%
%ADD16R,0.600000X0.240000*%
%ADD17R,0.240000X0.600000*%
%ADD18R,1.800000X2.500000*%
%ADD19R,0.800000X0.900000*%
%ADD20R,3.500000X4.000000*%
%ADD21R,4.000000X3.500000*%
%ADD22R,1.500000X2.000000*%
%ADD23R,3.800000X2.000000*%
%ADD24R,1.060000X0.650000*%
%ADD25R,2.000000X0.900000*%
%ADD26R,0.900000X2.000000*%
%ADD27R,5.000000X5.000000*%
G04 APERTURE END LIST*
D10*
%TO.C,U5*%
G36*
X82907000Y-84068000D02*
G01*
X82182000Y-84068000D01*
X82179383Y-84067931D01*
X82176774Y-84067726D01*
X82174178Y-84067384D01*
X82171604Y-84066907D01*
X82169059Y-84066296D01*
X82166549Y-84065553D01*
X82164082Y-84064679D01*
X82161663Y-84063677D01*
X82159300Y-84062550D01*
X82157000Y-84061301D01*
X82154768Y-84059934D01*
X82152611Y-84058451D01*
X82150534Y-84056857D01*
X82148543Y-84055157D01*
X82146645Y-84053355D01*
X82144843Y-84051457D01*
X82143143Y-84049466D01*
X82141549Y-84047389D01*
X82140066Y-84045232D01*
X82138699Y-84043000D01*
X82137450Y-84040700D01*
X82136323Y-84038337D01*
X82135321Y-84035918D01*
X82134447Y-84033451D01*
X82133704Y-84030941D01*
X82133093Y-84028396D01*
X82132616Y-84025822D01*
X82132274Y-84023226D01*
X82132069Y-84020617D01*
X82132000Y-84018000D01*
X82132000Y-83918000D01*
X82132069Y-83915383D01*
X82132274Y-83912774D01*
X82132616Y-83910178D01*
X82133093Y-83907604D01*
X82133704Y-83905059D01*
X82134447Y-83902549D01*
X82135321Y-83900082D01*
X82136323Y-83897663D01*
X82137450Y-83895300D01*
X82138699Y-83893000D01*
X82140066Y-83890768D01*
X82141549Y-83888611D01*
X82143143Y-83886534D01*
X82144843Y-83884543D01*
X82146645Y-83882645D01*
X82148543Y-83880843D01*
X82150534Y-83879143D01*
X82152611Y-83877549D01*
X82154768Y-83876066D01*
X82157000Y-83874699D01*
X82159300Y-83873450D01*
X82161663Y-83872323D01*
X82164082Y-83871321D01*
X82166549Y-83870447D01*
X82169059Y-83869704D01*
X82171604Y-83869093D01*
X82174178Y-83868616D01*
X82176774Y-83868274D01*
X82179383Y-83868069D01*
X82182000Y-83868000D01*
X82657000Y-83868000D01*
X82657000Y-83518000D01*
X82182000Y-83518000D01*
X82179383Y-83517931D01*
X82176774Y-83517726D01*
X82174178Y-83517384D01*
X82171604Y-83516907D01*
X82169059Y-83516296D01*
X82166549Y-83515553D01*
X82164082Y-83514679D01*
X82161663Y-83513677D01*
X82159300Y-83512550D01*
X82157000Y-83511301D01*
X82154768Y-83509934D01*
X82152611Y-83508451D01*
X82150534Y-83506857D01*
X82148543Y-83505157D01*
X82146645Y-83503355D01*
X82144843Y-83501457D01*
X82143143Y-83499466D01*
X82141549Y-83497389D01*
X82140066Y-83495232D01*
X82138699Y-83493000D01*
X82137450Y-83490700D01*
X82136323Y-83488337D01*
X82135321Y-83485918D01*
X82134447Y-83483451D01*
X82133704Y-83480941D01*
X82133093Y-83478396D01*
X82132616Y-83475822D01*
X82132274Y-83473226D01*
X82132069Y-83470617D01*
X82132000Y-83468000D01*
X82132000Y-83368000D01*
X82132069Y-83365383D01*
X82132274Y-83362774D01*
X82132616Y-83360178D01*
X82133093Y-83357604D01*
X82133704Y-83355059D01*
X82134447Y-83352549D01*
X82135321Y-83350082D01*
X82136323Y-83347663D01*
X82137450Y-83345300D01*
X82138699Y-83343000D01*
X82140066Y-83340768D01*
X82141549Y-83338611D01*
X82143143Y-83336534D01*
X82144843Y-83334543D01*
X82146645Y-83332645D01*
X82148543Y-83330843D01*
X82150534Y-83329143D01*
X82152611Y-83327549D01*
X82154768Y-83326066D01*
X82157000Y-83324699D01*
X82159300Y-83323450D01*
X82161663Y-83322323D01*
X82164082Y-83321321D01*
X82166549Y-83320447D01*
X82169059Y-83319704D01*
X82171604Y-83319093D01*
X82174178Y-83318616D01*
X82176774Y-83318274D01*
X82179383Y-83318069D01*
X82182000Y-83318000D01*
X82907000Y-83318000D01*
X82907000Y-84068000D01*
G37*
X82907000Y-84068000D02*
X82182000Y-84068000D01*
X82179383Y-84067931D01*
X82176774Y-84067726D01*
X82174178Y-84067384D01*
X82171604Y-84066907D01*
X82169059Y-84066296D01*
X82166549Y-84065553D01*
X82164082Y-84064679D01*
X82161663Y-84063677D01*
X82159300Y-84062550D01*
X82157000Y-84061301D01*
X82154768Y-84059934D01*
X82152611Y-84058451D01*
X82150534Y-84056857D01*
X82148543Y-84055157D01*
X82146645Y-84053355D01*
X82144843Y-84051457D01*
X82143143Y-84049466D01*
X82141549Y-84047389D01*
X82140066Y-84045232D01*
X82138699Y-84043000D01*
X82137450Y-84040700D01*
X82136323Y-84038337D01*
X82135321Y-84035918D01*
X82134447Y-84033451D01*
X82133704Y-84030941D01*
X82133093Y-84028396D01*
X82132616Y-84025822D01*
X82132274Y-84023226D01*
X82132069Y-84020617D01*
X82132000Y-84018000D01*
X82132000Y-83918000D01*
X82132069Y-83915383D01*
X82132274Y-83912774D01*
X82132616Y-83910178D01*
X82133093Y-83907604D01*
X82133704Y-83905059D01*
X82134447Y-83902549D01*
X82135321Y-83900082D01*
X82136323Y-83897663D01*
X82137450Y-83895300D01*
X82138699Y-83893000D01*
X82140066Y-83890768D01*
X82141549Y-83888611D01*
X82143143Y-83886534D01*
X82144843Y-83884543D01*
X82146645Y-83882645D01*
X82148543Y-83880843D01*
X82150534Y-83879143D01*
X82152611Y-83877549D01*
X82154768Y-83876066D01*
X82157000Y-83874699D01*
X82159300Y-83873450D01*
X82161663Y-83872323D01*
X82164082Y-83871321D01*
X82166549Y-83870447D01*
X82169059Y-83869704D01*
X82171604Y-83869093D01*
X82174178Y-83868616D01*
X82176774Y-83868274D01*
X82179383Y-83868069D01*
X82182000Y-83868000D01*
X82657000Y-83868000D01*
X82657000Y-83518000D01*
X82182000Y-83518000D01*
X82179383Y-83517931D01*
X82176774Y-83517726D01*
X82174178Y-83517384D01*
X82171604Y-83516907D01*
X82169059Y-83516296D01*
X82166549Y-83515553D01*
X82164082Y-83514679D01*
X82161663Y-83513677D01*
X82159300Y-83512550D01*
X82157000Y-83511301D01*
X82154768Y-83509934D01*
X82152611Y-83508451D01*
X82150534Y-83506857D01*
X82148543Y-83505157D01*
X82146645Y-83503355D01*
X82144843Y-83501457D01*
X82143143Y-83499466D01*
X82141549Y-83497389D01*
X82140066Y-83495232D01*
X82138699Y-83493000D01*
X82137450Y-83490700D01*
X82136323Y-83488337D01*
X82135321Y-83485918D01*
X82134447Y-83483451D01*
X82133704Y-83480941D01*
X82133093Y-83478396D01*
X82132616Y-83475822D01*
X82132274Y-83473226D01*
X82132069Y-83470617D01*
X82132000Y-83468000D01*
X82132000Y-83368000D01*
X82132069Y-83365383D01*
X82132274Y-83362774D01*
X82132616Y-83360178D01*
X82133093Y-83357604D01*
X82133704Y-83355059D01*
X82134447Y-83352549D01*
X82135321Y-83350082D01*
X82136323Y-83347663D01*
X82137450Y-83345300D01*
X82138699Y-83343000D01*
X82140066Y-83340768D01*
X82141549Y-83338611D01*
X82143143Y-83336534D01*
X82144843Y-83334543D01*
X82146645Y-83332645D01*
X82148543Y-83330843D01*
X82150534Y-83329143D01*
X82152611Y-83327549D01*
X82154768Y-83326066D01*
X82157000Y-83324699D01*
X82159300Y-83323450D01*
X82161663Y-83322323D01*
X82164082Y-83321321D01*
X82166549Y-83320447D01*
X82169059Y-83319704D01*
X82171604Y-83319093D01*
X82174178Y-83318616D01*
X82176774Y-83318274D01*
X82179383Y-83318069D01*
X82182000Y-83318000D01*
X82907000Y-83318000D01*
X82907000Y-84068000D01*
G36*
X86257000Y-83318000D02*
G01*
X86982000Y-83318000D01*
X86984617Y-83318069D01*
X86987226Y-83318274D01*
X86989822Y-83318616D01*
X86992396Y-83319093D01*
X86994941Y-83319704D01*
X86997451Y-83320447D01*
X86999918Y-83321321D01*
X87002337Y-83322323D01*
X87004700Y-83323450D01*
X87007000Y-83324699D01*
X87009232Y-83326066D01*
X87011389Y-83327549D01*
X87013466Y-83329143D01*
X87015457Y-83330843D01*
X87017355Y-83332645D01*
X87019157Y-83334543D01*
X87020857Y-83336534D01*
X87022451Y-83338611D01*
X87023934Y-83340768D01*
X87025301Y-83343000D01*
X87026550Y-83345300D01*
X87027677Y-83347663D01*
X87028679Y-83350082D01*
X87029553Y-83352549D01*
X87030296Y-83355059D01*
X87030907Y-83357604D01*
X87031384Y-83360178D01*
X87031726Y-83362774D01*
X87031931Y-83365383D01*
X87032000Y-83368000D01*
X87032000Y-83468000D01*
X87031931Y-83470617D01*
X87031726Y-83473226D01*
X87031384Y-83475822D01*
X87030907Y-83478396D01*
X87030296Y-83480941D01*
X87029553Y-83483451D01*
X87028679Y-83485918D01*
X87027677Y-83488337D01*
X87026550Y-83490700D01*
X87025301Y-83493000D01*
X87023934Y-83495232D01*
X87022451Y-83497389D01*
X87020857Y-83499466D01*
X87019157Y-83501457D01*
X87017355Y-83503355D01*
X87015457Y-83505157D01*
X87013466Y-83506857D01*
X87011389Y-83508451D01*
X87009232Y-83509934D01*
X87007000Y-83511301D01*
X87004700Y-83512550D01*
X87002337Y-83513677D01*
X86999918Y-83514679D01*
X86997451Y-83515553D01*
X86994941Y-83516296D01*
X86992396Y-83516907D01*
X86989822Y-83517384D01*
X86987226Y-83517726D01*
X86984617Y-83517931D01*
X86982000Y-83518000D01*
X86507000Y-83518000D01*
X86507000Y-83868000D01*
X86982000Y-83868000D01*
X86984617Y-83868069D01*
X86987226Y-83868274D01*
X86989822Y-83868616D01*
X86992396Y-83869093D01*
X86994941Y-83869704D01*
X86997451Y-83870447D01*
X86999918Y-83871321D01*
X87002337Y-83872323D01*
X87004700Y-83873450D01*
X87007000Y-83874699D01*
X87009232Y-83876066D01*
X87011389Y-83877549D01*
X87013466Y-83879143D01*
X87015457Y-83880843D01*
X87017355Y-83882645D01*
X87019157Y-83884543D01*
X87020857Y-83886534D01*
X87022451Y-83888611D01*
X87023934Y-83890768D01*
X87025301Y-83893000D01*
X87026550Y-83895300D01*
X87027677Y-83897663D01*
X87028679Y-83900082D01*
X87029553Y-83902549D01*
X87030296Y-83905059D01*
X87030907Y-83907604D01*
X87031384Y-83910178D01*
X87031726Y-83912774D01*
X87031931Y-83915383D01*
X87032000Y-83918000D01*
X87032000Y-84018000D01*
X87031931Y-84020617D01*
X87031726Y-84023226D01*
X87031384Y-84025822D01*
X87030907Y-84028396D01*
X87030296Y-84030941D01*
X87029553Y-84033451D01*
X87028679Y-84035918D01*
X87027677Y-84038337D01*
X87026550Y-84040700D01*
X87025301Y-84043000D01*
X87023934Y-84045232D01*
X87022451Y-84047389D01*
X87020857Y-84049466D01*
X87019157Y-84051457D01*
X87017355Y-84053355D01*
X87015457Y-84055157D01*
X87013466Y-84056857D01*
X87011389Y-84058451D01*
X87009232Y-84059934D01*
X87007000Y-84061301D01*
X87004700Y-84062550D01*
X87002337Y-84063677D01*
X86999918Y-84064679D01*
X86997451Y-84065553D01*
X86994941Y-84066296D01*
X86992396Y-84066907D01*
X86989822Y-84067384D01*
X86987226Y-84067726D01*
X86984617Y-84067931D01*
X86982000Y-84068000D01*
X86257000Y-84068000D01*
X86257000Y-83318000D01*
G37*
X86257000Y-83318000D02*
X86982000Y-83318000D01*
X86984617Y-83318069D01*
X86987226Y-83318274D01*
X86989822Y-83318616D01*
X86992396Y-83319093D01*
X86994941Y-83319704D01*
X86997451Y-83320447D01*
X86999918Y-83321321D01*
X87002337Y-83322323D01*
X87004700Y-83323450D01*
X87007000Y-83324699D01*
X87009232Y-83326066D01*
X87011389Y-83327549D01*
X87013466Y-83329143D01*
X87015457Y-83330843D01*
X87017355Y-83332645D01*
X87019157Y-83334543D01*
X87020857Y-83336534D01*
X87022451Y-83338611D01*
X87023934Y-83340768D01*
X87025301Y-83343000D01*
X87026550Y-83345300D01*
X87027677Y-83347663D01*
X87028679Y-83350082D01*
X87029553Y-83352549D01*
X87030296Y-83355059D01*
X87030907Y-83357604D01*
X87031384Y-83360178D01*
X87031726Y-83362774D01*
X87031931Y-83365383D01*
X87032000Y-83368000D01*
X87032000Y-83468000D01*
X87031931Y-83470617D01*
X87031726Y-83473226D01*
X87031384Y-83475822D01*
X87030907Y-83478396D01*
X87030296Y-83480941D01*
X87029553Y-83483451D01*
X87028679Y-83485918D01*
X87027677Y-83488337D01*
X87026550Y-83490700D01*
X87025301Y-83493000D01*
X87023934Y-83495232D01*
X87022451Y-83497389D01*
X87020857Y-83499466D01*
X87019157Y-83501457D01*
X87017355Y-83503355D01*
X87015457Y-83505157D01*
X87013466Y-83506857D01*
X87011389Y-83508451D01*
X87009232Y-83509934D01*
X87007000Y-83511301D01*
X87004700Y-83512550D01*
X87002337Y-83513677D01*
X86999918Y-83514679D01*
X86997451Y-83515553D01*
X86994941Y-83516296D01*
X86992396Y-83516907D01*
X86989822Y-83517384D01*
X86987226Y-83517726D01*
X86984617Y-83517931D01*
X86982000Y-83518000D01*
X86507000Y-83518000D01*
X86507000Y-83868000D01*
X86982000Y-83868000D01*
X86984617Y-83868069D01*
X86987226Y-83868274D01*
X86989822Y-83868616D01*
X86992396Y-83869093D01*
X86994941Y-83869704D01*
X86997451Y-83870447D01*
X86999918Y-83871321D01*
X87002337Y-83872323D01*
X87004700Y-83873450D01*
X87007000Y-83874699D01*
X87009232Y-83876066D01*
X87011389Y-83877549D01*
X87013466Y-83879143D01*
X87015457Y-83880843D01*
X87017355Y-83882645D01*
X87019157Y-83884543D01*
X87020857Y-83886534D01*
X87022451Y-83888611D01*
X87023934Y-83890768D01*
X87025301Y-83893000D01*
X87026550Y-83895300D01*
X87027677Y-83897663D01*
X87028679Y-83900082D01*
X87029553Y-83902549D01*
X87030296Y-83905059D01*
X87030907Y-83907604D01*
X87031384Y-83910178D01*
X87031726Y-83912774D01*
X87031931Y-83915383D01*
X87032000Y-83918000D01*
X87032000Y-84018000D01*
X87031931Y-84020617D01*
X87031726Y-84023226D01*
X87031384Y-84025822D01*
X87030907Y-84028396D01*
X87030296Y-84030941D01*
X87029553Y-84033451D01*
X87028679Y-84035918D01*
X87027677Y-84038337D01*
X87026550Y-84040700D01*
X87025301Y-84043000D01*
X87023934Y-84045232D01*
X87022451Y-84047389D01*
X87020857Y-84049466D01*
X87019157Y-84051457D01*
X87017355Y-84053355D01*
X87015457Y-84055157D01*
X87013466Y-84056857D01*
X87011389Y-84058451D01*
X87009232Y-84059934D01*
X87007000Y-84061301D01*
X87004700Y-84062550D01*
X87002337Y-84063677D01*
X86999918Y-84064679D01*
X86997451Y-84065553D01*
X86994941Y-84066296D01*
X86992396Y-84066907D01*
X86989822Y-84067384D01*
X86987226Y-84067726D01*
X86984617Y-84067931D01*
X86982000Y-84068000D01*
X86257000Y-84068000D01*
X86257000Y-83318000D01*
G36*
X85207000Y-82673000D02*
G01*
X85207000Y-83593000D01*
X86057000Y-83593000D01*
X86057000Y-82673000D01*
X85207000Y-82673000D01*
G37*
X85207000Y-82673000D02*
X85207000Y-83593000D01*
X86057000Y-83593000D01*
X86057000Y-82673000D01*
X85207000Y-82673000D01*
G36*
X85207000Y-83793000D02*
G01*
X85207000Y-84713000D01*
X86057000Y-84713000D01*
X86057000Y-83793000D01*
X85207000Y-83793000D01*
G37*
X85207000Y-83793000D02*
X85207000Y-84713000D01*
X86057000Y-84713000D01*
X86057000Y-83793000D01*
X85207000Y-83793000D01*
G36*
X83107000Y-82673000D02*
G01*
X83107000Y-83593000D01*
X83957000Y-83593000D01*
X83957000Y-82673000D01*
X83107000Y-82673000D01*
G37*
X83107000Y-82673000D02*
X83107000Y-83593000D01*
X83957000Y-83593000D01*
X83957000Y-82673000D01*
X83107000Y-82673000D01*
G36*
X83107000Y-83793000D02*
G01*
X83107000Y-84713000D01*
X83957000Y-84713000D01*
X83957000Y-83793000D01*
X83107000Y-83793000D01*
G37*
X83107000Y-83793000D02*
X83107000Y-84713000D01*
X83957000Y-84713000D01*
X83957000Y-83793000D01*
X83107000Y-83793000D01*
G36*
X84157000Y-82673000D02*
G01*
X84157000Y-83593000D01*
X85007000Y-83593000D01*
X85007000Y-82673000D01*
X84157000Y-82673000D01*
G37*
X84157000Y-82673000D02*
X84157000Y-83593000D01*
X85007000Y-83593000D01*
X85007000Y-82673000D01*
X84157000Y-82673000D01*
G36*
X84157000Y-83793000D02*
G01*
X84157000Y-84713000D01*
X85007000Y-84713000D01*
X85007000Y-83793000D01*
X84157000Y-83793000D01*
G37*
X84157000Y-83793000D02*
X84157000Y-84713000D01*
X85007000Y-84713000D01*
X85007000Y-83793000D01*
X84157000Y-83793000D01*
%TD*%
%TO.C,U22*%
G36*
G01*
X65155500Y-85370000D02*
X65620500Y-85370000D01*
G75*
G02*
X65853000Y-85602500I0J-232500D01*
G01*
X65853000Y-87117500D01*
G75*
G02*
X65620500Y-87350000I-232500J0D01*
G01*
X65155500Y-87350000D01*
G75*
G02*
X64923000Y-87117500I0J232500D01*
G01*
X64923000Y-85602500D01*
G75*
G02*
X65155500Y-85370000I232500J0D01*
G01*
G37*
G36*
G01*
X66315500Y-85370000D02*
X66780500Y-85370000D01*
G75*
G02*
X67013000Y-85602500I0J-232500D01*
G01*
X67013000Y-87117500D01*
G75*
G02*
X66780500Y-87350000I-232500J0D01*
G01*
X66315500Y-87350000D01*
G75*
G02*
X66083000Y-87117500I0J232500D01*
G01*
X66083000Y-85602500D01*
G75*
G02*
X66315500Y-85370000I232500J0D01*
G01*
G37*
G36*
G01*
X68143000Y-88435000D02*
X68343000Y-88435000D01*
G75*
G02*
X68443000Y-88535000I0J-100000D01*
G01*
X68443000Y-89910000D01*
G75*
G02*
X68343000Y-90010000I-100000J0D01*
G01*
X68143000Y-90010000D01*
G75*
G02*
X68043000Y-89910000I0J100000D01*
G01*
X68043000Y-88535000D01*
G75*
G02*
X68143000Y-88435000I100000J0D01*
G01*
G37*
G36*
G01*
X67493000Y-88435000D02*
X67693000Y-88435000D01*
G75*
G02*
X67793000Y-88535000I0J-100000D01*
G01*
X67793000Y-89910000D01*
G75*
G02*
X67693000Y-90010000I-100000J0D01*
G01*
X67493000Y-90010000D01*
G75*
G02*
X67393000Y-89910000I0J100000D01*
G01*
X67393000Y-88535000D01*
G75*
G02*
X67493000Y-88435000I100000J0D01*
G01*
G37*
G36*
G01*
X66843000Y-88435000D02*
X67043000Y-88435000D01*
G75*
G02*
X67143000Y-88535000I0J-100000D01*
G01*
X67143000Y-89910000D01*
G75*
G02*
X67043000Y-90010000I-100000J0D01*
G01*
X66843000Y-90010000D01*
G75*
G02*
X66743000Y-89910000I0J100000D01*
G01*
X66743000Y-88535000D01*
G75*
G02*
X66843000Y-88435000I100000J0D01*
G01*
G37*
G36*
G01*
X66193000Y-88435000D02*
X66393000Y-88435000D01*
G75*
G02*
X66493000Y-88535000I0J-100000D01*
G01*
X66493000Y-89910000D01*
G75*
G02*
X66393000Y-90010000I-100000J0D01*
G01*
X66193000Y-90010000D01*
G75*
G02*
X66093000Y-89910000I0J100000D01*
G01*
X66093000Y-88535000D01*
G75*
G02*
X66193000Y-88435000I100000J0D01*
G01*
G37*
G36*
G01*
X65543000Y-88435000D02*
X65743000Y-88435000D01*
G75*
G02*
X65843000Y-88535000I0J-100000D01*
G01*
X65843000Y-89910000D01*
G75*
G02*
X65743000Y-90010000I-100000J0D01*
G01*
X65543000Y-90010000D01*
G75*
G02*
X65443000Y-89910000I0J100000D01*
G01*
X65443000Y-88535000D01*
G75*
G02*
X65543000Y-88435000I100000J0D01*
G01*
G37*
G36*
G01*
X64893000Y-88435000D02*
X65093000Y-88435000D01*
G75*
G02*
X65193000Y-88535000I0J-100000D01*
G01*
X65193000Y-89910000D01*
G75*
G02*
X65093000Y-90010000I-100000J0D01*
G01*
X64893000Y-90010000D01*
G75*
G02*
X64793000Y-89910000I0J100000D01*
G01*
X64793000Y-88535000D01*
G75*
G02*
X64893000Y-88435000I100000J0D01*
G01*
G37*
G36*
G01*
X64243000Y-88435000D02*
X64443000Y-88435000D01*
G75*
G02*
X64543000Y-88535000I0J-100000D01*
G01*
X64543000Y-89910000D01*
G75*
G02*
X64443000Y-90010000I-100000J0D01*
G01*
X64243000Y-90010000D01*
G75*
G02*
X64143000Y-89910000I0J100000D01*
G01*
X64143000Y-88535000D01*
G75*
G02*
X64243000Y-88435000I100000J0D01*
G01*
G37*
G36*
G01*
X63593000Y-88435000D02*
X63793000Y-88435000D01*
G75*
G02*
X63893000Y-88535000I0J-100000D01*
G01*
X63893000Y-89910000D01*
G75*
G02*
X63793000Y-90010000I-100000J0D01*
G01*
X63593000Y-90010000D01*
G75*
G02*
X63493000Y-89910000I0J100000D01*
G01*
X63493000Y-88535000D01*
G75*
G02*
X63593000Y-88435000I100000J0D01*
G01*
G37*
G36*
G01*
X63593000Y-82710000D02*
X63793000Y-82710000D01*
G75*
G02*
X63893000Y-82810000I0J-100000D01*
G01*
X63893000Y-84185000D01*
G75*
G02*
X63793000Y-84285000I-100000J0D01*
G01*
X63593000Y-84285000D01*
G75*
G02*
X63493000Y-84185000I0J100000D01*
G01*
X63493000Y-82810000D01*
G75*
G02*
X63593000Y-82710000I100000J0D01*
G01*
G37*
G36*
G01*
X64243000Y-82710000D02*
X64443000Y-82710000D01*
G75*
G02*
X64543000Y-82810000I0J-100000D01*
G01*
X64543000Y-84185000D01*
G75*
G02*
X64443000Y-84285000I-100000J0D01*
G01*
X64243000Y-84285000D01*
G75*
G02*
X64143000Y-84185000I0J100000D01*
G01*
X64143000Y-82810000D01*
G75*
G02*
X64243000Y-82710000I100000J0D01*
G01*
G37*
G36*
G01*
X64893000Y-82710000D02*
X65093000Y-82710000D01*
G75*
G02*
X65193000Y-82810000I0J-100000D01*
G01*
X65193000Y-84185000D01*
G75*
G02*
X65093000Y-84285000I-100000J0D01*
G01*
X64893000Y-84285000D01*
G75*
G02*
X64793000Y-84185000I0J100000D01*
G01*
X64793000Y-82810000D01*
G75*
G02*
X64893000Y-82710000I100000J0D01*
G01*
G37*
G36*
G01*
X65543000Y-82710000D02*
X65743000Y-82710000D01*
G75*
G02*
X65843000Y-82810000I0J-100000D01*
G01*
X65843000Y-84185000D01*
G75*
G02*
X65743000Y-84285000I-100000J0D01*
G01*
X65543000Y-84285000D01*
G75*
G02*
X65443000Y-84185000I0J100000D01*
G01*
X65443000Y-82810000D01*
G75*
G02*
X65543000Y-82710000I100000J0D01*
G01*
G37*
G36*
G01*
X66193000Y-82710000D02*
X66393000Y-82710000D01*
G75*
G02*
X66493000Y-82810000I0J-100000D01*
G01*
X66493000Y-84185000D01*
G75*
G02*
X66393000Y-84285000I-100000J0D01*
G01*
X66193000Y-84285000D01*
G75*
G02*
X66093000Y-84185000I0J100000D01*
G01*
X66093000Y-82810000D01*
G75*
G02*
X66193000Y-82710000I100000J0D01*
G01*
G37*
G36*
G01*
X66843000Y-82710000D02*
X67043000Y-82710000D01*
G75*
G02*
X67143000Y-82810000I0J-100000D01*
G01*
X67143000Y-84185000D01*
G75*
G02*
X67043000Y-84285000I-100000J0D01*
G01*
X66843000Y-84285000D01*
G75*
G02*
X66743000Y-84185000I0J100000D01*
G01*
X66743000Y-82810000D01*
G75*
G02*
X66843000Y-82710000I100000J0D01*
G01*
G37*
G36*
G01*
X67493000Y-82710000D02*
X67693000Y-82710000D01*
G75*
G02*
X67793000Y-82810000I0J-100000D01*
G01*
X67793000Y-84185000D01*
G75*
G02*
X67693000Y-84285000I-100000J0D01*
G01*
X67493000Y-84285000D01*
G75*
G02*
X67393000Y-84185000I0J100000D01*
G01*
X67393000Y-82810000D01*
G75*
G02*
X67493000Y-82710000I100000J0D01*
G01*
G37*
G36*
G01*
X68143000Y-82710000D02*
X68343000Y-82710000D01*
G75*
G02*
X68443000Y-82810000I0J-100000D01*
G01*
X68443000Y-84185000D01*
G75*
G02*
X68343000Y-84285000I-100000J0D01*
G01*
X68143000Y-84285000D01*
G75*
G02*
X68043000Y-84185000I0J100000D01*
G01*
X68043000Y-82810000D01*
G75*
G02*
X68143000Y-82710000I100000J0D01*
G01*
G37*
%TD*%
%TO.C,C25*%
G36*
G01*
X63750000Y-92258000D02*
X63250000Y-92258000D01*
G75*
G02*
X63025000Y-92033000I0J225000D01*
G01*
X63025000Y-91583000D01*
G75*
G02*
X63250000Y-91358000I225000J0D01*
G01*
X63750000Y-91358000D01*
G75*
G02*
X63975000Y-91583000I0J-225000D01*
G01*
X63975000Y-92033000D01*
G75*
G02*
X63750000Y-92258000I-225000J0D01*
G01*
G37*
G36*
G01*
X63750000Y-93808000D02*
X63250000Y-93808000D01*
G75*
G02*
X63025000Y-93583000I0J225000D01*
G01*
X63025000Y-93133000D01*
G75*
G02*
X63250000Y-92908000I225000J0D01*
G01*
X63750000Y-92908000D01*
G75*
G02*
X63975000Y-93133000I0J-225000D01*
G01*
X63975000Y-93583000D01*
G75*
G02*
X63750000Y-93808000I-225000J0D01*
G01*
G37*
%TD*%
%TO.C,C24*%
G36*
G01*
X66617000Y-92804000D02*
X66617000Y-91854000D01*
G75*
G02*
X66867000Y-91604000I250000J0D01*
G01*
X67367000Y-91604000D01*
G75*
G02*
X67617000Y-91854000I0J-250000D01*
G01*
X67617000Y-92804000D01*
G75*
G02*
X67367000Y-93054000I-250000J0D01*
G01*
X66867000Y-93054000D01*
G75*
G02*
X66617000Y-92804000I0J250000D01*
G01*
G37*
G36*
G01*
X64717000Y-92804000D02*
X64717000Y-91854000D01*
G75*
G02*
X64967000Y-91604000I250000J0D01*
G01*
X65467000Y-91604000D01*
G75*
G02*
X65717000Y-91854000I0J-250000D01*
G01*
X65717000Y-92804000D01*
G75*
G02*
X65467000Y-93054000I-250000J0D01*
G01*
X64967000Y-93054000D01*
G75*
G02*
X64717000Y-92804000I0J250000D01*
G01*
G37*
%TD*%
%TO.C,C23*%
G36*
G01*
X68457000Y-92908000D02*
X68957000Y-92908000D01*
G75*
G02*
X69182000Y-93133000I0J-225000D01*
G01*
X69182000Y-93583000D01*
G75*
G02*
X68957000Y-93808000I-225000J0D01*
G01*
X68457000Y-93808000D01*
G75*
G02*
X68232000Y-93583000I0J225000D01*
G01*
X68232000Y-93133000D01*
G75*
G02*
X68457000Y-92908000I225000J0D01*
G01*
G37*
G36*
G01*
X68457000Y-91358000D02*
X68957000Y-91358000D01*
G75*
G02*
X69182000Y-91583000I0J-225000D01*
G01*
X69182000Y-92033000D01*
G75*
G02*
X68957000Y-92258000I-225000J0D01*
G01*
X68457000Y-92258000D01*
G75*
G02*
X68232000Y-92033000I0J225000D01*
G01*
X68232000Y-91583000D01*
G75*
G02*
X68457000Y-91358000I225000J0D01*
G01*
G37*
%TD*%
D11*
%TO.C,D15*%
X77851000Y-25020000D03*
X77851000Y-28320000D03*
%TD*%
%TO.C,D13*%
X10033000Y-14098000D03*
X10033000Y-17398000D03*
%TD*%
%TO.C,C22*%
G36*
G01*
X66671000Y-39934000D02*
X66171000Y-39934000D01*
G75*
G02*
X65946000Y-39709000I0J225000D01*
G01*
X65946000Y-39259000D01*
G75*
G02*
X66171000Y-39034000I225000J0D01*
G01*
X66671000Y-39034000D01*
G75*
G02*
X66896000Y-39259000I0J-225000D01*
G01*
X66896000Y-39709000D01*
G75*
G02*
X66671000Y-39934000I-225000J0D01*
G01*
G37*
G36*
G01*
X66671000Y-41484000D02*
X66171000Y-41484000D01*
G75*
G02*
X65946000Y-41259000I0J225000D01*
G01*
X65946000Y-40809000D01*
G75*
G02*
X66171000Y-40584000I225000J0D01*
G01*
X66671000Y-40584000D01*
G75*
G02*
X66896000Y-40809000I0J-225000D01*
G01*
X66896000Y-41259000D01*
G75*
G02*
X66671000Y-41484000I-225000J0D01*
G01*
G37*
%TD*%
%TO.C,R75*%
G36*
G01*
X87624000Y-39946000D02*
X87074000Y-39946000D01*
G75*
G02*
X86874000Y-39746000I0J200000D01*
G01*
X86874000Y-39346000D01*
G75*
G02*
X87074000Y-39146000I200000J0D01*
G01*
X87624000Y-39146000D01*
G75*
G02*
X87824000Y-39346000I0J-200000D01*
G01*
X87824000Y-39746000D01*
G75*
G02*
X87624000Y-39946000I-200000J0D01*
G01*
G37*
G36*
G01*
X87624000Y-41596000D02*
X87074000Y-41596000D01*
G75*
G02*
X86874000Y-41396000I0J200000D01*
G01*
X86874000Y-40996000D01*
G75*
G02*
X87074000Y-40796000I200000J0D01*
G01*
X87624000Y-40796000D01*
G75*
G02*
X87824000Y-40996000I0J-200000D01*
G01*
X87824000Y-41396000D01*
G75*
G02*
X87624000Y-41596000I-200000J0D01*
G01*
G37*
%TD*%
%TO.C,R74*%
G36*
G01*
X1480000Y-34015000D02*
X1480000Y-34565000D01*
G75*
G02*
X1280000Y-34765000I-200000J0D01*
G01*
X880000Y-34765000D01*
G75*
G02*
X680000Y-34565000I0J200000D01*
G01*
X680000Y-34015000D01*
G75*
G02*
X880000Y-33815000I200000J0D01*
G01*
X1280000Y-33815000D01*
G75*
G02*
X1480000Y-34015000I0J-200000D01*
G01*
G37*
G36*
G01*
X3130000Y-34015000D02*
X3130000Y-34565000D01*
G75*
G02*
X2930000Y-34765000I-200000J0D01*
G01*
X2530000Y-34765000D01*
G75*
G02*
X2330000Y-34565000I0J200000D01*
G01*
X2330000Y-34015000D01*
G75*
G02*
X2530000Y-33815000I200000J0D01*
G01*
X2930000Y-33815000D01*
G75*
G02*
X3130000Y-34015000I0J-200000D01*
G01*
G37*
%TD*%
%TO.C,R73*%
G36*
G01*
X82594000Y-29485000D02*
X82594000Y-28935000D01*
G75*
G02*
X82794000Y-28735000I200000J0D01*
G01*
X83194000Y-28735000D01*
G75*
G02*
X83394000Y-28935000I0J-200000D01*
G01*
X83394000Y-29485000D01*
G75*
G02*
X83194000Y-29685000I-200000J0D01*
G01*
X82794000Y-29685000D01*
G75*
G02*
X82594000Y-29485000I0J200000D01*
G01*
G37*
G36*
G01*
X80944000Y-29485000D02*
X80944000Y-28935000D01*
G75*
G02*
X81144000Y-28735000I200000J0D01*
G01*
X81544000Y-28735000D01*
G75*
G02*
X81744000Y-28935000I0J-200000D01*
G01*
X81744000Y-29485000D01*
G75*
G02*
X81544000Y-29685000I-200000J0D01*
G01*
X81144000Y-29685000D01*
G75*
G02*
X80944000Y-29485000I0J200000D01*
G01*
G37*
%TD*%
%TO.C,R72*%
G36*
G01*
X30524000Y-84857000D02*
X30524000Y-84307000D01*
G75*
G02*
X30724000Y-84107000I200000J0D01*
G01*
X31124000Y-84107000D01*
G75*
G02*
X31324000Y-84307000I0J-200000D01*
G01*
X31324000Y-84857000D01*
G75*
G02*
X31124000Y-85057000I-200000J0D01*
G01*
X30724000Y-85057000D01*
G75*
G02*
X30524000Y-84857000I0J200000D01*
G01*
G37*
G36*
G01*
X28874000Y-84857000D02*
X28874000Y-84307000D01*
G75*
G02*
X29074000Y-84107000I200000J0D01*
G01*
X29474000Y-84107000D01*
G75*
G02*
X29674000Y-84307000I0J-200000D01*
G01*
X29674000Y-84857000D01*
G75*
G02*
X29474000Y-85057000I-200000J0D01*
G01*
X29074000Y-85057000D01*
G75*
G02*
X28874000Y-84857000I0J200000D01*
G01*
G37*
%TD*%
%TO.C,R71*%
G36*
G01*
X1988000Y-47731000D02*
X1988000Y-48281000D01*
G75*
G02*
X1788000Y-48481000I-200000J0D01*
G01*
X1388000Y-48481000D01*
G75*
G02*
X1188000Y-48281000I0J200000D01*
G01*
X1188000Y-47731000D01*
G75*
G02*
X1388000Y-47531000I200000J0D01*
G01*
X1788000Y-47531000D01*
G75*
G02*
X1988000Y-47731000I0J-200000D01*
G01*
G37*
G36*
G01*
X3638000Y-47731000D02*
X3638000Y-48281000D01*
G75*
G02*
X3438000Y-48481000I-200000J0D01*
G01*
X3038000Y-48481000D01*
G75*
G02*
X2838000Y-48281000I0J200000D01*
G01*
X2838000Y-47731000D01*
G75*
G02*
X3038000Y-47531000I200000J0D01*
G01*
X3438000Y-47531000D01*
G75*
G02*
X3638000Y-47731000I0J-200000D01*
G01*
G37*
%TD*%
%TO.C,R70*%
G36*
G01*
X25698000Y-84984000D02*
X25698000Y-84434000D01*
G75*
G02*
X25898000Y-84234000I200000J0D01*
G01*
X26298000Y-84234000D01*
G75*
G02*
X26498000Y-84434000I0J-200000D01*
G01*
X26498000Y-84984000D01*
G75*
G02*
X26298000Y-85184000I-200000J0D01*
G01*
X25898000Y-85184000D01*
G75*
G02*
X25698000Y-84984000I0J200000D01*
G01*
G37*
G36*
G01*
X24048000Y-84984000D02*
X24048000Y-84434000D01*
G75*
G02*
X24248000Y-84234000I200000J0D01*
G01*
X24648000Y-84234000D01*
G75*
G02*
X24848000Y-84434000I0J-200000D01*
G01*
X24848000Y-84984000D01*
G75*
G02*
X24648000Y-85184000I-200000J0D01*
G01*
X24248000Y-85184000D01*
G75*
G02*
X24048000Y-84984000I0J200000D01*
G01*
G37*
%TD*%
%TO.C,C21*%
G36*
G01*
X86075000Y-40046000D02*
X85575000Y-40046000D01*
G75*
G02*
X85350000Y-39821000I0J225000D01*
G01*
X85350000Y-39371000D01*
G75*
G02*
X85575000Y-39146000I225000J0D01*
G01*
X86075000Y-39146000D01*
G75*
G02*
X86300000Y-39371000I0J-225000D01*
G01*
X86300000Y-39821000D01*
G75*
G02*
X86075000Y-40046000I-225000J0D01*
G01*
G37*
G36*
G01*
X86075000Y-41596000D02*
X85575000Y-41596000D01*
G75*
G02*
X85350000Y-41371000I0J225000D01*
G01*
X85350000Y-40921000D01*
G75*
G02*
X85575000Y-40696000I225000J0D01*
G01*
X86075000Y-40696000D01*
G75*
G02*
X86300000Y-40921000I0J-225000D01*
G01*
X86300000Y-41371000D01*
G75*
G02*
X86075000Y-41596000I-225000J0D01*
G01*
G37*
%TD*%
%TO.C,C20*%
G36*
G01*
X2230000Y-33016000D02*
X2230000Y-32516000D01*
G75*
G02*
X2455000Y-32291000I225000J0D01*
G01*
X2905000Y-32291000D01*
G75*
G02*
X3130000Y-32516000I0J-225000D01*
G01*
X3130000Y-33016000D01*
G75*
G02*
X2905000Y-33241000I-225000J0D01*
G01*
X2455000Y-33241000D01*
G75*
G02*
X2230000Y-33016000I0J225000D01*
G01*
G37*
G36*
G01*
X680000Y-33016000D02*
X680000Y-32516000D01*
G75*
G02*
X905000Y-32291000I225000J0D01*
G01*
X1355000Y-32291000D01*
G75*
G02*
X1580000Y-32516000I0J-225000D01*
G01*
X1580000Y-33016000D01*
G75*
G02*
X1355000Y-33241000I-225000J0D01*
G01*
X905000Y-33241000D01*
G75*
G02*
X680000Y-33016000I0J225000D01*
G01*
G37*
%TD*%
%TO.C,C19*%
G36*
G01*
X82494000Y-30984000D02*
X82494000Y-30484000D01*
G75*
G02*
X82719000Y-30259000I225000J0D01*
G01*
X83169000Y-30259000D01*
G75*
G02*
X83394000Y-30484000I0J-225000D01*
G01*
X83394000Y-30984000D01*
G75*
G02*
X83169000Y-31209000I-225000J0D01*
G01*
X82719000Y-31209000D01*
G75*
G02*
X82494000Y-30984000I0J225000D01*
G01*
G37*
G36*
G01*
X80944000Y-30984000D02*
X80944000Y-30484000D01*
G75*
G02*
X81169000Y-30259000I225000J0D01*
G01*
X81619000Y-30259000D01*
G75*
G02*
X81844000Y-30484000I0J-225000D01*
G01*
X81844000Y-30984000D01*
G75*
G02*
X81619000Y-31209000I-225000J0D01*
G01*
X81169000Y-31209000D01*
G75*
G02*
X80944000Y-30984000I0J225000D01*
G01*
G37*
%TD*%
%TO.C,C18*%
G36*
G01*
X30424000Y-83308000D02*
X30424000Y-82808000D01*
G75*
G02*
X30649000Y-82583000I225000J0D01*
G01*
X31099000Y-82583000D01*
G75*
G02*
X31324000Y-82808000I0J-225000D01*
G01*
X31324000Y-83308000D01*
G75*
G02*
X31099000Y-83533000I-225000J0D01*
G01*
X30649000Y-83533000D01*
G75*
G02*
X30424000Y-83308000I0J225000D01*
G01*
G37*
G36*
G01*
X28874000Y-83308000D02*
X28874000Y-82808000D01*
G75*
G02*
X29099000Y-82583000I225000J0D01*
G01*
X29549000Y-82583000D01*
G75*
G02*
X29774000Y-82808000I0J-225000D01*
G01*
X29774000Y-83308000D01*
G75*
G02*
X29549000Y-83533000I-225000J0D01*
G01*
X29099000Y-83533000D01*
G75*
G02*
X28874000Y-83308000I0J225000D01*
G01*
G37*
%TD*%
%TO.C,C17*%
G36*
G01*
X2088000Y-46232000D02*
X2088000Y-46732000D01*
G75*
G02*
X1863000Y-46957000I-225000J0D01*
G01*
X1413000Y-46957000D01*
G75*
G02*
X1188000Y-46732000I0J225000D01*
G01*
X1188000Y-46232000D01*
G75*
G02*
X1413000Y-46007000I225000J0D01*
G01*
X1863000Y-46007000D01*
G75*
G02*
X2088000Y-46232000I0J-225000D01*
G01*
G37*
G36*
G01*
X3638000Y-46232000D02*
X3638000Y-46732000D01*
G75*
G02*
X3413000Y-46957000I-225000J0D01*
G01*
X2963000Y-46957000D01*
G75*
G02*
X2738000Y-46732000I0J225000D01*
G01*
X2738000Y-46232000D01*
G75*
G02*
X2963000Y-46007000I225000J0D01*
G01*
X3413000Y-46007000D01*
G75*
G02*
X3638000Y-46232000I0J-225000D01*
G01*
G37*
%TD*%
%TO.C,C16*%
G36*
G01*
X25598000Y-86483000D02*
X25598000Y-85983000D01*
G75*
G02*
X25823000Y-85758000I225000J0D01*
G01*
X26273000Y-85758000D01*
G75*
G02*
X26498000Y-85983000I0J-225000D01*
G01*
X26498000Y-86483000D01*
G75*
G02*
X26273000Y-86708000I-225000J0D01*
G01*
X25823000Y-86708000D01*
G75*
G02*
X25598000Y-86483000I0J225000D01*
G01*
G37*
G36*
G01*
X24048000Y-86483000D02*
X24048000Y-85983000D01*
G75*
G02*
X24273000Y-85758000I225000J0D01*
G01*
X24723000Y-85758000D01*
G75*
G02*
X24948000Y-85983000I0J-225000D01*
G01*
X24948000Y-86483000D01*
G75*
G02*
X24723000Y-86708000I-225000J0D01*
G01*
X24273000Y-86708000D01*
G75*
G02*
X24048000Y-86483000I0J225000D01*
G01*
G37*
%TD*%
D12*
%TO.C,U12*%
X87500000Y-44500000D03*
X87500000Y-50000000D03*
%TD*%
%TO.C,U11*%
X87500000Y-30750000D03*
X87500000Y-36250000D03*
%TD*%
%TO.C,U10*%
X2500000Y-44500000D03*
X2500000Y-50000000D03*
%TD*%
%TO.C,U9*%
X2500000Y-30750000D03*
X2500000Y-36250000D03*
%TD*%
%TO.C,C15*%
G36*
G01*
X48891000Y-42220000D02*
X48391000Y-42220000D01*
G75*
G02*
X48166000Y-41995000I0J225000D01*
G01*
X48166000Y-41545000D01*
G75*
G02*
X48391000Y-41320000I225000J0D01*
G01*
X48891000Y-41320000D01*
G75*
G02*
X49116000Y-41545000I0J-225000D01*
G01*
X49116000Y-41995000D01*
G75*
G02*
X48891000Y-42220000I-225000J0D01*
G01*
G37*
G36*
G01*
X48891000Y-43770000D02*
X48391000Y-43770000D01*
G75*
G02*
X48166000Y-43545000I0J225000D01*
G01*
X48166000Y-43095000D01*
G75*
G02*
X48391000Y-42870000I225000J0D01*
G01*
X48891000Y-42870000D01*
G75*
G02*
X49116000Y-43095000I0J-225000D01*
G01*
X49116000Y-43545000D01*
G75*
G02*
X48891000Y-43770000I-225000J0D01*
G01*
G37*
%TD*%
%TO.C,C14*%
G36*
G01*
X45537000Y-39239000D02*
X45537000Y-38739000D01*
G75*
G02*
X45762000Y-38514000I225000J0D01*
G01*
X46212000Y-38514000D01*
G75*
G02*
X46437000Y-38739000I0J-225000D01*
G01*
X46437000Y-39239000D01*
G75*
G02*
X46212000Y-39464000I-225000J0D01*
G01*
X45762000Y-39464000D01*
G75*
G02*
X45537000Y-39239000I0J225000D01*
G01*
G37*
G36*
G01*
X43987000Y-39239000D02*
X43987000Y-38739000D01*
G75*
G02*
X44212000Y-38514000I225000J0D01*
G01*
X44662000Y-38514000D01*
G75*
G02*
X44887000Y-38739000I0J-225000D01*
G01*
X44887000Y-39239000D01*
G75*
G02*
X44662000Y-39464000I-225000J0D01*
G01*
X44212000Y-39464000D01*
G75*
G02*
X43987000Y-39239000I0J225000D01*
G01*
G37*
%TD*%
%TO.C,R14*%
G36*
G01*
X46158998Y-54478500D02*
X47059002Y-54478500D01*
G75*
G02*
X47309000Y-54728498I0J-249998D01*
G01*
X47309000Y-55253502D01*
G75*
G02*
X47059002Y-55503500I-249998J0D01*
G01*
X46158998Y-55503500D01*
G75*
G02*
X45909000Y-55253502I0J249998D01*
G01*
X45909000Y-54728498D01*
G75*
G02*
X46158998Y-54478500I249998J0D01*
G01*
G37*
G36*
G01*
X46158998Y-52653500D02*
X47059002Y-52653500D01*
G75*
G02*
X47309000Y-52903498I0J-249998D01*
G01*
X47309000Y-53428502D01*
G75*
G02*
X47059002Y-53678500I-249998J0D01*
G01*
X46158998Y-53678500D01*
G75*
G02*
X45909000Y-53428502I0J249998D01*
G01*
X45909000Y-52903498D01*
G75*
G02*
X46158998Y-52653500I249998J0D01*
G01*
G37*
%TD*%
%TO.C,U21*%
G36*
G01*
X48918000Y-46379000D02*
X48618000Y-46379000D01*
G75*
G02*
X48468000Y-46229000I0J150000D01*
G01*
X48468000Y-44579000D01*
G75*
G02*
X48618000Y-44429000I150000J0D01*
G01*
X48918000Y-44429000D01*
G75*
G02*
X49068000Y-44579000I0J-150000D01*
G01*
X49068000Y-46229000D01*
G75*
G02*
X48918000Y-46379000I-150000J0D01*
G01*
G37*
G36*
G01*
X50188000Y-46379000D02*
X49888000Y-46379000D01*
G75*
G02*
X49738000Y-46229000I0J150000D01*
G01*
X49738000Y-44579000D01*
G75*
G02*
X49888000Y-44429000I150000J0D01*
G01*
X50188000Y-44429000D01*
G75*
G02*
X50338000Y-44579000I0J-150000D01*
G01*
X50338000Y-46229000D01*
G75*
G02*
X50188000Y-46379000I-150000J0D01*
G01*
G37*
G36*
G01*
X51458000Y-46379000D02*
X51158000Y-46379000D01*
G75*
G02*
X51008000Y-46229000I0J150000D01*
G01*
X51008000Y-44579000D01*
G75*
G02*
X51158000Y-44429000I150000J0D01*
G01*
X51458000Y-44429000D01*
G75*
G02*
X51608000Y-44579000I0J-150000D01*
G01*
X51608000Y-46229000D01*
G75*
G02*
X51458000Y-46379000I-150000J0D01*
G01*
G37*
G36*
G01*
X52728000Y-46379000D02*
X52428000Y-46379000D01*
G75*
G02*
X52278000Y-46229000I0J150000D01*
G01*
X52278000Y-44579000D01*
G75*
G02*
X52428000Y-44429000I150000J0D01*
G01*
X52728000Y-44429000D01*
G75*
G02*
X52878000Y-44579000I0J-150000D01*
G01*
X52878000Y-46229000D01*
G75*
G02*
X52728000Y-46379000I-150000J0D01*
G01*
G37*
G36*
G01*
X53998000Y-46379000D02*
X53698000Y-46379000D01*
G75*
G02*
X53548000Y-46229000I0J150000D01*
G01*
X53548000Y-44579000D01*
G75*
G02*
X53698000Y-44429000I150000J0D01*
G01*
X53998000Y-44429000D01*
G75*
G02*
X54148000Y-44579000I0J-150000D01*
G01*
X54148000Y-46229000D01*
G75*
G02*
X53998000Y-46379000I-150000J0D01*
G01*
G37*
G36*
G01*
X55268000Y-46379000D02*
X54968000Y-46379000D01*
G75*
G02*
X54818000Y-46229000I0J150000D01*
G01*
X54818000Y-44579000D01*
G75*
G02*
X54968000Y-44429000I150000J0D01*
G01*
X55268000Y-44429000D01*
G75*
G02*
X55418000Y-44579000I0J-150000D01*
G01*
X55418000Y-46229000D01*
G75*
G02*
X55268000Y-46379000I-150000J0D01*
G01*
G37*
G36*
G01*
X56538000Y-46379000D02*
X56238000Y-46379000D01*
G75*
G02*
X56088000Y-46229000I0J150000D01*
G01*
X56088000Y-44579000D01*
G75*
G02*
X56238000Y-44429000I150000J0D01*
G01*
X56538000Y-44429000D01*
G75*
G02*
X56688000Y-44579000I0J-150000D01*
G01*
X56688000Y-46229000D01*
G75*
G02*
X56538000Y-46379000I-150000J0D01*
G01*
G37*
G36*
G01*
X57808000Y-46379000D02*
X57508000Y-46379000D01*
G75*
G02*
X57358000Y-46229000I0J150000D01*
G01*
X57358000Y-44579000D01*
G75*
G02*
X57508000Y-44429000I150000J0D01*
G01*
X57808000Y-44429000D01*
G75*
G02*
X57958000Y-44579000I0J-150000D01*
G01*
X57958000Y-46229000D01*
G75*
G02*
X57808000Y-46379000I-150000J0D01*
G01*
G37*
G36*
G01*
X57808000Y-51329000D02*
X57508000Y-51329000D01*
G75*
G02*
X57358000Y-51179000I0J150000D01*
G01*
X57358000Y-49529000D01*
G75*
G02*
X57508000Y-49379000I150000J0D01*
G01*
X57808000Y-49379000D01*
G75*
G02*
X57958000Y-49529000I0J-150000D01*
G01*
X57958000Y-51179000D01*
G75*
G02*
X57808000Y-51329000I-150000J0D01*
G01*
G37*
G36*
G01*
X56538000Y-51329000D02*
X56238000Y-51329000D01*
G75*
G02*
X56088000Y-51179000I0J150000D01*
G01*
X56088000Y-49529000D01*
G75*
G02*
X56238000Y-49379000I150000J0D01*
G01*
X56538000Y-49379000D01*
G75*
G02*
X56688000Y-49529000I0J-150000D01*
G01*
X56688000Y-51179000D01*
G75*
G02*
X56538000Y-51329000I-150000J0D01*
G01*
G37*
G36*
G01*
X55268000Y-51329000D02*
X54968000Y-51329000D01*
G75*
G02*
X54818000Y-51179000I0J150000D01*
G01*
X54818000Y-49529000D01*
G75*
G02*
X54968000Y-49379000I150000J0D01*
G01*
X55268000Y-49379000D01*
G75*
G02*
X55418000Y-49529000I0J-150000D01*
G01*
X55418000Y-51179000D01*
G75*
G02*
X55268000Y-51329000I-150000J0D01*
G01*
G37*
G36*
G01*
X53998000Y-51329000D02*
X53698000Y-51329000D01*
G75*
G02*
X53548000Y-51179000I0J150000D01*
G01*
X53548000Y-49529000D01*
G75*
G02*
X53698000Y-49379000I150000J0D01*
G01*
X53998000Y-49379000D01*
G75*
G02*
X54148000Y-49529000I0J-150000D01*
G01*
X54148000Y-51179000D01*
G75*
G02*
X53998000Y-51329000I-150000J0D01*
G01*
G37*
G36*
G01*
X52728000Y-51329000D02*
X52428000Y-51329000D01*
G75*
G02*
X52278000Y-51179000I0J150000D01*
G01*
X52278000Y-49529000D01*
G75*
G02*
X52428000Y-49379000I150000J0D01*
G01*
X52728000Y-49379000D01*
G75*
G02*
X52878000Y-49529000I0J-150000D01*
G01*
X52878000Y-51179000D01*
G75*
G02*
X52728000Y-51329000I-150000J0D01*
G01*
G37*
G36*
G01*
X51458000Y-51329000D02*
X51158000Y-51329000D01*
G75*
G02*
X51008000Y-51179000I0J150000D01*
G01*
X51008000Y-49529000D01*
G75*
G02*
X51158000Y-49379000I150000J0D01*
G01*
X51458000Y-49379000D01*
G75*
G02*
X51608000Y-49529000I0J-150000D01*
G01*
X51608000Y-51179000D01*
G75*
G02*
X51458000Y-51329000I-150000J0D01*
G01*
G37*
G36*
G01*
X50188000Y-51329000D02*
X49888000Y-51329000D01*
G75*
G02*
X49738000Y-51179000I0J150000D01*
G01*
X49738000Y-49529000D01*
G75*
G02*
X49888000Y-49379000I150000J0D01*
G01*
X50188000Y-49379000D01*
G75*
G02*
X50338000Y-49529000I0J-150000D01*
G01*
X50338000Y-51179000D01*
G75*
G02*
X50188000Y-51329000I-150000J0D01*
G01*
G37*
G36*
G01*
X48918000Y-51329000D02*
X48618000Y-51329000D01*
G75*
G02*
X48468000Y-51179000I0J150000D01*
G01*
X48468000Y-49529000D01*
G75*
G02*
X48618000Y-49379000I150000J0D01*
G01*
X48918000Y-49379000D01*
G75*
G02*
X49068000Y-49529000I0J-150000D01*
G01*
X49068000Y-51179000D01*
G75*
G02*
X48918000Y-51329000I-150000J0D01*
G01*
G37*
%TD*%
%TO.C,U20*%
G36*
G01*
X43348000Y-40790000D02*
X43348000Y-40490000D01*
G75*
G02*
X43498000Y-40340000I150000J0D01*
G01*
X45148000Y-40340000D01*
G75*
G02*
X45298000Y-40490000I0J-150000D01*
G01*
X45298000Y-40790000D01*
G75*
G02*
X45148000Y-40940000I-150000J0D01*
G01*
X43498000Y-40940000D01*
G75*
G02*
X43348000Y-40790000I0J150000D01*
G01*
G37*
G36*
G01*
X43348000Y-42060000D02*
X43348000Y-41760000D01*
G75*
G02*
X43498000Y-41610000I150000J0D01*
G01*
X45148000Y-41610000D01*
G75*
G02*
X45298000Y-41760000I0J-150000D01*
G01*
X45298000Y-42060000D01*
G75*
G02*
X45148000Y-42210000I-150000J0D01*
G01*
X43498000Y-42210000D01*
G75*
G02*
X43348000Y-42060000I0J150000D01*
G01*
G37*
G36*
G01*
X43348000Y-43330000D02*
X43348000Y-43030000D01*
G75*
G02*
X43498000Y-42880000I150000J0D01*
G01*
X45148000Y-42880000D01*
G75*
G02*
X45298000Y-43030000I0J-150000D01*
G01*
X45298000Y-43330000D01*
G75*
G02*
X45148000Y-43480000I-150000J0D01*
G01*
X43498000Y-43480000D01*
G75*
G02*
X43348000Y-43330000I0J150000D01*
G01*
G37*
G36*
G01*
X43348000Y-44600000D02*
X43348000Y-44300000D01*
G75*
G02*
X43498000Y-44150000I150000J0D01*
G01*
X45148000Y-44150000D01*
G75*
G02*
X45298000Y-44300000I0J-150000D01*
G01*
X45298000Y-44600000D01*
G75*
G02*
X45148000Y-44750000I-150000J0D01*
G01*
X43498000Y-44750000D01*
G75*
G02*
X43348000Y-44600000I0J150000D01*
G01*
G37*
G36*
G01*
X43348000Y-45870000D02*
X43348000Y-45570000D01*
G75*
G02*
X43498000Y-45420000I150000J0D01*
G01*
X45148000Y-45420000D01*
G75*
G02*
X45298000Y-45570000I0J-150000D01*
G01*
X45298000Y-45870000D01*
G75*
G02*
X45148000Y-46020000I-150000J0D01*
G01*
X43498000Y-46020000D01*
G75*
G02*
X43348000Y-45870000I0J150000D01*
G01*
G37*
G36*
G01*
X43348000Y-47140000D02*
X43348000Y-46840000D01*
G75*
G02*
X43498000Y-46690000I150000J0D01*
G01*
X45148000Y-46690000D01*
G75*
G02*
X45298000Y-46840000I0J-150000D01*
G01*
X45298000Y-47140000D01*
G75*
G02*
X45148000Y-47290000I-150000J0D01*
G01*
X43498000Y-47290000D01*
G75*
G02*
X43348000Y-47140000I0J150000D01*
G01*
G37*
G36*
G01*
X43348000Y-48410000D02*
X43348000Y-48110000D01*
G75*
G02*
X43498000Y-47960000I150000J0D01*
G01*
X45148000Y-47960000D01*
G75*
G02*
X45298000Y-48110000I0J-150000D01*
G01*
X45298000Y-48410000D01*
G75*
G02*
X45148000Y-48560000I-150000J0D01*
G01*
X43498000Y-48560000D01*
G75*
G02*
X43348000Y-48410000I0J150000D01*
G01*
G37*
G36*
G01*
X43348000Y-49680000D02*
X43348000Y-49380000D01*
G75*
G02*
X43498000Y-49230000I150000J0D01*
G01*
X45148000Y-49230000D01*
G75*
G02*
X45298000Y-49380000I0J-150000D01*
G01*
X45298000Y-49680000D01*
G75*
G02*
X45148000Y-49830000I-150000J0D01*
G01*
X43498000Y-49830000D01*
G75*
G02*
X43348000Y-49680000I0J150000D01*
G01*
G37*
G36*
G01*
X38398000Y-49680000D02*
X38398000Y-49380000D01*
G75*
G02*
X38548000Y-49230000I150000J0D01*
G01*
X40198000Y-49230000D01*
G75*
G02*
X40348000Y-49380000I0J-150000D01*
G01*
X40348000Y-49680000D01*
G75*
G02*
X40198000Y-49830000I-150000J0D01*
G01*
X38548000Y-49830000D01*
G75*
G02*
X38398000Y-49680000I0J150000D01*
G01*
G37*
G36*
G01*
X38398000Y-48410000D02*
X38398000Y-48110000D01*
G75*
G02*
X38548000Y-47960000I150000J0D01*
G01*
X40198000Y-47960000D01*
G75*
G02*
X40348000Y-48110000I0J-150000D01*
G01*
X40348000Y-48410000D01*
G75*
G02*
X40198000Y-48560000I-150000J0D01*
G01*
X38548000Y-48560000D01*
G75*
G02*
X38398000Y-48410000I0J150000D01*
G01*
G37*
G36*
G01*
X38398000Y-47140000D02*
X38398000Y-46840000D01*
G75*
G02*
X38548000Y-46690000I150000J0D01*
G01*
X40198000Y-46690000D01*
G75*
G02*
X40348000Y-46840000I0J-150000D01*
G01*
X40348000Y-47140000D01*
G75*
G02*
X40198000Y-47290000I-150000J0D01*
G01*
X38548000Y-47290000D01*
G75*
G02*
X38398000Y-47140000I0J150000D01*
G01*
G37*
G36*
G01*
X38398000Y-45870000D02*
X38398000Y-45570000D01*
G75*
G02*
X38548000Y-45420000I150000J0D01*
G01*
X40198000Y-45420000D01*
G75*
G02*
X40348000Y-45570000I0J-150000D01*
G01*
X40348000Y-45870000D01*
G75*
G02*
X40198000Y-46020000I-150000J0D01*
G01*
X38548000Y-46020000D01*
G75*
G02*
X38398000Y-45870000I0J150000D01*
G01*
G37*
G36*
G01*
X38398000Y-44600000D02*
X38398000Y-44300000D01*
G75*
G02*
X38548000Y-44150000I150000J0D01*
G01*
X40198000Y-44150000D01*
G75*
G02*
X40348000Y-44300000I0J-150000D01*
G01*
X40348000Y-44600000D01*
G75*
G02*
X40198000Y-44750000I-150000J0D01*
G01*
X38548000Y-44750000D01*
G75*
G02*
X38398000Y-44600000I0J150000D01*
G01*
G37*
G36*
G01*
X38398000Y-43330000D02*
X38398000Y-43030000D01*
G75*
G02*
X38548000Y-42880000I150000J0D01*
G01*
X40198000Y-42880000D01*
G75*
G02*
X40348000Y-43030000I0J-150000D01*
G01*
X40348000Y-43330000D01*
G75*
G02*
X40198000Y-43480000I-150000J0D01*
G01*
X38548000Y-43480000D01*
G75*
G02*
X38398000Y-43330000I0J150000D01*
G01*
G37*
G36*
G01*
X38398000Y-42060000D02*
X38398000Y-41760000D01*
G75*
G02*
X38548000Y-41610000I150000J0D01*
G01*
X40198000Y-41610000D01*
G75*
G02*
X40348000Y-41760000I0J-150000D01*
G01*
X40348000Y-42060000D01*
G75*
G02*
X40198000Y-42210000I-150000J0D01*
G01*
X38548000Y-42210000D01*
G75*
G02*
X38398000Y-42060000I0J150000D01*
G01*
G37*
G36*
G01*
X38398000Y-40790000D02*
X38398000Y-40490000D01*
G75*
G02*
X38548000Y-40340000I150000J0D01*
G01*
X40198000Y-40340000D01*
G75*
G02*
X40348000Y-40490000I0J-150000D01*
G01*
X40348000Y-40790000D01*
G75*
G02*
X40198000Y-40940000I-150000J0D01*
G01*
X38548000Y-40940000D01*
G75*
G02*
X38398000Y-40790000I0J150000D01*
G01*
G37*
%TD*%
%TO.C,R69*%
G36*
G01*
X58350998Y-54478500D02*
X59251002Y-54478500D01*
G75*
G02*
X59501000Y-54728498I0J-249998D01*
G01*
X59501000Y-55253502D01*
G75*
G02*
X59251002Y-55503500I-249998J0D01*
G01*
X58350998Y-55503500D01*
G75*
G02*
X58101000Y-55253502I0J249998D01*
G01*
X58101000Y-54728498D01*
G75*
G02*
X58350998Y-54478500I249998J0D01*
G01*
G37*
G36*
G01*
X58350998Y-52653500D02*
X59251002Y-52653500D01*
G75*
G02*
X59501000Y-52903498I0J-249998D01*
G01*
X59501000Y-53428502D01*
G75*
G02*
X59251002Y-53678500I-249998J0D01*
G01*
X58350998Y-53678500D01*
G75*
G02*
X58101000Y-53428502I0J249998D01*
G01*
X58101000Y-52903498D01*
G75*
G02*
X58350998Y-52653500I249998J0D01*
G01*
G37*
%TD*%
%TO.C,R68*%
G36*
G01*
X56318998Y-54478500D02*
X57219002Y-54478500D01*
G75*
G02*
X57469000Y-54728498I0J-249998D01*
G01*
X57469000Y-55253502D01*
G75*
G02*
X57219002Y-55503500I-249998J0D01*
G01*
X56318998Y-55503500D01*
G75*
G02*
X56069000Y-55253502I0J249998D01*
G01*
X56069000Y-54728498D01*
G75*
G02*
X56318998Y-54478500I249998J0D01*
G01*
G37*
G36*
G01*
X56318998Y-52653500D02*
X57219002Y-52653500D01*
G75*
G02*
X57469000Y-52903498I0J-249998D01*
G01*
X57469000Y-53428502D01*
G75*
G02*
X57219002Y-53678500I-249998J0D01*
G01*
X56318998Y-53678500D01*
G75*
G02*
X56069000Y-53428502I0J249998D01*
G01*
X56069000Y-52903498D01*
G75*
G02*
X56318998Y-52653500I249998J0D01*
G01*
G37*
%TD*%
%TO.C,R67*%
G36*
G01*
X54286998Y-54478500D02*
X55187002Y-54478500D01*
G75*
G02*
X55437000Y-54728498I0J-249998D01*
G01*
X55437000Y-55253502D01*
G75*
G02*
X55187002Y-55503500I-249998J0D01*
G01*
X54286998Y-55503500D01*
G75*
G02*
X54037000Y-55253502I0J249998D01*
G01*
X54037000Y-54728498D01*
G75*
G02*
X54286998Y-54478500I249998J0D01*
G01*
G37*
G36*
G01*
X54286998Y-52653500D02*
X55187002Y-52653500D01*
G75*
G02*
X55437000Y-52903498I0J-249998D01*
G01*
X55437000Y-53428502D01*
G75*
G02*
X55187002Y-53678500I-249998J0D01*
G01*
X54286998Y-53678500D01*
G75*
G02*
X54037000Y-53428502I0J249998D01*
G01*
X54037000Y-52903498D01*
G75*
G02*
X54286998Y-52653500I249998J0D01*
G01*
G37*
%TD*%
%TO.C,R66*%
G36*
G01*
X52254998Y-54478500D02*
X53155002Y-54478500D01*
G75*
G02*
X53405000Y-54728498I0J-249998D01*
G01*
X53405000Y-55253502D01*
G75*
G02*
X53155002Y-55503500I-249998J0D01*
G01*
X52254998Y-55503500D01*
G75*
G02*
X52005000Y-55253502I0J249998D01*
G01*
X52005000Y-54728498D01*
G75*
G02*
X52254998Y-54478500I249998J0D01*
G01*
G37*
G36*
G01*
X52254998Y-52653500D02*
X53155002Y-52653500D01*
G75*
G02*
X53405000Y-52903498I0J-249998D01*
G01*
X53405000Y-53428502D01*
G75*
G02*
X53155002Y-53678500I-249998J0D01*
G01*
X52254998Y-53678500D01*
G75*
G02*
X52005000Y-53428502I0J249998D01*
G01*
X52005000Y-52903498D01*
G75*
G02*
X52254998Y-52653500I249998J0D01*
G01*
G37*
%TD*%
%TO.C,R65*%
G36*
G01*
X50222998Y-54478500D02*
X51123002Y-54478500D01*
G75*
G02*
X51373000Y-54728498I0J-249998D01*
G01*
X51373000Y-55253502D01*
G75*
G02*
X51123002Y-55503500I-249998J0D01*
G01*
X50222998Y-55503500D01*
G75*
G02*
X49973000Y-55253502I0J249998D01*
G01*
X49973000Y-54728498D01*
G75*
G02*
X50222998Y-54478500I249998J0D01*
G01*
G37*
G36*
G01*
X50222998Y-52653500D02*
X51123002Y-52653500D01*
G75*
G02*
X51373000Y-52903498I0J-249998D01*
G01*
X51373000Y-53428502D01*
G75*
G02*
X51123002Y-53678500I-249998J0D01*
G01*
X50222998Y-53678500D01*
G75*
G02*
X49973000Y-53428502I0J249998D01*
G01*
X49973000Y-52903498D01*
G75*
G02*
X50222998Y-52653500I249998J0D01*
G01*
G37*
%TD*%
%TO.C,R41*%
G36*
G01*
X48190998Y-54478500D02*
X49091002Y-54478500D01*
G75*
G02*
X49341000Y-54728498I0J-249998D01*
G01*
X49341000Y-55253502D01*
G75*
G02*
X49091002Y-55503500I-249998J0D01*
G01*
X48190998Y-55503500D01*
G75*
G02*
X47941000Y-55253502I0J249998D01*
G01*
X47941000Y-54728498D01*
G75*
G02*
X48190998Y-54478500I249998J0D01*
G01*
G37*
G36*
G01*
X48190998Y-52653500D02*
X49091002Y-52653500D01*
G75*
G02*
X49341000Y-52903498I0J-249998D01*
G01*
X49341000Y-53428502D01*
G75*
G02*
X49091002Y-53678500I-249998J0D01*
G01*
X48190998Y-53678500D01*
G75*
G02*
X47941000Y-53428502I0J249998D01*
G01*
X47941000Y-52903498D01*
G75*
G02*
X48190998Y-52653500I249998J0D01*
G01*
G37*
%TD*%
%TO.C,R13*%
G36*
G01*
X51123002Y-41533500D02*
X50222998Y-41533500D01*
G75*
G02*
X49973000Y-41283502I0J249998D01*
G01*
X49973000Y-40758498D01*
G75*
G02*
X50222998Y-40508500I249998J0D01*
G01*
X51123002Y-40508500D01*
G75*
G02*
X51373000Y-40758498I0J-249998D01*
G01*
X51373000Y-41283502D01*
G75*
G02*
X51123002Y-41533500I-249998J0D01*
G01*
G37*
G36*
G01*
X51123002Y-43358500D02*
X50222998Y-43358500D01*
G75*
G02*
X49973000Y-43108502I0J249998D01*
G01*
X49973000Y-42583498D01*
G75*
G02*
X50222998Y-42333500I249998J0D01*
G01*
X51123002Y-42333500D01*
G75*
G02*
X51373000Y-42583498I0J-249998D01*
G01*
X51373000Y-43108502D01*
G75*
G02*
X51123002Y-43358500I-249998J0D01*
G01*
G37*
%TD*%
D13*
%TO.C,J5*%
X72663000Y-7982000D03*
X73463000Y-7982000D03*
X78363000Y-7982000D03*
X79163000Y-7982000D03*
X79163000Y-7982000D03*
X78363000Y-7982000D03*
X73463000Y-7982000D03*
X72663000Y-7982000D03*
D14*
X77663000Y-7982000D03*
X77163000Y-7982000D03*
X76663000Y-7982000D03*
X75663000Y-7982000D03*
X75163000Y-7982000D03*
X74663000Y-7982000D03*
X74163000Y-7982000D03*
X76163000Y-7982000D03*
%TD*%
D15*
%TO.C,D11*%
X17527000Y-43688000D03*
X20827000Y-43688000D03*
%TD*%
%TO.C,D10*%
X17400000Y-53467000D03*
X20700000Y-53467000D03*
%TD*%
%TO.C,D9*%
X26036000Y-43688000D03*
X29336000Y-43688000D03*
%TD*%
%TO.C,D8*%
X25909000Y-53467000D03*
X29209000Y-53467000D03*
%TD*%
%TO.C,C46*%
G36*
G01*
X25269000Y-16312000D02*
X24769000Y-16312000D01*
G75*
G02*
X24544000Y-16087000I0J225000D01*
G01*
X24544000Y-15637000D01*
G75*
G02*
X24769000Y-15412000I225000J0D01*
G01*
X25269000Y-15412000D01*
G75*
G02*
X25494000Y-15637000I0J-225000D01*
G01*
X25494000Y-16087000D01*
G75*
G02*
X25269000Y-16312000I-225000J0D01*
G01*
G37*
G36*
G01*
X25269000Y-17862000D02*
X24769000Y-17862000D01*
G75*
G02*
X24544000Y-17637000I0J225000D01*
G01*
X24544000Y-17187000D01*
G75*
G02*
X24769000Y-16962000I225000J0D01*
G01*
X25269000Y-16962000D01*
G75*
G02*
X25494000Y-17187000I0J-225000D01*
G01*
X25494000Y-17637000D01*
G75*
G02*
X25269000Y-17862000I-225000J0D01*
G01*
G37*
%TD*%
D16*
%TO.C,U5*%
X86732000Y-82943000D03*
X86732000Y-84443000D03*
X82432000Y-82943000D03*
X82432000Y-84443000D03*
D17*
X84832000Y-82043000D03*
X84332000Y-82043000D03*
X83832000Y-82043000D03*
X83332000Y-82043000D03*
X82832000Y-82043000D03*
X85332000Y-82043000D03*
X85832000Y-82043000D03*
X86332000Y-82043000D03*
X84832000Y-85343000D03*
X84332000Y-85343000D03*
X83832000Y-85343000D03*
X83332000Y-85343000D03*
X82832000Y-85343000D03*
X85332000Y-85343000D03*
X85832000Y-85343000D03*
X86332000Y-85343000D03*
%TD*%
%TO.C,R21*%
G36*
G01*
X80181000Y-23389000D02*
X80181000Y-22839000D01*
G75*
G02*
X80381000Y-22639000I200000J0D01*
G01*
X80781000Y-22639000D01*
G75*
G02*
X80981000Y-22839000I0J-200000D01*
G01*
X80981000Y-23389000D01*
G75*
G02*
X80781000Y-23589000I-200000J0D01*
G01*
X80381000Y-23589000D01*
G75*
G02*
X80181000Y-23389000I0J200000D01*
G01*
G37*
G36*
G01*
X78531000Y-23389000D02*
X78531000Y-22839000D01*
G75*
G02*
X78731000Y-22639000I200000J0D01*
G01*
X79131000Y-22639000D01*
G75*
G02*
X79331000Y-22839000I0J-200000D01*
G01*
X79331000Y-23389000D01*
G75*
G02*
X79131000Y-23589000I-200000J0D01*
G01*
X78731000Y-23589000D01*
G75*
G02*
X78531000Y-23389000I0J200000D01*
G01*
G37*
%TD*%
%TO.C,R15*%
G36*
G01*
X86316000Y-88752000D02*
X86316000Y-89302000D01*
G75*
G02*
X86116000Y-89502000I-200000J0D01*
G01*
X85716000Y-89502000D01*
G75*
G02*
X85516000Y-89302000I0J200000D01*
G01*
X85516000Y-88752000D01*
G75*
G02*
X85716000Y-88552000I200000J0D01*
G01*
X86116000Y-88552000D01*
G75*
G02*
X86316000Y-88752000I0J-200000D01*
G01*
G37*
G36*
G01*
X87966000Y-88752000D02*
X87966000Y-89302000D01*
G75*
G02*
X87766000Y-89502000I-200000J0D01*
G01*
X87366000Y-89502000D01*
G75*
G02*
X87166000Y-89302000I0J200000D01*
G01*
X87166000Y-88752000D01*
G75*
G02*
X87366000Y-88552000I200000J0D01*
G01*
X87766000Y-88552000D01*
G75*
G02*
X87966000Y-88752000I0J-200000D01*
G01*
G37*
%TD*%
%TO.C,R16*%
G36*
G01*
X88879000Y-87039000D02*
X89429000Y-87039000D01*
G75*
G02*
X89629000Y-87239000I0J-200000D01*
G01*
X89629000Y-87639000D01*
G75*
G02*
X89429000Y-87839000I-200000J0D01*
G01*
X88879000Y-87839000D01*
G75*
G02*
X88679000Y-87639000I0J200000D01*
G01*
X88679000Y-87239000D01*
G75*
G02*
X88879000Y-87039000I200000J0D01*
G01*
G37*
G36*
G01*
X88879000Y-85389000D02*
X89429000Y-85389000D01*
G75*
G02*
X89629000Y-85589000I0J-200000D01*
G01*
X89629000Y-85989000D01*
G75*
G02*
X89429000Y-86189000I-200000J0D01*
G01*
X88879000Y-86189000D01*
G75*
G02*
X88679000Y-85989000I0J200000D01*
G01*
X88679000Y-85589000D01*
G75*
G02*
X88879000Y-85389000I200000J0D01*
G01*
G37*
%TD*%
%TO.C,F1*%
G36*
G01*
X75171000Y-77353000D02*
X75171000Y-78603000D01*
G75*
G02*
X74921000Y-78853000I-250000J0D01*
G01*
X74171000Y-78853000D01*
G75*
G02*
X73921000Y-78603000I0J250000D01*
G01*
X73921000Y-77353000D01*
G75*
G02*
X74171000Y-77103000I250000J0D01*
G01*
X74921000Y-77103000D01*
G75*
G02*
X75171000Y-77353000I0J-250000D01*
G01*
G37*
G36*
G01*
X77971000Y-77353000D02*
X77971000Y-78603000D01*
G75*
G02*
X77721000Y-78853000I-250000J0D01*
G01*
X76971000Y-78853000D01*
G75*
G02*
X76721000Y-78603000I0J250000D01*
G01*
X76721000Y-77353000D01*
G75*
G02*
X76971000Y-77103000I250000J0D01*
G01*
X77721000Y-77103000D01*
G75*
G02*
X77971000Y-77353000I0J-250000D01*
G01*
G37*
%TD*%
%TO.C,R11*%
G36*
G01*
X78878000Y-10562000D02*
X78878000Y-10012000D01*
G75*
G02*
X79078000Y-9812000I200000J0D01*
G01*
X79478000Y-9812000D01*
G75*
G02*
X79678000Y-10012000I0J-200000D01*
G01*
X79678000Y-10562000D01*
G75*
G02*
X79478000Y-10762000I-200000J0D01*
G01*
X79078000Y-10762000D01*
G75*
G02*
X78878000Y-10562000I0J200000D01*
G01*
G37*
G36*
G01*
X77228000Y-10562000D02*
X77228000Y-10012000D01*
G75*
G02*
X77428000Y-9812000I200000J0D01*
G01*
X77828000Y-9812000D01*
G75*
G02*
X78028000Y-10012000I0J-200000D01*
G01*
X78028000Y-10562000D01*
G75*
G02*
X77828000Y-10762000I-200000J0D01*
G01*
X77428000Y-10762000D01*
G75*
G02*
X77228000Y-10562000I0J200000D01*
G01*
G37*
%TD*%
%TO.C,R5*%
G36*
G01*
X78028000Y-11536000D02*
X78028000Y-12086000D01*
G75*
G02*
X77828000Y-12286000I-200000J0D01*
G01*
X77428000Y-12286000D01*
G75*
G02*
X77228000Y-12086000I0J200000D01*
G01*
X77228000Y-11536000D01*
G75*
G02*
X77428000Y-11336000I200000J0D01*
G01*
X77828000Y-11336000D01*
G75*
G02*
X78028000Y-11536000I0J-200000D01*
G01*
G37*
G36*
G01*
X79678000Y-11536000D02*
X79678000Y-12086000D01*
G75*
G02*
X79478000Y-12286000I-200000J0D01*
G01*
X79078000Y-12286000D01*
G75*
G02*
X78878000Y-12086000I0J200000D01*
G01*
X78878000Y-11536000D01*
G75*
G02*
X79078000Y-11336000I200000J0D01*
G01*
X79478000Y-11336000D01*
G75*
G02*
X79678000Y-11536000I0J-200000D01*
G01*
G37*
%TD*%
%TO.C,R12*%
G36*
G01*
X72948000Y-10012000D02*
X72948000Y-10562000D01*
G75*
G02*
X72748000Y-10762000I-200000J0D01*
G01*
X72348000Y-10762000D01*
G75*
G02*
X72148000Y-10562000I0J200000D01*
G01*
X72148000Y-10012000D01*
G75*
G02*
X72348000Y-9812000I200000J0D01*
G01*
X72748000Y-9812000D01*
G75*
G02*
X72948000Y-10012000I0J-200000D01*
G01*
G37*
G36*
G01*
X74598000Y-10012000D02*
X74598000Y-10562000D01*
G75*
G02*
X74398000Y-10762000I-200000J0D01*
G01*
X73998000Y-10762000D01*
G75*
G02*
X73798000Y-10562000I0J200000D01*
G01*
X73798000Y-10012000D01*
G75*
G02*
X73998000Y-9812000I200000J0D01*
G01*
X74398000Y-9812000D01*
G75*
G02*
X74598000Y-10012000I0J-200000D01*
G01*
G37*
%TD*%
%TO.C,R6*%
G36*
G01*
X73798000Y-12086000D02*
X73798000Y-11536000D01*
G75*
G02*
X73998000Y-11336000I200000J0D01*
G01*
X74398000Y-11336000D01*
G75*
G02*
X74598000Y-11536000I0J-200000D01*
G01*
X74598000Y-12086000D01*
G75*
G02*
X74398000Y-12286000I-200000J0D01*
G01*
X73998000Y-12286000D01*
G75*
G02*
X73798000Y-12086000I0J200000D01*
G01*
G37*
G36*
G01*
X72148000Y-12086000D02*
X72148000Y-11536000D01*
G75*
G02*
X72348000Y-11336000I200000J0D01*
G01*
X72748000Y-11336000D01*
G75*
G02*
X72948000Y-11536000I0J-200000D01*
G01*
X72948000Y-12086000D01*
G75*
G02*
X72748000Y-12286000I-200000J0D01*
G01*
X72348000Y-12286000D01*
G75*
G02*
X72148000Y-12086000I0J200000D01*
G01*
G37*
%TD*%
%TO.C,U3*%
G36*
G01*
X75034000Y-30964000D02*
X75334000Y-30964000D01*
G75*
G02*
X75484000Y-31114000I0J-150000D01*
G01*
X75484000Y-32764000D01*
G75*
G02*
X75334000Y-32914000I-150000J0D01*
G01*
X75034000Y-32914000D01*
G75*
G02*
X74884000Y-32764000I0J150000D01*
G01*
X74884000Y-31114000D01*
G75*
G02*
X75034000Y-30964000I150000J0D01*
G01*
G37*
G36*
G01*
X73764000Y-30964000D02*
X74064000Y-30964000D01*
G75*
G02*
X74214000Y-31114000I0J-150000D01*
G01*
X74214000Y-32764000D01*
G75*
G02*
X74064000Y-32914000I-150000J0D01*
G01*
X73764000Y-32914000D01*
G75*
G02*
X73614000Y-32764000I0J150000D01*
G01*
X73614000Y-31114000D01*
G75*
G02*
X73764000Y-30964000I150000J0D01*
G01*
G37*
G36*
G01*
X72494000Y-30964000D02*
X72794000Y-30964000D01*
G75*
G02*
X72944000Y-31114000I0J-150000D01*
G01*
X72944000Y-32764000D01*
G75*
G02*
X72794000Y-32914000I-150000J0D01*
G01*
X72494000Y-32914000D01*
G75*
G02*
X72344000Y-32764000I0J150000D01*
G01*
X72344000Y-31114000D01*
G75*
G02*
X72494000Y-30964000I150000J0D01*
G01*
G37*
G36*
G01*
X71224000Y-30964000D02*
X71524000Y-30964000D01*
G75*
G02*
X71674000Y-31114000I0J-150000D01*
G01*
X71674000Y-32764000D01*
G75*
G02*
X71524000Y-32914000I-150000J0D01*
G01*
X71224000Y-32914000D01*
G75*
G02*
X71074000Y-32764000I0J150000D01*
G01*
X71074000Y-31114000D01*
G75*
G02*
X71224000Y-30964000I150000J0D01*
G01*
G37*
G36*
G01*
X69954000Y-30964000D02*
X70254000Y-30964000D01*
G75*
G02*
X70404000Y-31114000I0J-150000D01*
G01*
X70404000Y-32764000D01*
G75*
G02*
X70254000Y-32914000I-150000J0D01*
G01*
X69954000Y-32914000D01*
G75*
G02*
X69804000Y-32764000I0J150000D01*
G01*
X69804000Y-31114000D01*
G75*
G02*
X69954000Y-30964000I150000J0D01*
G01*
G37*
G36*
G01*
X68684000Y-30964000D02*
X68984000Y-30964000D01*
G75*
G02*
X69134000Y-31114000I0J-150000D01*
G01*
X69134000Y-32764000D01*
G75*
G02*
X68984000Y-32914000I-150000J0D01*
G01*
X68684000Y-32914000D01*
G75*
G02*
X68534000Y-32764000I0J150000D01*
G01*
X68534000Y-31114000D01*
G75*
G02*
X68684000Y-30964000I150000J0D01*
G01*
G37*
G36*
G01*
X67414000Y-30964000D02*
X67714000Y-30964000D01*
G75*
G02*
X67864000Y-31114000I0J-150000D01*
G01*
X67864000Y-32764000D01*
G75*
G02*
X67714000Y-32914000I-150000J0D01*
G01*
X67414000Y-32914000D01*
G75*
G02*
X67264000Y-32764000I0J150000D01*
G01*
X67264000Y-31114000D01*
G75*
G02*
X67414000Y-30964000I150000J0D01*
G01*
G37*
G36*
G01*
X66144000Y-30964000D02*
X66444000Y-30964000D01*
G75*
G02*
X66594000Y-31114000I0J-150000D01*
G01*
X66594000Y-32764000D01*
G75*
G02*
X66444000Y-32914000I-150000J0D01*
G01*
X66144000Y-32914000D01*
G75*
G02*
X65994000Y-32764000I0J150000D01*
G01*
X65994000Y-31114000D01*
G75*
G02*
X66144000Y-30964000I150000J0D01*
G01*
G37*
G36*
G01*
X66144000Y-26014000D02*
X66444000Y-26014000D01*
G75*
G02*
X66594000Y-26164000I0J-150000D01*
G01*
X66594000Y-27814000D01*
G75*
G02*
X66444000Y-27964000I-150000J0D01*
G01*
X66144000Y-27964000D01*
G75*
G02*
X65994000Y-27814000I0J150000D01*
G01*
X65994000Y-26164000D01*
G75*
G02*
X66144000Y-26014000I150000J0D01*
G01*
G37*
G36*
G01*
X67414000Y-26014000D02*
X67714000Y-26014000D01*
G75*
G02*
X67864000Y-26164000I0J-150000D01*
G01*
X67864000Y-27814000D01*
G75*
G02*
X67714000Y-27964000I-150000J0D01*
G01*
X67414000Y-27964000D01*
G75*
G02*
X67264000Y-27814000I0J150000D01*
G01*
X67264000Y-26164000D01*
G75*
G02*
X67414000Y-26014000I150000J0D01*
G01*
G37*
G36*
G01*
X68684000Y-26014000D02*
X68984000Y-26014000D01*
G75*
G02*
X69134000Y-26164000I0J-150000D01*
G01*
X69134000Y-27814000D01*
G75*
G02*
X68984000Y-27964000I-150000J0D01*
G01*
X68684000Y-27964000D01*
G75*
G02*
X68534000Y-27814000I0J150000D01*
G01*
X68534000Y-26164000D01*
G75*
G02*
X68684000Y-26014000I150000J0D01*
G01*
G37*
G36*
G01*
X69954000Y-26014000D02*
X70254000Y-26014000D01*
G75*
G02*
X70404000Y-26164000I0J-150000D01*
G01*
X70404000Y-27814000D01*
G75*
G02*
X70254000Y-27964000I-150000J0D01*
G01*
X69954000Y-27964000D01*
G75*
G02*
X69804000Y-27814000I0J150000D01*
G01*
X69804000Y-26164000D01*
G75*
G02*
X69954000Y-26014000I150000J0D01*
G01*
G37*
G36*
G01*
X71224000Y-26014000D02*
X71524000Y-26014000D01*
G75*
G02*
X71674000Y-26164000I0J-150000D01*
G01*
X71674000Y-27814000D01*
G75*
G02*
X71524000Y-27964000I-150000J0D01*
G01*
X71224000Y-27964000D01*
G75*
G02*
X71074000Y-27814000I0J150000D01*
G01*
X71074000Y-26164000D01*
G75*
G02*
X71224000Y-26014000I150000J0D01*
G01*
G37*
G36*
G01*
X72494000Y-26014000D02*
X72794000Y-26014000D01*
G75*
G02*
X72944000Y-26164000I0J-150000D01*
G01*
X72944000Y-27814000D01*
G75*
G02*
X72794000Y-27964000I-150000J0D01*
G01*
X72494000Y-27964000D01*
G75*
G02*
X72344000Y-27814000I0J150000D01*
G01*
X72344000Y-26164000D01*
G75*
G02*
X72494000Y-26014000I150000J0D01*
G01*
G37*
G36*
G01*
X73764000Y-26014000D02*
X74064000Y-26014000D01*
G75*
G02*
X74214000Y-26164000I0J-150000D01*
G01*
X74214000Y-27814000D01*
G75*
G02*
X74064000Y-27964000I-150000J0D01*
G01*
X73764000Y-27964000D01*
G75*
G02*
X73614000Y-27814000I0J150000D01*
G01*
X73614000Y-26164000D01*
G75*
G02*
X73764000Y-26014000I150000J0D01*
G01*
G37*
G36*
G01*
X75034000Y-26014000D02*
X75334000Y-26014000D01*
G75*
G02*
X75484000Y-26164000I0J-150000D01*
G01*
X75484000Y-27814000D01*
G75*
G02*
X75334000Y-27964000I-150000J0D01*
G01*
X75034000Y-27964000D01*
G75*
G02*
X74884000Y-27814000I0J150000D01*
G01*
X74884000Y-26164000D01*
G75*
G02*
X75034000Y-26014000I150000J0D01*
G01*
G37*
%TD*%
%TO.C,C5*%
G36*
G01*
X32606000Y-1899500D02*
X31656000Y-1899500D01*
G75*
G02*
X31406000Y-1649500I0J250000D01*
G01*
X31406000Y-1149500D01*
G75*
G02*
X31656000Y-899500I250000J0D01*
G01*
X32606000Y-899500D01*
G75*
G02*
X32856000Y-1149500I0J-250000D01*
G01*
X32856000Y-1649500D01*
G75*
G02*
X32606000Y-1899500I-250000J0D01*
G01*
G37*
G36*
G01*
X32606000Y-3799500D02*
X31656000Y-3799500D01*
G75*
G02*
X31406000Y-3549500I0J250000D01*
G01*
X31406000Y-3049500D01*
G75*
G02*
X31656000Y-2799500I250000J0D01*
G01*
X32606000Y-2799500D01*
G75*
G02*
X32856000Y-3049500I0J-250000D01*
G01*
X32856000Y-3549500D01*
G75*
G02*
X32606000Y-3799500I-250000J0D01*
G01*
G37*
%TD*%
%TO.C,C65*%
G36*
G01*
X6989000Y-73477000D02*
X7489000Y-73477000D01*
G75*
G02*
X7714000Y-73702000I0J-225000D01*
G01*
X7714000Y-74152000D01*
G75*
G02*
X7489000Y-74377000I-225000J0D01*
G01*
X6989000Y-74377000D01*
G75*
G02*
X6764000Y-74152000I0J225000D01*
G01*
X6764000Y-73702000D01*
G75*
G02*
X6989000Y-73477000I225000J0D01*
G01*
G37*
G36*
G01*
X6989000Y-71927000D02*
X7489000Y-71927000D01*
G75*
G02*
X7714000Y-72152000I0J-225000D01*
G01*
X7714000Y-72602000D01*
G75*
G02*
X7489000Y-72827000I-225000J0D01*
G01*
X6989000Y-72827000D01*
G75*
G02*
X6764000Y-72602000I0J225000D01*
G01*
X6764000Y-72152000D01*
G75*
G02*
X6989000Y-71927000I225000J0D01*
G01*
G37*
%TD*%
%TO.C,C70*%
G36*
G01*
X6406000Y-83189000D02*
X6406000Y-83689000D01*
G75*
G02*
X6181000Y-83914000I-225000J0D01*
G01*
X5731000Y-83914000D01*
G75*
G02*
X5506000Y-83689000I0J225000D01*
G01*
X5506000Y-83189000D01*
G75*
G02*
X5731000Y-82964000I225000J0D01*
G01*
X6181000Y-82964000D01*
G75*
G02*
X6406000Y-83189000I0J-225000D01*
G01*
G37*
G36*
G01*
X7956000Y-83189000D02*
X7956000Y-83689000D01*
G75*
G02*
X7731000Y-83914000I-225000J0D01*
G01*
X7281000Y-83914000D01*
G75*
G02*
X7056000Y-83689000I0J225000D01*
G01*
X7056000Y-83189000D01*
G75*
G02*
X7281000Y-82964000I225000J0D01*
G01*
X7731000Y-82964000D01*
G75*
G02*
X7956000Y-83189000I0J-225000D01*
G01*
G37*
%TD*%
%TO.C,C73*%
G36*
G01*
X14982000Y-64318000D02*
X14482000Y-64318000D01*
G75*
G02*
X14257000Y-64093000I0J225000D01*
G01*
X14257000Y-63643000D01*
G75*
G02*
X14482000Y-63418000I225000J0D01*
G01*
X14982000Y-63418000D01*
G75*
G02*
X15207000Y-63643000I0J-225000D01*
G01*
X15207000Y-64093000D01*
G75*
G02*
X14982000Y-64318000I-225000J0D01*
G01*
G37*
G36*
G01*
X14982000Y-65868000D02*
X14482000Y-65868000D01*
G75*
G02*
X14257000Y-65643000I0J225000D01*
G01*
X14257000Y-65193000D01*
G75*
G02*
X14482000Y-64968000I225000J0D01*
G01*
X14982000Y-64968000D01*
G75*
G02*
X15207000Y-65193000I0J-225000D01*
G01*
X15207000Y-65643000D01*
G75*
G02*
X14982000Y-65868000I-225000J0D01*
G01*
G37*
%TD*%
%TO.C,C64*%
G36*
G01*
X5278000Y-72640000D02*
X5278000Y-72140000D01*
G75*
G02*
X5503000Y-71915000I225000J0D01*
G01*
X5953000Y-71915000D01*
G75*
G02*
X6178000Y-72140000I0J-225000D01*
G01*
X6178000Y-72640000D01*
G75*
G02*
X5953000Y-72865000I-225000J0D01*
G01*
X5503000Y-72865000D01*
G75*
G02*
X5278000Y-72640000I0J225000D01*
G01*
G37*
G36*
G01*
X3728000Y-72640000D02*
X3728000Y-72140000D01*
G75*
G02*
X3953000Y-71915000I225000J0D01*
G01*
X4403000Y-71915000D01*
G75*
G02*
X4628000Y-72140000I0J-225000D01*
G01*
X4628000Y-72640000D01*
G75*
G02*
X4403000Y-72865000I-225000J0D01*
G01*
X3953000Y-72865000D01*
G75*
G02*
X3728000Y-72640000I0J225000D01*
G01*
G37*
%TD*%
%TO.C,C60*%
G36*
G01*
X14355000Y-91892000D02*
X14855000Y-91892000D01*
G75*
G02*
X15080000Y-92117000I0J-225000D01*
G01*
X15080000Y-92567000D01*
G75*
G02*
X14855000Y-92792000I-225000J0D01*
G01*
X14355000Y-92792000D01*
G75*
G02*
X14130000Y-92567000I0J225000D01*
G01*
X14130000Y-92117000D01*
G75*
G02*
X14355000Y-91892000I225000J0D01*
G01*
G37*
G36*
G01*
X14355000Y-90342000D02*
X14855000Y-90342000D01*
G75*
G02*
X15080000Y-90567000I0J-225000D01*
G01*
X15080000Y-91017000D01*
G75*
G02*
X14855000Y-91242000I-225000J0D01*
G01*
X14355000Y-91242000D01*
G75*
G02*
X14130000Y-91017000I0J225000D01*
G01*
X14130000Y-90567000D01*
G75*
G02*
X14355000Y-90342000I225000J0D01*
G01*
G37*
%TD*%
%TO.C,C4*%
G36*
G01*
X34349500Y-2088000D02*
X33849500Y-2088000D01*
G75*
G02*
X33624500Y-1863000I0J225000D01*
G01*
X33624500Y-1413000D01*
G75*
G02*
X33849500Y-1188000I225000J0D01*
G01*
X34349500Y-1188000D01*
G75*
G02*
X34574500Y-1413000I0J-225000D01*
G01*
X34574500Y-1863000D01*
G75*
G02*
X34349500Y-2088000I-225000J0D01*
G01*
G37*
G36*
G01*
X34349500Y-3638000D02*
X33849500Y-3638000D01*
G75*
G02*
X33624500Y-3413000I0J225000D01*
G01*
X33624500Y-2963000D01*
G75*
G02*
X33849500Y-2738000I225000J0D01*
G01*
X34349500Y-2738000D01*
G75*
G02*
X34574500Y-2963000I0J-225000D01*
G01*
X34574500Y-3413000D01*
G75*
G02*
X34349500Y-3638000I-225000J0D01*
G01*
G37*
%TD*%
%TO.C,C6*%
G36*
G01*
X58984000Y-21975000D02*
X58984000Y-22475000D01*
G75*
G02*
X58759000Y-22700000I-225000J0D01*
G01*
X58309000Y-22700000D01*
G75*
G02*
X58084000Y-22475000I0J225000D01*
G01*
X58084000Y-21975000D01*
G75*
G02*
X58309000Y-21750000I225000J0D01*
G01*
X58759000Y-21750000D01*
G75*
G02*
X58984000Y-21975000I0J-225000D01*
G01*
G37*
G36*
G01*
X60534000Y-21975000D02*
X60534000Y-22475000D01*
G75*
G02*
X60309000Y-22700000I-225000J0D01*
G01*
X59859000Y-22700000D01*
G75*
G02*
X59634000Y-22475000I0J225000D01*
G01*
X59634000Y-21975000D01*
G75*
G02*
X59859000Y-21750000I225000J0D01*
G01*
X60309000Y-21750000D01*
G75*
G02*
X60534000Y-21975000I0J-225000D01*
G01*
G37*
%TD*%
%TO.C,C59*%
G36*
G01*
X27182000Y-91892000D02*
X27682000Y-91892000D01*
G75*
G02*
X27907000Y-92117000I0J-225000D01*
G01*
X27907000Y-92567000D01*
G75*
G02*
X27682000Y-92792000I-225000J0D01*
G01*
X27182000Y-92792000D01*
G75*
G02*
X26957000Y-92567000I0J225000D01*
G01*
X26957000Y-92117000D01*
G75*
G02*
X27182000Y-91892000I225000J0D01*
G01*
G37*
G36*
G01*
X27182000Y-90342000D02*
X27682000Y-90342000D01*
G75*
G02*
X27907000Y-90567000I0J-225000D01*
G01*
X27907000Y-91017000D01*
G75*
G02*
X27682000Y-91242000I-225000J0D01*
G01*
X27182000Y-91242000D01*
G75*
G02*
X26957000Y-91017000I0J225000D01*
G01*
X26957000Y-90567000D01*
G75*
G02*
X27182000Y-90342000I225000J0D01*
G01*
G37*
%TD*%
%TO.C,C69*%
G36*
G01*
X4008000Y-85213000D02*
X4008000Y-84713000D01*
G75*
G02*
X4233000Y-84488000I225000J0D01*
G01*
X4683000Y-84488000D01*
G75*
G02*
X4908000Y-84713000I0J-225000D01*
G01*
X4908000Y-85213000D01*
G75*
G02*
X4683000Y-85438000I-225000J0D01*
G01*
X4233000Y-85438000D01*
G75*
G02*
X4008000Y-85213000I0J225000D01*
G01*
G37*
G36*
G01*
X2458000Y-85213000D02*
X2458000Y-84713000D01*
G75*
G02*
X2683000Y-84488000I225000J0D01*
G01*
X3133000Y-84488000D01*
G75*
G02*
X3358000Y-84713000I0J-225000D01*
G01*
X3358000Y-85213000D01*
G75*
G02*
X3133000Y-85438000I-225000J0D01*
G01*
X2683000Y-85438000D01*
G75*
G02*
X2458000Y-85213000I0J225000D01*
G01*
G37*
%TD*%
%TO.C,C12*%
G36*
G01*
X77220000Y-22169000D02*
X77720000Y-22169000D01*
G75*
G02*
X77945000Y-22394000I0J-225000D01*
G01*
X77945000Y-22844000D01*
G75*
G02*
X77720000Y-23069000I-225000J0D01*
G01*
X77220000Y-23069000D01*
G75*
G02*
X76995000Y-22844000I0J225000D01*
G01*
X76995000Y-22394000D01*
G75*
G02*
X77220000Y-22169000I225000J0D01*
G01*
G37*
G36*
G01*
X77220000Y-20619000D02*
X77720000Y-20619000D01*
G75*
G02*
X77945000Y-20844000I0J-225000D01*
G01*
X77945000Y-21294000D01*
G75*
G02*
X77720000Y-21519000I-225000J0D01*
G01*
X77220000Y-21519000D01*
G75*
G02*
X76995000Y-21294000I0J225000D01*
G01*
X76995000Y-20844000D01*
G75*
G02*
X77220000Y-20619000I225000J0D01*
G01*
G37*
%TD*%
%TO.C,C13*%
G36*
G01*
X63377000Y-22169000D02*
X63877000Y-22169000D01*
G75*
G02*
X64102000Y-22394000I0J-225000D01*
G01*
X64102000Y-22844000D01*
G75*
G02*
X63877000Y-23069000I-225000J0D01*
G01*
X63377000Y-23069000D01*
G75*
G02*
X63152000Y-22844000I0J225000D01*
G01*
X63152000Y-22394000D01*
G75*
G02*
X63377000Y-22169000I225000J0D01*
G01*
G37*
G36*
G01*
X63377000Y-20619000D02*
X63877000Y-20619000D01*
G75*
G02*
X64102000Y-20844000I0J-225000D01*
G01*
X64102000Y-21294000D01*
G75*
G02*
X63877000Y-21519000I-225000J0D01*
G01*
X63377000Y-21519000D01*
G75*
G02*
X63152000Y-21294000I0J225000D01*
G01*
X63152000Y-20844000D01*
G75*
G02*
X63377000Y-20619000I225000J0D01*
G01*
G37*
%TD*%
%TO.C,C71*%
G36*
G01*
X24634000Y-60000000D02*
X24134000Y-60000000D01*
G75*
G02*
X23909000Y-59775000I0J225000D01*
G01*
X23909000Y-59325000D01*
G75*
G02*
X24134000Y-59100000I225000J0D01*
G01*
X24634000Y-59100000D01*
G75*
G02*
X24859000Y-59325000I0J-225000D01*
G01*
X24859000Y-59775000D01*
G75*
G02*
X24634000Y-60000000I-225000J0D01*
G01*
G37*
G36*
G01*
X24634000Y-61550000D02*
X24134000Y-61550000D01*
G75*
G02*
X23909000Y-61325000I0J225000D01*
G01*
X23909000Y-60875000D01*
G75*
G02*
X24134000Y-60650000I225000J0D01*
G01*
X24634000Y-60650000D01*
G75*
G02*
X24859000Y-60875000I0J-225000D01*
G01*
X24859000Y-61325000D01*
G75*
G02*
X24634000Y-61550000I-225000J0D01*
G01*
G37*
%TD*%
%TO.C,C10*%
G36*
G01*
X64864000Y-27363000D02*
X63914000Y-27363000D01*
G75*
G02*
X63664000Y-27113000I0J250000D01*
G01*
X63664000Y-26613000D01*
G75*
G02*
X63914000Y-26363000I250000J0D01*
G01*
X64864000Y-26363000D01*
G75*
G02*
X65114000Y-26613000I0J-250000D01*
G01*
X65114000Y-27113000D01*
G75*
G02*
X64864000Y-27363000I-250000J0D01*
G01*
G37*
G36*
G01*
X64864000Y-29263000D02*
X63914000Y-29263000D01*
G75*
G02*
X63664000Y-29013000I0J250000D01*
G01*
X63664000Y-28513000D01*
G75*
G02*
X63914000Y-28263000I250000J0D01*
G01*
X64864000Y-28263000D01*
G75*
G02*
X65114000Y-28513000I0J-250000D01*
G01*
X65114000Y-29013000D01*
G75*
G02*
X64864000Y-29263000I-250000J0D01*
G01*
G37*
%TD*%
%TO.C,C55*%
G36*
G01*
X47935000Y-91190000D02*
X47935000Y-91690000D01*
G75*
G02*
X47710000Y-91915000I-225000J0D01*
G01*
X47260000Y-91915000D01*
G75*
G02*
X47035000Y-91690000I0J225000D01*
G01*
X47035000Y-91190000D01*
G75*
G02*
X47260000Y-90965000I225000J0D01*
G01*
X47710000Y-90965000D01*
G75*
G02*
X47935000Y-91190000I0J-225000D01*
G01*
G37*
G36*
G01*
X49485000Y-91190000D02*
X49485000Y-91690000D01*
G75*
G02*
X49260000Y-91915000I-225000J0D01*
G01*
X48810000Y-91915000D01*
G75*
G02*
X48585000Y-91690000I0J225000D01*
G01*
X48585000Y-91190000D01*
G75*
G02*
X48810000Y-90965000I225000J0D01*
G01*
X49260000Y-90965000D01*
G75*
G02*
X49485000Y-91190000I0J-225000D01*
G01*
G37*
%TD*%
%TO.C,C40*%
G36*
G01*
X79812000Y-82046000D02*
X79812000Y-82546000D01*
G75*
G02*
X79587000Y-82771000I-225000J0D01*
G01*
X79137000Y-82771000D01*
G75*
G02*
X78912000Y-82546000I0J225000D01*
G01*
X78912000Y-82046000D01*
G75*
G02*
X79137000Y-81821000I225000J0D01*
G01*
X79587000Y-81821000D01*
G75*
G02*
X79812000Y-82046000I0J-225000D01*
G01*
G37*
G36*
G01*
X81362000Y-82046000D02*
X81362000Y-82546000D01*
G75*
G02*
X81137000Y-82771000I-225000J0D01*
G01*
X80687000Y-82771000D01*
G75*
G02*
X80462000Y-82546000I0J225000D01*
G01*
X80462000Y-82046000D01*
G75*
G02*
X80687000Y-81821000I225000J0D01*
G01*
X81137000Y-81821000D01*
G75*
G02*
X81362000Y-82046000I0J-225000D01*
G01*
G37*
%TD*%
%TO.C,C7*%
G36*
G01*
X30015300Y-14393100D02*
X30015300Y-14893100D01*
G75*
G02*
X29790300Y-15118100I-225000J0D01*
G01*
X29340300Y-15118100D01*
G75*
G02*
X29115300Y-14893100I0J225000D01*
G01*
X29115300Y-14393100D01*
G75*
G02*
X29340300Y-14168100I225000J0D01*
G01*
X29790300Y-14168100D01*
G75*
G02*
X30015300Y-14393100I0J-225000D01*
G01*
G37*
G36*
G01*
X31565300Y-14393100D02*
X31565300Y-14893100D01*
G75*
G02*
X31340300Y-15118100I-225000J0D01*
G01*
X30890300Y-15118100D01*
G75*
G02*
X30665300Y-14893100I0J225000D01*
G01*
X30665300Y-14393100D01*
G75*
G02*
X30890300Y-14168100I225000J0D01*
G01*
X31340300Y-14168100D01*
G75*
G02*
X31565300Y-14393100I0J-225000D01*
G01*
G37*
%TD*%
%TO.C,C39*%
G36*
G01*
X89404000Y-82733000D02*
X88904000Y-82733000D01*
G75*
G02*
X88679000Y-82508000I0J225000D01*
G01*
X88679000Y-82058000D01*
G75*
G02*
X88904000Y-81833000I225000J0D01*
G01*
X89404000Y-81833000D01*
G75*
G02*
X89629000Y-82058000I0J-225000D01*
G01*
X89629000Y-82508000D01*
G75*
G02*
X89404000Y-82733000I-225000J0D01*
G01*
G37*
G36*
G01*
X89404000Y-84283000D02*
X88904000Y-84283000D01*
G75*
G02*
X88679000Y-84058000I0J225000D01*
G01*
X88679000Y-83608000D01*
G75*
G02*
X88904000Y-83383000I225000J0D01*
G01*
X89404000Y-83383000D01*
G75*
G02*
X89629000Y-83608000I0J-225000D01*
G01*
X89629000Y-84058000D01*
G75*
G02*
X89404000Y-84283000I-225000J0D01*
G01*
G37*
%TD*%
%TO.C,C72*%
G36*
G01*
X12958000Y-61920000D02*
X13458000Y-61920000D01*
G75*
G02*
X13683000Y-62145000I0J-225000D01*
G01*
X13683000Y-62595000D01*
G75*
G02*
X13458000Y-62820000I-225000J0D01*
G01*
X12958000Y-62820000D01*
G75*
G02*
X12733000Y-62595000I0J225000D01*
G01*
X12733000Y-62145000D01*
G75*
G02*
X12958000Y-61920000I225000J0D01*
G01*
G37*
G36*
G01*
X12958000Y-60370000D02*
X13458000Y-60370000D01*
G75*
G02*
X13683000Y-60595000I0J-225000D01*
G01*
X13683000Y-61045000D01*
G75*
G02*
X13458000Y-61270000I-225000J0D01*
G01*
X12958000Y-61270000D01*
G75*
G02*
X12733000Y-61045000I0J225000D01*
G01*
X12733000Y-60595000D01*
G75*
G02*
X12958000Y-60370000I225000J0D01*
G01*
G37*
%TD*%
%TO.C,C68*%
G36*
G01*
X1580000Y-73664000D02*
X1580000Y-74164000D01*
G75*
G02*
X1355000Y-74389000I-225000J0D01*
G01*
X905000Y-74389000D01*
G75*
G02*
X680000Y-74164000I0J225000D01*
G01*
X680000Y-73664000D01*
G75*
G02*
X905000Y-73439000I225000J0D01*
G01*
X1355000Y-73439000D01*
G75*
G02*
X1580000Y-73664000I0J-225000D01*
G01*
G37*
G36*
G01*
X3130000Y-73664000D02*
X3130000Y-74164000D01*
G75*
G02*
X2905000Y-74389000I-225000J0D01*
G01*
X2455000Y-74389000D01*
G75*
G02*
X2230000Y-74164000I0J225000D01*
G01*
X2230000Y-73664000D01*
G75*
G02*
X2455000Y-73439000I225000J0D01*
G01*
X2905000Y-73439000D01*
G75*
G02*
X3130000Y-73664000I0J-225000D01*
G01*
G37*
%TD*%
%TO.C,C9*%
G36*
G01*
X26954600Y-14380400D02*
X26954600Y-14880400D01*
G75*
G02*
X26729600Y-15105400I-225000J0D01*
G01*
X26279600Y-15105400D01*
G75*
G02*
X26054600Y-14880400I0J225000D01*
G01*
X26054600Y-14380400D01*
G75*
G02*
X26279600Y-14155400I225000J0D01*
G01*
X26729600Y-14155400D01*
G75*
G02*
X26954600Y-14380400I0J-225000D01*
G01*
G37*
G36*
G01*
X28504600Y-14380400D02*
X28504600Y-14880400D01*
G75*
G02*
X28279600Y-15105400I-225000J0D01*
G01*
X27829600Y-15105400D01*
G75*
G02*
X27604600Y-14880400I0J225000D01*
G01*
X27604600Y-14380400D01*
G75*
G02*
X27829600Y-14155400I225000J0D01*
G01*
X28279600Y-14155400D01*
G75*
G02*
X28504600Y-14380400I0J-225000D01*
G01*
G37*
%TD*%
%TO.C,C8*%
G36*
G01*
X27094300Y-21657500D02*
X27094300Y-22157500D01*
G75*
G02*
X26869300Y-22382500I-225000J0D01*
G01*
X26419300Y-22382500D01*
G75*
G02*
X26194300Y-22157500I0J225000D01*
G01*
X26194300Y-21657500D01*
G75*
G02*
X26419300Y-21432500I225000J0D01*
G01*
X26869300Y-21432500D01*
G75*
G02*
X27094300Y-21657500I0J-225000D01*
G01*
G37*
G36*
G01*
X28644300Y-21657500D02*
X28644300Y-22157500D01*
G75*
G02*
X28419300Y-22382500I-225000J0D01*
G01*
X27969300Y-22382500D01*
G75*
G02*
X27744300Y-22157500I0J225000D01*
G01*
X27744300Y-21657500D01*
G75*
G02*
X27969300Y-21432500I225000J0D01*
G01*
X28419300Y-21432500D01*
G75*
G02*
X28644300Y-21657500I0J-225000D01*
G01*
G37*
%TD*%
%TO.C,C11*%
G36*
G01*
X77212000Y-30917000D02*
X76712000Y-30917000D01*
G75*
G02*
X76487000Y-30692000I0J225000D01*
G01*
X76487000Y-30242000D01*
G75*
G02*
X76712000Y-30017000I225000J0D01*
G01*
X77212000Y-30017000D01*
G75*
G02*
X77437000Y-30242000I0J-225000D01*
G01*
X77437000Y-30692000D01*
G75*
G02*
X77212000Y-30917000I-225000J0D01*
G01*
G37*
G36*
G01*
X77212000Y-32467000D02*
X76712000Y-32467000D01*
G75*
G02*
X76487000Y-32242000I0J225000D01*
G01*
X76487000Y-31792000D01*
G75*
G02*
X76712000Y-31567000I225000J0D01*
G01*
X77212000Y-31567000D01*
G75*
G02*
X77437000Y-31792000I0J-225000D01*
G01*
X77437000Y-32242000D01*
G75*
G02*
X77212000Y-32467000I-225000J0D01*
G01*
G37*
%TD*%
%TO.C,C47*%
G36*
G01*
X80014000Y-85034000D02*
X80514000Y-85034000D01*
G75*
G02*
X80739000Y-85259000I0J-225000D01*
G01*
X80739000Y-85709000D01*
G75*
G02*
X80514000Y-85934000I-225000J0D01*
G01*
X80014000Y-85934000D01*
G75*
G02*
X79789000Y-85709000I0J225000D01*
G01*
X79789000Y-85259000D01*
G75*
G02*
X80014000Y-85034000I225000J0D01*
G01*
G37*
G36*
G01*
X80014000Y-83484000D02*
X80514000Y-83484000D01*
G75*
G02*
X80739000Y-83709000I0J-225000D01*
G01*
X80739000Y-84159000D01*
G75*
G02*
X80514000Y-84384000I-225000J0D01*
G01*
X80014000Y-84384000D01*
G75*
G02*
X79789000Y-84159000I0J225000D01*
G01*
X79789000Y-83709000D01*
G75*
G02*
X80014000Y-83484000I225000J0D01*
G01*
G37*
%TD*%
%TO.C,C56*%
G36*
G01*
X44327000Y-82367000D02*
X44827000Y-82367000D01*
G75*
G02*
X45052000Y-82592000I0J-225000D01*
G01*
X45052000Y-83042000D01*
G75*
G02*
X44827000Y-83267000I-225000J0D01*
G01*
X44327000Y-83267000D01*
G75*
G02*
X44102000Y-83042000I0J225000D01*
G01*
X44102000Y-82592000D01*
G75*
G02*
X44327000Y-82367000I225000J0D01*
G01*
G37*
G36*
G01*
X44327000Y-80817000D02*
X44827000Y-80817000D01*
G75*
G02*
X45052000Y-81042000I0J-225000D01*
G01*
X45052000Y-81492000D01*
G75*
G02*
X44827000Y-81717000I-225000J0D01*
G01*
X44327000Y-81717000D01*
G75*
G02*
X44102000Y-81492000I0J225000D01*
G01*
X44102000Y-81042000D01*
G75*
G02*
X44327000Y-80817000I225000J0D01*
G01*
G37*
%TD*%
%TO.C,C50*%
G36*
G01*
X79812000Y-80395000D02*
X79812000Y-80895000D01*
G75*
G02*
X79587000Y-81120000I-225000J0D01*
G01*
X79137000Y-81120000D01*
G75*
G02*
X78912000Y-80895000I0J225000D01*
G01*
X78912000Y-80395000D01*
G75*
G02*
X79137000Y-80170000I225000J0D01*
G01*
X79587000Y-80170000D01*
G75*
G02*
X79812000Y-80395000I0J-225000D01*
G01*
G37*
G36*
G01*
X81362000Y-80395000D02*
X81362000Y-80895000D01*
G75*
G02*
X81137000Y-81120000I-225000J0D01*
G01*
X80687000Y-81120000D01*
G75*
G02*
X80462000Y-80895000I0J225000D01*
G01*
X80462000Y-80395000D01*
G75*
G02*
X80687000Y-80170000I225000J0D01*
G01*
X81137000Y-80170000D01*
G75*
G02*
X81362000Y-80395000I0J-225000D01*
G01*
G37*
%TD*%
%TO.C,C41*%
G36*
G01*
X89150000Y-93528000D02*
X88650000Y-93528000D01*
G75*
G02*
X88425000Y-93303000I0J225000D01*
G01*
X88425000Y-92853000D01*
G75*
G02*
X88650000Y-92628000I225000J0D01*
G01*
X89150000Y-92628000D01*
G75*
G02*
X89375000Y-92853000I0J-225000D01*
G01*
X89375000Y-93303000D01*
G75*
G02*
X89150000Y-93528000I-225000J0D01*
G01*
G37*
G36*
G01*
X89150000Y-95078000D02*
X88650000Y-95078000D01*
G75*
G02*
X88425000Y-94853000I0J225000D01*
G01*
X88425000Y-94403000D01*
G75*
G02*
X88650000Y-94178000I225000J0D01*
G01*
X89150000Y-94178000D01*
G75*
G02*
X89375000Y-94403000I0J-225000D01*
G01*
X89375000Y-94853000D01*
G75*
G02*
X89150000Y-95078000I-225000J0D01*
G01*
G37*
%TD*%
%TO.C,C42*%
G36*
G01*
X33778000Y-22916000D02*
X33278000Y-22916000D01*
G75*
G02*
X33053000Y-22691000I0J225000D01*
G01*
X33053000Y-22241000D01*
G75*
G02*
X33278000Y-22016000I225000J0D01*
G01*
X33778000Y-22016000D01*
G75*
G02*
X34003000Y-22241000I0J-225000D01*
G01*
X34003000Y-22691000D01*
G75*
G02*
X33778000Y-22916000I-225000J0D01*
G01*
G37*
G36*
G01*
X33778000Y-24466000D02*
X33278000Y-24466000D01*
G75*
G02*
X33053000Y-24241000I0J225000D01*
G01*
X33053000Y-23791000D01*
G75*
G02*
X33278000Y-23566000I225000J0D01*
G01*
X33778000Y-23566000D01*
G75*
G02*
X34003000Y-23791000I0J-225000D01*
G01*
X34003000Y-24241000D01*
G75*
G02*
X33778000Y-24466000I-225000J0D01*
G01*
G37*
%TD*%
%TO.C,C43*%
G36*
G01*
X32225000Y-23172000D02*
X31275000Y-23172000D01*
G75*
G02*
X31025000Y-22922000I0J250000D01*
G01*
X31025000Y-22422000D01*
G75*
G02*
X31275000Y-22172000I250000J0D01*
G01*
X32225000Y-22172000D01*
G75*
G02*
X32475000Y-22422000I0J-250000D01*
G01*
X32475000Y-22922000D01*
G75*
G02*
X32225000Y-23172000I-250000J0D01*
G01*
G37*
G36*
G01*
X32225000Y-25072000D02*
X31275000Y-25072000D01*
G75*
G02*
X31025000Y-24822000I0J250000D01*
G01*
X31025000Y-24322000D01*
G75*
G02*
X31275000Y-24072000I250000J0D01*
G01*
X32225000Y-24072000D01*
G75*
G02*
X32475000Y-24322000I0J-250000D01*
G01*
X32475000Y-24822000D01*
G75*
G02*
X32225000Y-25072000I-250000J0D01*
G01*
G37*
%TD*%
%TO.C,C44*%
G36*
G01*
X42922000Y-25329000D02*
X42422000Y-25329000D01*
G75*
G02*
X42197000Y-25104000I0J225000D01*
G01*
X42197000Y-24654000D01*
G75*
G02*
X42422000Y-24429000I225000J0D01*
G01*
X42922000Y-24429000D01*
G75*
G02*
X43147000Y-24654000I0J-225000D01*
G01*
X43147000Y-25104000D01*
G75*
G02*
X42922000Y-25329000I-225000J0D01*
G01*
G37*
G36*
G01*
X42922000Y-26879000D02*
X42422000Y-26879000D01*
G75*
G02*
X42197000Y-26654000I0J225000D01*
G01*
X42197000Y-26204000D01*
G75*
G02*
X42422000Y-25979000I225000J0D01*
G01*
X42922000Y-25979000D01*
G75*
G02*
X43147000Y-26204000I0J-225000D01*
G01*
X43147000Y-26654000D01*
G75*
G02*
X42922000Y-26879000I-225000J0D01*
G01*
G37*
%TD*%
%TO.C,C48*%
G36*
G01*
X86685000Y-90928000D02*
X86685000Y-90428000D01*
G75*
G02*
X86910000Y-90203000I225000J0D01*
G01*
X87360000Y-90203000D01*
G75*
G02*
X87585000Y-90428000I0J-225000D01*
G01*
X87585000Y-90928000D01*
G75*
G02*
X87360000Y-91153000I-225000J0D01*
G01*
X86910000Y-91153000D01*
G75*
G02*
X86685000Y-90928000I0J225000D01*
G01*
G37*
G36*
G01*
X85135000Y-90928000D02*
X85135000Y-90428000D01*
G75*
G02*
X85360000Y-90203000I225000J0D01*
G01*
X85810000Y-90203000D01*
G75*
G02*
X86035000Y-90428000I0J-225000D01*
G01*
X86035000Y-90928000D01*
G75*
G02*
X85810000Y-91153000I-225000J0D01*
G01*
X85360000Y-91153000D01*
G75*
G02*
X85135000Y-90928000I0J225000D01*
G01*
G37*
%TD*%
%TO.C,C53*%
G36*
G01*
X69144000Y-51312000D02*
X69144000Y-51812000D01*
G75*
G02*
X68919000Y-52037000I-225000J0D01*
G01*
X68469000Y-52037000D01*
G75*
G02*
X68244000Y-51812000I0J225000D01*
G01*
X68244000Y-51312000D01*
G75*
G02*
X68469000Y-51087000I225000J0D01*
G01*
X68919000Y-51087000D01*
G75*
G02*
X69144000Y-51312000I0J-225000D01*
G01*
G37*
G36*
G01*
X70694000Y-51312000D02*
X70694000Y-51812000D01*
G75*
G02*
X70469000Y-52037000I-225000J0D01*
G01*
X70019000Y-52037000D01*
G75*
G02*
X69794000Y-51812000I0J225000D01*
G01*
X69794000Y-51312000D01*
G75*
G02*
X70019000Y-51087000I225000J0D01*
G01*
X70469000Y-51087000D01*
G75*
G02*
X70694000Y-51312000I0J-225000D01*
G01*
G37*
%TD*%
%TO.C,C61*%
G36*
G01*
X16708000Y-78355000D02*
X16708000Y-77855000D01*
G75*
G02*
X16933000Y-77630000I225000J0D01*
G01*
X17383000Y-77630000D01*
G75*
G02*
X17608000Y-77855000I0J-225000D01*
G01*
X17608000Y-78355000D01*
G75*
G02*
X17383000Y-78580000I-225000J0D01*
G01*
X16933000Y-78580000D01*
G75*
G02*
X16708000Y-78355000I0J225000D01*
G01*
G37*
G36*
G01*
X15158000Y-78355000D02*
X15158000Y-77855000D01*
G75*
G02*
X15383000Y-77630000I225000J0D01*
G01*
X15833000Y-77630000D01*
G75*
G02*
X16058000Y-77855000I0J-225000D01*
G01*
X16058000Y-78355000D01*
G75*
G02*
X15833000Y-78580000I-225000J0D01*
G01*
X15383000Y-78580000D01*
G75*
G02*
X15158000Y-78355000I0J225000D01*
G01*
G37*
%TD*%
%TO.C,C1*%
G36*
G01*
X63190000Y-19744500D02*
X63190000Y-19244500D01*
G75*
G02*
X63415000Y-19019500I225000J0D01*
G01*
X63865000Y-19019500D01*
G75*
G02*
X64090000Y-19244500I0J-225000D01*
G01*
X64090000Y-19744500D01*
G75*
G02*
X63865000Y-19969500I-225000J0D01*
G01*
X63415000Y-19969500D01*
G75*
G02*
X63190000Y-19744500I0J225000D01*
G01*
G37*
G36*
G01*
X61640000Y-19744500D02*
X61640000Y-19244500D01*
G75*
G02*
X61865000Y-19019500I225000J0D01*
G01*
X62315000Y-19019500D01*
G75*
G02*
X62540000Y-19244500I0J-225000D01*
G01*
X62540000Y-19744500D01*
G75*
G02*
X62315000Y-19969500I-225000J0D01*
G01*
X61865000Y-19969500D01*
G75*
G02*
X61640000Y-19744500I0J225000D01*
G01*
G37*
%TD*%
%TO.C,C3*%
G36*
G01*
X70171500Y-14295000D02*
X70671500Y-14295000D01*
G75*
G02*
X70896500Y-14520000I0J-225000D01*
G01*
X70896500Y-14970000D01*
G75*
G02*
X70671500Y-15195000I-225000J0D01*
G01*
X70171500Y-15195000D01*
G75*
G02*
X69946500Y-14970000I0J225000D01*
G01*
X69946500Y-14520000D01*
G75*
G02*
X70171500Y-14295000I225000J0D01*
G01*
G37*
G36*
G01*
X70171500Y-12745000D02*
X70671500Y-12745000D01*
G75*
G02*
X70896500Y-12970000I0J-225000D01*
G01*
X70896500Y-13420000D01*
G75*
G02*
X70671500Y-13645000I-225000J0D01*
G01*
X70171500Y-13645000D01*
G75*
G02*
X69946500Y-13420000I0J225000D01*
G01*
X69946500Y-12970000D01*
G75*
G02*
X70171500Y-12745000I225000J0D01*
G01*
G37*
%TD*%
%TO.C,C2*%
G36*
G01*
X60142000Y-19744500D02*
X60142000Y-19244500D01*
G75*
G02*
X60367000Y-19019500I225000J0D01*
G01*
X60817000Y-19019500D01*
G75*
G02*
X61042000Y-19244500I0J-225000D01*
G01*
X61042000Y-19744500D01*
G75*
G02*
X60817000Y-19969500I-225000J0D01*
G01*
X60367000Y-19969500D01*
G75*
G02*
X60142000Y-19744500I0J225000D01*
G01*
G37*
G36*
G01*
X58592000Y-19744500D02*
X58592000Y-19244500D01*
G75*
G02*
X58817000Y-19019500I225000J0D01*
G01*
X59267000Y-19019500D01*
G75*
G02*
X59492000Y-19244500I0J-225000D01*
G01*
X59492000Y-19744500D01*
G75*
G02*
X59267000Y-19969500I-225000J0D01*
G01*
X58817000Y-19969500D01*
G75*
G02*
X58592000Y-19744500I0J225000D01*
G01*
G37*
%TD*%
D11*
%TO.C,D6*%
X29718000Y-953500D03*
X29718000Y-4253500D03*
%TD*%
D18*
%TO.C,D12*%
X47244000Y-85312000D03*
X47244000Y-81312000D03*
%TD*%
D11*
%TO.C,D7*%
X77851000Y-72262000D03*
X77851000Y-68962000D03*
%TD*%
%TO.C,IC1*%
G36*
G01*
X82891999Y-11149000D02*
X83732001Y-11149000D01*
G75*
G02*
X83982000Y-11398999I0J-249999D01*
G01*
X83982000Y-11949001D01*
G75*
G02*
X83732001Y-12199000I-249999J0D01*
G01*
X82891999Y-12199000D01*
G75*
G02*
X82642000Y-11949001I0J249999D01*
G01*
X82642000Y-11398999D01*
G75*
G02*
X82891999Y-11149000I249999J0D01*
G01*
G37*
G36*
G01*
X84491999Y-11149000D02*
X85332001Y-11149000D01*
G75*
G02*
X85582000Y-11398999I0J-249999D01*
G01*
X85582000Y-11949001D01*
G75*
G02*
X85332001Y-12199000I-249999J0D01*
G01*
X84491999Y-12199000D01*
G75*
G02*
X84242000Y-11949001I0J249999D01*
G01*
X84242000Y-11398999D01*
G75*
G02*
X84491999Y-11149000I249999J0D01*
G01*
G37*
G36*
G01*
X82891999Y-9889000D02*
X83732001Y-9889000D01*
G75*
G02*
X83982000Y-10138999I0J-249999D01*
G01*
X83982000Y-10689001D01*
G75*
G02*
X83732001Y-10939000I-249999J0D01*
G01*
X82891999Y-10939000D01*
G75*
G02*
X82642000Y-10689001I0J249999D01*
G01*
X82642000Y-10138999D01*
G75*
G02*
X82891999Y-9889000I249999J0D01*
G01*
G37*
G36*
G01*
X84491999Y-9889000D02*
X85332001Y-9889000D01*
G75*
G02*
X85582000Y-10138999I0J-249999D01*
G01*
X85582000Y-10689001D01*
G75*
G02*
X85332001Y-10939000I-249999J0D01*
G01*
X84491999Y-10939000D01*
G75*
G02*
X84242000Y-10689001I0J249999D01*
G01*
X84242000Y-10138999D01*
G75*
G02*
X84491999Y-9889000I249999J0D01*
G01*
G37*
G36*
G01*
X85867000Y-12869000D02*
X86167000Y-12869000D01*
G75*
G02*
X86317000Y-13019000I0J-150000D01*
G01*
X86317000Y-14344000D01*
G75*
G02*
X86167000Y-14494000I-150000J0D01*
G01*
X85867000Y-14494000D01*
G75*
G02*
X85717000Y-14344000I0J150000D01*
G01*
X85717000Y-13019000D01*
G75*
G02*
X85867000Y-12869000I150000J0D01*
G01*
G37*
G36*
G01*
X84597000Y-12869000D02*
X84897000Y-12869000D01*
G75*
G02*
X85047000Y-13019000I0J-150000D01*
G01*
X85047000Y-14344000D01*
G75*
G02*
X84897000Y-14494000I-150000J0D01*
G01*
X84597000Y-14494000D01*
G75*
G02*
X84447000Y-14344000I0J150000D01*
G01*
X84447000Y-13019000D01*
G75*
G02*
X84597000Y-12869000I150000J0D01*
G01*
G37*
G36*
G01*
X83327000Y-12869000D02*
X83627000Y-12869000D01*
G75*
G02*
X83777000Y-13019000I0J-150000D01*
G01*
X83777000Y-14344000D01*
G75*
G02*
X83627000Y-14494000I-150000J0D01*
G01*
X83327000Y-14494000D01*
G75*
G02*
X83177000Y-14344000I0J150000D01*
G01*
X83177000Y-13019000D01*
G75*
G02*
X83327000Y-12869000I150000J0D01*
G01*
G37*
G36*
G01*
X82057000Y-12869000D02*
X82357000Y-12869000D01*
G75*
G02*
X82507000Y-13019000I0J-150000D01*
G01*
X82507000Y-14344000D01*
G75*
G02*
X82357000Y-14494000I-150000J0D01*
G01*
X82057000Y-14494000D01*
G75*
G02*
X81907000Y-14344000I0J150000D01*
G01*
X81907000Y-13019000D01*
G75*
G02*
X82057000Y-12869000I150000J0D01*
G01*
G37*
G36*
G01*
X82057000Y-7594000D02*
X82357000Y-7594000D01*
G75*
G02*
X82507000Y-7744000I0J-150000D01*
G01*
X82507000Y-9069000D01*
G75*
G02*
X82357000Y-9219000I-150000J0D01*
G01*
X82057000Y-9219000D01*
G75*
G02*
X81907000Y-9069000I0J150000D01*
G01*
X81907000Y-7744000D01*
G75*
G02*
X82057000Y-7594000I150000J0D01*
G01*
G37*
G36*
G01*
X83327000Y-7594000D02*
X83627000Y-7594000D01*
G75*
G02*
X83777000Y-7744000I0J-150000D01*
G01*
X83777000Y-9069000D01*
G75*
G02*
X83627000Y-9219000I-150000J0D01*
G01*
X83327000Y-9219000D01*
G75*
G02*
X83177000Y-9069000I0J150000D01*
G01*
X83177000Y-7744000D01*
G75*
G02*
X83327000Y-7594000I150000J0D01*
G01*
G37*
G36*
G01*
X84597000Y-7594000D02*
X84897000Y-7594000D01*
G75*
G02*
X85047000Y-7744000I0J-150000D01*
G01*
X85047000Y-9069000D01*
G75*
G02*
X84897000Y-9219000I-150000J0D01*
G01*
X84597000Y-9219000D01*
G75*
G02*
X84447000Y-9069000I0J150000D01*
G01*
X84447000Y-7744000D01*
G75*
G02*
X84597000Y-7594000I150000J0D01*
G01*
G37*
G36*
G01*
X85867000Y-7594000D02*
X86167000Y-7594000D01*
G75*
G02*
X86317000Y-7744000I0J-150000D01*
G01*
X86317000Y-9069000D01*
G75*
G02*
X86167000Y-9219000I-150000J0D01*
G01*
X85867000Y-9219000D01*
G75*
G02*
X85717000Y-9069000I0J150000D01*
G01*
X85717000Y-7744000D01*
G75*
G02*
X85867000Y-7594000I150000J0D01*
G01*
G37*
%TD*%
D19*
%TO.C,Q2*%
X69088000Y-39005000D03*
X70038000Y-41005000D03*
X68138000Y-41005000D03*
%TD*%
%TO.C,Q9*%
X17780000Y-38735000D03*
X16830000Y-36735000D03*
X18730000Y-36735000D03*
%TD*%
%TO.C,Q6*%
X25527000Y-48752000D03*
X24577000Y-46752000D03*
X26477000Y-46752000D03*
%TD*%
%TO.C,R61*%
G36*
G01*
X12933000Y-65068000D02*
X13483000Y-65068000D01*
G75*
G02*
X13683000Y-65268000I0J-200000D01*
G01*
X13683000Y-65668000D01*
G75*
G02*
X13483000Y-65868000I-200000J0D01*
G01*
X12933000Y-65868000D01*
G75*
G02*
X12733000Y-65668000I0J200000D01*
G01*
X12733000Y-65268000D01*
G75*
G02*
X12933000Y-65068000I200000J0D01*
G01*
G37*
G36*
G01*
X12933000Y-63418000D02*
X13483000Y-63418000D01*
G75*
G02*
X13683000Y-63618000I0J-200000D01*
G01*
X13683000Y-64018000D01*
G75*
G02*
X13483000Y-64218000I-200000J0D01*
G01*
X12933000Y-64218000D01*
G75*
G02*
X12733000Y-64018000I0J200000D01*
G01*
X12733000Y-63618000D01*
G75*
G02*
X12933000Y-63418000I200000J0D01*
G01*
G37*
%TD*%
%TO.C,R4*%
G36*
G01*
X6648000Y-18055000D02*
X6648000Y-17505000D01*
G75*
G02*
X6848000Y-17305000I200000J0D01*
G01*
X7248000Y-17305000D01*
G75*
G02*
X7448000Y-17505000I0J-200000D01*
G01*
X7448000Y-18055000D01*
G75*
G02*
X7248000Y-18255000I-200000J0D01*
G01*
X6848000Y-18255000D01*
G75*
G02*
X6648000Y-18055000I0J200000D01*
G01*
G37*
G36*
G01*
X4998000Y-18055000D02*
X4998000Y-17505000D01*
G75*
G02*
X5198000Y-17305000I200000J0D01*
G01*
X5598000Y-17305000D01*
G75*
G02*
X5798000Y-17505000I0J-200000D01*
G01*
X5798000Y-18055000D01*
G75*
G02*
X5598000Y-18255000I-200000J0D01*
G01*
X5198000Y-18255000D01*
G75*
G02*
X4998000Y-18055000I0J200000D01*
G01*
G37*
%TD*%
%TO.C,R63*%
G36*
G01*
X14457000Y-62020000D02*
X15007000Y-62020000D01*
G75*
G02*
X15207000Y-62220000I0J-200000D01*
G01*
X15207000Y-62620000D01*
G75*
G02*
X15007000Y-62820000I-200000J0D01*
G01*
X14457000Y-62820000D01*
G75*
G02*
X14257000Y-62620000I0J200000D01*
G01*
X14257000Y-62220000D01*
G75*
G02*
X14457000Y-62020000I200000J0D01*
G01*
G37*
G36*
G01*
X14457000Y-60370000D02*
X15007000Y-60370000D01*
G75*
G02*
X15207000Y-60570000I0J-200000D01*
G01*
X15207000Y-60970000D01*
G75*
G02*
X15007000Y-61170000I-200000J0D01*
G01*
X14457000Y-61170000D01*
G75*
G02*
X14257000Y-60970000I0J200000D01*
G01*
X14257000Y-60570000D01*
G75*
G02*
X14457000Y-60370000I200000J0D01*
G01*
G37*
%TD*%
%TO.C,R47*%
G36*
G01*
X6994997Y-67321000D02*
X8245003Y-67321000D01*
G75*
G02*
X8495000Y-67570997I0J-249997D01*
G01*
X8495000Y-68196003D01*
G75*
G02*
X8245003Y-68446000I-249997J0D01*
G01*
X6994997Y-68446000D01*
G75*
G02*
X6745000Y-68196003I0J249997D01*
G01*
X6745000Y-67570997D01*
G75*
G02*
X6994997Y-67321000I249997J0D01*
G01*
G37*
G36*
G01*
X6994997Y-64396000D02*
X8245003Y-64396000D01*
G75*
G02*
X8495000Y-64645997I0J-249997D01*
G01*
X8495000Y-65271003D01*
G75*
G02*
X8245003Y-65521000I-249997J0D01*
G01*
X6994997Y-65521000D01*
G75*
G02*
X6745000Y-65271003I0J249997D01*
G01*
X6745000Y-64645997D01*
G75*
G02*
X6994997Y-64396000I249997J0D01*
G01*
G37*
%TD*%
%TO.C,R48*%
G36*
G01*
X5378000Y-74189000D02*
X5378000Y-73639000D01*
G75*
G02*
X5578000Y-73439000I200000J0D01*
G01*
X5978000Y-73439000D01*
G75*
G02*
X6178000Y-73639000I0J-200000D01*
G01*
X6178000Y-74189000D01*
G75*
G02*
X5978000Y-74389000I-200000J0D01*
G01*
X5578000Y-74389000D01*
G75*
G02*
X5378000Y-74189000I0J200000D01*
G01*
G37*
G36*
G01*
X3728000Y-74189000D02*
X3728000Y-73639000D01*
G75*
G02*
X3928000Y-73439000I200000J0D01*
G01*
X4328000Y-73439000D01*
G75*
G02*
X4528000Y-73639000I0J-200000D01*
G01*
X4528000Y-74189000D01*
G75*
G02*
X4328000Y-74389000I-200000J0D01*
G01*
X3928000Y-74389000D01*
G75*
G02*
X3728000Y-74189000I0J200000D01*
G01*
G37*
%TD*%
%TO.C,R49*%
G36*
G01*
X5378000Y-71141000D02*
X5378000Y-70591000D01*
G75*
G02*
X5578000Y-70391000I200000J0D01*
G01*
X5978000Y-70391000D01*
G75*
G02*
X6178000Y-70591000I0J-200000D01*
G01*
X6178000Y-71141000D01*
G75*
G02*
X5978000Y-71341000I-200000J0D01*
G01*
X5578000Y-71341000D01*
G75*
G02*
X5378000Y-71141000I0J200000D01*
G01*
G37*
G36*
G01*
X3728000Y-71141000D02*
X3728000Y-70591000D01*
G75*
G02*
X3928000Y-70391000I200000J0D01*
G01*
X4328000Y-70391000D01*
G75*
G02*
X4528000Y-70591000I0J-200000D01*
G01*
X4528000Y-71141000D01*
G75*
G02*
X4328000Y-71341000I-200000J0D01*
G01*
X3928000Y-71341000D01*
G75*
G02*
X3728000Y-71141000I0J200000D01*
G01*
G37*
%TD*%
D20*
%TO.C,L2*%
X51372000Y-85090000D03*
X59372000Y-85090000D03*
%TD*%
%TO.C,R45*%
G36*
G01*
X9165000Y-71711000D02*
X8615000Y-71711000D01*
G75*
G02*
X8415000Y-71511000I0J200000D01*
G01*
X8415000Y-71111000D01*
G75*
G02*
X8615000Y-70911000I200000J0D01*
G01*
X9165000Y-70911000D01*
G75*
G02*
X9365000Y-71111000I0J-200000D01*
G01*
X9365000Y-71511000D01*
G75*
G02*
X9165000Y-71711000I-200000J0D01*
G01*
G37*
G36*
G01*
X9165000Y-73361000D02*
X8615000Y-73361000D01*
G75*
G02*
X8415000Y-73161000I0J200000D01*
G01*
X8415000Y-72761000D01*
G75*
G02*
X8615000Y-72561000I200000J0D01*
G01*
X9165000Y-72561000D01*
G75*
G02*
X9365000Y-72761000I0J-200000D01*
G01*
X9365000Y-73161000D01*
G75*
G02*
X9165000Y-73361000I-200000J0D01*
G01*
G37*
%TD*%
%TO.C,R52*%
G36*
G01*
X6306000Y-86212000D02*
X6306000Y-86762000D01*
G75*
G02*
X6106000Y-86962000I-200000J0D01*
G01*
X5706000Y-86962000D01*
G75*
G02*
X5506000Y-86762000I0J200000D01*
G01*
X5506000Y-86212000D01*
G75*
G02*
X5706000Y-86012000I200000J0D01*
G01*
X6106000Y-86012000D01*
G75*
G02*
X6306000Y-86212000I0J-200000D01*
G01*
G37*
G36*
G01*
X7956000Y-86212000D02*
X7956000Y-86762000D01*
G75*
G02*
X7756000Y-86962000I-200000J0D01*
G01*
X7356000Y-86962000D01*
G75*
G02*
X7156000Y-86762000I0J200000D01*
G01*
X7156000Y-86212000D01*
G75*
G02*
X7356000Y-86012000I200000J0D01*
G01*
X7756000Y-86012000D01*
G75*
G02*
X7956000Y-86212000I0J-200000D01*
G01*
G37*
%TD*%
%TO.C,R10*%
G36*
G01*
X70125000Y-35516000D02*
X69575000Y-35516000D01*
G75*
G02*
X69375000Y-35316000I0J200000D01*
G01*
X69375000Y-34916000D01*
G75*
G02*
X69575000Y-34716000I200000J0D01*
G01*
X70125000Y-34716000D01*
G75*
G02*
X70325000Y-34916000I0J-200000D01*
G01*
X70325000Y-35316000D01*
G75*
G02*
X70125000Y-35516000I-200000J0D01*
G01*
G37*
G36*
G01*
X70125000Y-37166000D02*
X69575000Y-37166000D01*
G75*
G02*
X69375000Y-36966000I0J200000D01*
G01*
X69375000Y-36566000D01*
G75*
G02*
X69575000Y-36366000I200000J0D01*
G01*
X70125000Y-36366000D01*
G75*
G02*
X70325000Y-36566000I0J-200000D01*
G01*
X70325000Y-36966000D01*
G75*
G02*
X70125000Y-37166000I-200000J0D01*
G01*
G37*
%TD*%
D21*
%TO.C,L1*%
X84582000Y-77787000D03*
X84582000Y-69787000D03*
%TD*%
D19*
%TO.C,Q1*%
X6223000Y-13605000D03*
X7173000Y-15605000D03*
X5273000Y-15605000D03*
%TD*%
%TO.C,R53*%
G36*
G01*
X4454997Y-67321000D02*
X5705003Y-67321000D01*
G75*
G02*
X5955000Y-67570997I0J-249997D01*
G01*
X5955000Y-68196003D01*
G75*
G02*
X5705003Y-68446000I-249997J0D01*
G01*
X4454997Y-68446000D01*
G75*
G02*
X4205000Y-68196003I0J249997D01*
G01*
X4205000Y-67570997D01*
G75*
G02*
X4454997Y-67321000I249997J0D01*
G01*
G37*
G36*
G01*
X4454997Y-64396000D02*
X5705003Y-64396000D01*
G75*
G02*
X5955000Y-64645997I0J-249997D01*
G01*
X5955000Y-65271003D01*
G75*
G02*
X5705003Y-65521000I-249997J0D01*
G01*
X4454997Y-65521000D01*
G75*
G02*
X4205000Y-65271003I0J249997D01*
G01*
X4205000Y-64645997D01*
G75*
G02*
X4454997Y-64396000I249997J0D01*
G01*
G37*
%TD*%
%TO.C,Q3*%
X69088000Y-44815000D03*
X68138000Y-42815000D03*
X70038000Y-42815000D03*
%TD*%
%TO.C,R62*%
G36*
G01*
X1914997Y-67321000D02*
X3165003Y-67321000D01*
G75*
G02*
X3415000Y-67570997I0J-249997D01*
G01*
X3415000Y-68196003D01*
G75*
G02*
X3165003Y-68446000I-249997J0D01*
G01*
X1914997Y-68446000D01*
G75*
G02*
X1665000Y-68196003I0J249997D01*
G01*
X1665000Y-67570997D01*
G75*
G02*
X1914997Y-67321000I249997J0D01*
G01*
G37*
G36*
G01*
X1914997Y-64396000D02*
X3165003Y-64396000D01*
G75*
G02*
X3415000Y-64645997I0J-249997D01*
G01*
X3415000Y-65271003D01*
G75*
G02*
X3165003Y-65521000I-249997J0D01*
G01*
X1914997Y-65521000D01*
G75*
G02*
X1665000Y-65271003I0J249997D01*
G01*
X1665000Y-64645997D01*
G75*
G02*
X1914997Y-64396000I249997J0D01*
G01*
G37*
%TD*%
%TO.C,Q8*%
X17145000Y-48498000D03*
X16195000Y-46498000D03*
X18095000Y-46498000D03*
%TD*%
%TO.C,Q7*%
X26289000Y-38719000D03*
X25339000Y-36719000D03*
X27239000Y-36719000D03*
%TD*%
%TO.C,R2*%
G36*
G01*
X23728000Y-20554500D02*
X24278000Y-20554500D01*
G75*
G02*
X24478000Y-20754500I0J-200000D01*
G01*
X24478000Y-21154500D01*
G75*
G02*
X24278000Y-21354500I-200000J0D01*
G01*
X23728000Y-21354500D01*
G75*
G02*
X23528000Y-21154500I0J200000D01*
G01*
X23528000Y-20754500D01*
G75*
G02*
X23728000Y-20554500I200000J0D01*
G01*
G37*
G36*
G01*
X23728000Y-18904500D02*
X24278000Y-18904500D01*
G75*
G02*
X24478000Y-19104500I0J-200000D01*
G01*
X24478000Y-19504500D01*
G75*
G02*
X24278000Y-19704500I-200000J0D01*
G01*
X23728000Y-19704500D01*
G75*
G02*
X23528000Y-19504500I0J200000D01*
G01*
X23528000Y-19104500D01*
G75*
G02*
X23728000Y-18904500I200000J0D01*
G01*
G37*
%TD*%
%TO.C,R1*%
G36*
G01*
X21632500Y-20554500D02*
X22182500Y-20554500D01*
G75*
G02*
X22382500Y-20754500I0J-200000D01*
G01*
X22382500Y-21154500D01*
G75*
G02*
X22182500Y-21354500I-200000J0D01*
G01*
X21632500Y-21354500D01*
G75*
G02*
X21432500Y-21154500I0J200000D01*
G01*
X21432500Y-20754500D01*
G75*
G02*
X21632500Y-20554500I200000J0D01*
G01*
G37*
G36*
G01*
X21632500Y-18904500D02*
X22182500Y-18904500D01*
G75*
G02*
X22382500Y-19104500I0J-200000D01*
G01*
X22382500Y-19504500D01*
G75*
G02*
X22182500Y-19704500I-200000J0D01*
G01*
X21632500Y-19704500D01*
G75*
G02*
X21432500Y-19504500I0J200000D01*
G01*
X21432500Y-19104500D01*
G75*
G02*
X21632500Y-18904500I200000J0D01*
G01*
G37*
%TD*%
%TO.C,R51*%
G36*
G01*
X3258000Y-86212000D02*
X3258000Y-86762000D01*
G75*
G02*
X3058000Y-86962000I-200000J0D01*
G01*
X2658000Y-86962000D01*
G75*
G02*
X2458000Y-86762000I0J200000D01*
G01*
X2458000Y-86212000D01*
G75*
G02*
X2658000Y-86012000I200000J0D01*
G01*
X3058000Y-86012000D01*
G75*
G02*
X3258000Y-86212000I0J-200000D01*
G01*
G37*
G36*
G01*
X4908000Y-86212000D02*
X4908000Y-86762000D01*
G75*
G02*
X4708000Y-86962000I-200000J0D01*
G01*
X4308000Y-86962000D01*
G75*
G02*
X4108000Y-86762000I0J200000D01*
G01*
X4108000Y-86212000D01*
G75*
G02*
X4308000Y-86012000I200000J0D01*
G01*
X4708000Y-86012000D01*
G75*
G02*
X4908000Y-86212000I0J-200000D01*
G01*
G37*
%TD*%
%TO.C,R60*%
G36*
G01*
X11959000Y-64218000D02*
X11409000Y-64218000D01*
G75*
G02*
X11209000Y-64018000I0J200000D01*
G01*
X11209000Y-63618000D01*
G75*
G02*
X11409000Y-63418000I200000J0D01*
G01*
X11959000Y-63418000D01*
G75*
G02*
X12159000Y-63618000I0J-200000D01*
G01*
X12159000Y-64018000D01*
G75*
G02*
X11959000Y-64218000I-200000J0D01*
G01*
G37*
G36*
G01*
X11959000Y-65868000D02*
X11409000Y-65868000D01*
G75*
G02*
X11209000Y-65668000I0J200000D01*
G01*
X11209000Y-65268000D01*
G75*
G02*
X11409000Y-65068000I200000J0D01*
G01*
X11959000Y-65068000D01*
G75*
G02*
X12159000Y-65268000I0J-200000D01*
G01*
X12159000Y-65668000D01*
G75*
G02*
X11959000Y-65868000I-200000J0D01*
G01*
G37*
%TD*%
%TO.C,R46*%
G36*
G01*
X9165000Y-74759000D02*
X8615000Y-74759000D01*
G75*
G02*
X8415000Y-74559000I0J200000D01*
G01*
X8415000Y-74159000D01*
G75*
G02*
X8615000Y-73959000I200000J0D01*
G01*
X9165000Y-73959000D01*
G75*
G02*
X9365000Y-74159000I0J-200000D01*
G01*
X9365000Y-74559000D01*
G75*
G02*
X9165000Y-74759000I-200000J0D01*
G01*
G37*
G36*
G01*
X9165000Y-76409000D02*
X8615000Y-76409000D01*
G75*
G02*
X8415000Y-76209000I0J200000D01*
G01*
X8415000Y-75809000D01*
G75*
G02*
X8615000Y-75609000I200000J0D01*
G01*
X9165000Y-75609000D01*
G75*
G02*
X9365000Y-75809000I0J-200000D01*
G01*
X9365000Y-76209000D01*
G75*
G02*
X9165000Y-76409000I-200000J0D01*
G01*
G37*
%TD*%
%TO.C,R54*%
G36*
G01*
X4108000Y-83714000D02*
X4108000Y-83164000D01*
G75*
G02*
X4308000Y-82964000I200000J0D01*
G01*
X4708000Y-82964000D01*
G75*
G02*
X4908000Y-83164000I0J-200000D01*
G01*
X4908000Y-83714000D01*
G75*
G02*
X4708000Y-83914000I-200000J0D01*
G01*
X4308000Y-83914000D01*
G75*
G02*
X4108000Y-83714000I0J200000D01*
G01*
G37*
G36*
G01*
X2458000Y-83714000D02*
X2458000Y-83164000D01*
G75*
G02*
X2658000Y-82964000I200000J0D01*
G01*
X3058000Y-82964000D01*
G75*
G02*
X3258000Y-83164000I0J-200000D01*
G01*
X3258000Y-83714000D01*
G75*
G02*
X3058000Y-83914000I-200000J0D01*
G01*
X2658000Y-83914000D01*
G75*
G02*
X2458000Y-83714000I0J200000D01*
G01*
G37*
%TD*%
%TO.C,R57*%
G36*
G01*
X6306000Y-84688000D02*
X6306000Y-85238000D01*
G75*
G02*
X6106000Y-85438000I-200000J0D01*
G01*
X5706000Y-85438000D01*
G75*
G02*
X5506000Y-85238000I0J200000D01*
G01*
X5506000Y-84688000D01*
G75*
G02*
X5706000Y-84488000I200000J0D01*
G01*
X6106000Y-84488000D01*
G75*
G02*
X6306000Y-84688000I0J-200000D01*
G01*
G37*
G36*
G01*
X7956000Y-84688000D02*
X7956000Y-85238000D01*
G75*
G02*
X7756000Y-85438000I-200000J0D01*
G01*
X7356000Y-85438000D01*
G75*
G02*
X7156000Y-85238000I0J200000D01*
G01*
X7156000Y-84688000D01*
G75*
G02*
X7356000Y-84488000I200000J0D01*
G01*
X7756000Y-84488000D01*
G75*
G02*
X7956000Y-84688000I0J-200000D01*
G01*
G37*
%TD*%
%TO.C,R64*%
G36*
G01*
X11409000Y-62020000D02*
X11959000Y-62020000D01*
G75*
G02*
X12159000Y-62220000I0J-200000D01*
G01*
X12159000Y-62620000D01*
G75*
G02*
X11959000Y-62820000I-200000J0D01*
G01*
X11409000Y-62820000D01*
G75*
G02*
X11209000Y-62620000I0J200000D01*
G01*
X11209000Y-62220000D01*
G75*
G02*
X11409000Y-62020000I200000J0D01*
G01*
G37*
G36*
G01*
X11409000Y-60370000D02*
X11959000Y-60370000D01*
G75*
G02*
X12159000Y-60570000I0J-200000D01*
G01*
X12159000Y-60970000D01*
G75*
G02*
X11959000Y-61170000I-200000J0D01*
G01*
X11409000Y-61170000D01*
G75*
G02*
X11209000Y-60970000I0J200000D01*
G01*
X11209000Y-60570000D01*
G75*
G02*
X11409000Y-60370000I200000J0D01*
G01*
G37*
%TD*%
%TO.C,R7*%
G36*
G01*
X73766000Y-17443000D02*
X74316000Y-17443000D01*
G75*
G02*
X74516000Y-17643000I0J-200000D01*
G01*
X74516000Y-18043000D01*
G75*
G02*
X74316000Y-18243000I-200000J0D01*
G01*
X73766000Y-18243000D01*
G75*
G02*
X73566000Y-18043000I0J200000D01*
G01*
X73566000Y-17643000D01*
G75*
G02*
X73766000Y-17443000I200000J0D01*
G01*
G37*
G36*
G01*
X73766000Y-15793000D02*
X74316000Y-15793000D01*
G75*
G02*
X74516000Y-15993000I0J-200000D01*
G01*
X74516000Y-16393000D01*
G75*
G02*
X74316000Y-16593000I-200000J0D01*
G01*
X73766000Y-16593000D01*
G75*
G02*
X73566000Y-16393000I0J200000D01*
G01*
X73566000Y-15993000D01*
G75*
G02*
X73766000Y-15793000I200000J0D01*
G01*
G37*
%TD*%
%TO.C,R8*%
G36*
G01*
X72242000Y-17443000D02*
X72792000Y-17443000D01*
G75*
G02*
X72992000Y-17643000I0J-200000D01*
G01*
X72992000Y-18043000D01*
G75*
G02*
X72792000Y-18243000I-200000J0D01*
G01*
X72242000Y-18243000D01*
G75*
G02*
X72042000Y-18043000I0J200000D01*
G01*
X72042000Y-17643000D01*
G75*
G02*
X72242000Y-17443000I200000J0D01*
G01*
G37*
G36*
G01*
X72242000Y-15793000D02*
X72792000Y-15793000D01*
G75*
G02*
X72992000Y-15993000I0J-200000D01*
G01*
X72992000Y-16393000D01*
G75*
G02*
X72792000Y-16593000I-200000J0D01*
G01*
X72242000Y-16593000D01*
G75*
G02*
X72042000Y-16393000I0J200000D01*
G01*
X72042000Y-15993000D01*
G75*
G02*
X72242000Y-15793000I200000J0D01*
G01*
G37*
%TD*%
%TO.C,R9*%
G36*
G01*
X68601000Y-35516000D02*
X68051000Y-35516000D01*
G75*
G02*
X67851000Y-35316000I0J200000D01*
G01*
X67851000Y-34916000D01*
G75*
G02*
X68051000Y-34716000I200000J0D01*
G01*
X68601000Y-34716000D01*
G75*
G02*
X68801000Y-34916000I0J-200000D01*
G01*
X68801000Y-35316000D01*
G75*
G02*
X68601000Y-35516000I-200000J0D01*
G01*
G37*
G36*
G01*
X68601000Y-37166000D02*
X68051000Y-37166000D01*
G75*
G02*
X67851000Y-36966000I0J200000D01*
G01*
X67851000Y-36566000D01*
G75*
G02*
X68051000Y-36366000I200000J0D01*
G01*
X68601000Y-36366000D01*
G75*
G02*
X68801000Y-36566000I0J-200000D01*
G01*
X68801000Y-36966000D01*
G75*
G02*
X68601000Y-37166000I-200000J0D01*
G01*
G37*
%TD*%
%TO.C,R26*%
G36*
G01*
X63163000Y-33168000D02*
X63163000Y-32618000D01*
G75*
G02*
X63363000Y-32418000I200000J0D01*
G01*
X63763000Y-32418000D01*
G75*
G02*
X63963000Y-32618000I0J-200000D01*
G01*
X63963000Y-33168000D01*
G75*
G02*
X63763000Y-33368000I-200000J0D01*
G01*
X63363000Y-33368000D01*
G75*
G02*
X63163000Y-33168000I0J200000D01*
G01*
G37*
G36*
G01*
X61513000Y-33168000D02*
X61513000Y-32618000D01*
G75*
G02*
X61713000Y-32418000I200000J0D01*
G01*
X62113000Y-32418000D01*
G75*
G02*
X62313000Y-32618000I0J-200000D01*
G01*
X62313000Y-33168000D01*
G75*
G02*
X62113000Y-33368000I-200000J0D01*
G01*
X61713000Y-33368000D01*
G75*
G02*
X61513000Y-33168000I0J200000D01*
G01*
G37*
%TD*%
%TO.C,R18*%
G36*
G01*
X88817000Y-80920000D02*
X88817000Y-80370000D01*
G75*
G02*
X89017000Y-80170000I200000J0D01*
G01*
X89417000Y-80170000D01*
G75*
G02*
X89617000Y-80370000I0J-200000D01*
G01*
X89617000Y-80920000D01*
G75*
G02*
X89417000Y-81120000I-200000J0D01*
G01*
X89017000Y-81120000D01*
G75*
G02*
X88817000Y-80920000I0J200000D01*
G01*
G37*
G36*
G01*
X87167000Y-80920000D02*
X87167000Y-80370000D01*
G75*
G02*
X87367000Y-80170000I200000J0D01*
G01*
X87767000Y-80170000D01*
G75*
G02*
X87967000Y-80370000I0J-200000D01*
G01*
X87967000Y-80920000D01*
G75*
G02*
X87767000Y-81120000I-200000J0D01*
G01*
X87367000Y-81120000D01*
G75*
G02*
X87167000Y-80920000I0J200000D01*
G01*
G37*
%TD*%
%TO.C,R24*%
G36*
G01*
X65045000Y-39834000D02*
X64495000Y-39834000D01*
G75*
G02*
X64295000Y-39634000I0J200000D01*
G01*
X64295000Y-39234000D01*
G75*
G02*
X64495000Y-39034000I200000J0D01*
G01*
X65045000Y-39034000D01*
G75*
G02*
X65245000Y-39234000I0J-200000D01*
G01*
X65245000Y-39634000D01*
G75*
G02*
X65045000Y-39834000I-200000J0D01*
G01*
G37*
G36*
G01*
X65045000Y-41484000D02*
X64495000Y-41484000D01*
G75*
G02*
X64295000Y-41284000I0J200000D01*
G01*
X64295000Y-40884000D01*
G75*
G02*
X64495000Y-40684000I200000J0D01*
G01*
X65045000Y-40684000D01*
G75*
G02*
X65245000Y-40884000I0J-200000D01*
G01*
X65245000Y-41284000D01*
G75*
G02*
X65045000Y-41484000I-200000J0D01*
G01*
G37*
%TD*%
%TO.C,R27*%
G36*
G01*
X43201000Y-81617000D02*
X42651000Y-81617000D01*
G75*
G02*
X42451000Y-81417000I0J200000D01*
G01*
X42451000Y-81017000D01*
G75*
G02*
X42651000Y-80817000I200000J0D01*
G01*
X43201000Y-80817000D01*
G75*
G02*
X43401000Y-81017000I0J-200000D01*
G01*
X43401000Y-81417000D01*
G75*
G02*
X43201000Y-81617000I-200000J0D01*
G01*
G37*
G36*
G01*
X43201000Y-83267000D02*
X42651000Y-83267000D01*
G75*
G02*
X42451000Y-83067000I0J200000D01*
G01*
X42451000Y-82667000D01*
G75*
G02*
X42651000Y-82467000I200000J0D01*
G01*
X43201000Y-82467000D01*
G75*
G02*
X43401000Y-82667000I0J-200000D01*
G01*
X43401000Y-83067000D01*
G75*
G02*
X43201000Y-83267000I-200000J0D01*
G01*
G37*
%TD*%
%TO.C,R28*%
G36*
G01*
X43201000Y-84665000D02*
X42651000Y-84665000D01*
G75*
G02*
X42451000Y-84465000I0J200000D01*
G01*
X42451000Y-84065000D01*
G75*
G02*
X42651000Y-83865000I200000J0D01*
G01*
X43201000Y-83865000D01*
G75*
G02*
X43401000Y-84065000I0J-200000D01*
G01*
X43401000Y-84465000D01*
G75*
G02*
X43201000Y-84665000I-200000J0D01*
G01*
G37*
G36*
G01*
X43201000Y-86315000D02*
X42651000Y-86315000D01*
G75*
G02*
X42451000Y-86115000I0J200000D01*
G01*
X42451000Y-85715000D01*
G75*
G02*
X42651000Y-85515000I200000J0D01*
G01*
X43201000Y-85515000D01*
G75*
G02*
X43401000Y-85715000I0J-200000D01*
G01*
X43401000Y-86115000D01*
G75*
G02*
X43201000Y-86315000I-200000J0D01*
G01*
G37*
%TD*%
%TO.C,R17*%
G36*
G01*
X85427000Y-87101000D02*
X85427000Y-87651000D01*
G75*
G02*
X85227000Y-87851000I-200000J0D01*
G01*
X84827000Y-87851000D01*
G75*
G02*
X84627000Y-87651000I0J200000D01*
G01*
X84627000Y-87101000D01*
G75*
G02*
X84827000Y-86901000I200000J0D01*
G01*
X85227000Y-86901000D01*
G75*
G02*
X85427000Y-87101000I0J-200000D01*
G01*
G37*
G36*
G01*
X87077000Y-87101000D02*
X87077000Y-87651000D01*
G75*
G02*
X86877000Y-87851000I-200000J0D01*
G01*
X86477000Y-87851000D01*
G75*
G02*
X86277000Y-87651000I0J200000D01*
G01*
X86277000Y-87101000D01*
G75*
G02*
X86477000Y-86901000I200000J0D01*
G01*
X86877000Y-86901000D01*
G75*
G02*
X87077000Y-87101000I0J-200000D01*
G01*
G37*
%TD*%
%TO.C,R19*%
G36*
G01*
X89429000Y-89237000D02*
X88879000Y-89237000D01*
G75*
G02*
X88679000Y-89037000I0J200000D01*
G01*
X88679000Y-88637000D01*
G75*
G02*
X88879000Y-88437000I200000J0D01*
G01*
X89429000Y-88437000D01*
G75*
G02*
X89629000Y-88637000I0J-200000D01*
G01*
X89629000Y-89037000D01*
G75*
G02*
X89429000Y-89237000I-200000J0D01*
G01*
G37*
G36*
G01*
X89429000Y-90887000D02*
X88879000Y-90887000D01*
G75*
G02*
X88679000Y-90687000I0J200000D01*
G01*
X88679000Y-90287000D01*
G75*
G02*
X88879000Y-90087000I200000J0D01*
G01*
X89429000Y-90087000D01*
G75*
G02*
X89629000Y-90287000I0J-200000D01*
G01*
X89629000Y-90687000D01*
G75*
G02*
X89429000Y-90887000I-200000J0D01*
G01*
G37*
%TD*%
%TO.C,R3*%
G36*
G01*
X53296000Y-41762000D02*
X53296000Y-42312000D01*
G75*
G02*
X53096000Y-42512000I-200000J0D01*
G01*
X52696000Y-42512000D01*
G75*
G02*
X52496000Y-42312000I0J200000D01*
G01*
X52496000Y-41762000D01*
G75*
G02*
X52696000Y-41562000I200000J0D01*
G01*
X53096000Y-41562000D01*
G75*
G02*
X53296000Y-41762000I0J-200000D01*
G01*
G37*
G36*
G01*
X54946000Y-41762000D02*
X54946000Y-42312000D01*
G75*
G02*
X54746000Y-42512000I-200000J0D01*
G01*
X54346000Y-42512000D01*
G75*
G02*
X54146000Y-42312000I0J200000D01*
G01*
X54146000Y-41762000D01*
G75*
G02*
X54346000Y-41562000I200000J0D01*
G01*
X54746000Y-41562000D01*
G75*
G02*
X54946000Y-41762000I0J-200000D01*
G01*
G37*
%TD*%
%TO.C,R23*%
G36*
G01*
X69044000Y-52811000D02*
X69044000Y-53361000D01*
G75*
G02*
X68844000Y-53561000I-200000J0D01*
G01*
X68444000Y-53561000D01*
G75*
G02*
X68244000Y-53361000I0J200000D01*
G01*
X68244000Y-52811000D01*
G75*
G02*
X68444000Y-52611000I200000J0D01*
G01*
X68844000Y-52611000D01*
G75*
G02*
X69044000Y-52811000I0J-200000D01*
G01*
G37*
G36*
G01*
X70694000Y-52811000D02*
X70694000Y-53361000D01*
G75*
G02*
X70494000Y-53561000I-200000J0D01*
G01*
X70094000Y-53561000D01*
G75*
G02*
X69894000Y-53361000I0J200000D01*
G01*
X69894000Y-52811000D01*
G75*
G02*
X70094000Y-52611000I200000J0D01*
G01*
X70494000Y-52611000D01*
G75*
G02*
X70694000Y-52811000I0J-200000D01*
G01*
G37*
%TD*%
%TO.C,R30*%
G36*
G01*
X25698000Y-83460000D02*
X25698000Y-82910000D01*
G75*
G02*
X25898000Y-82710000I200000J0D01*
G01*
X26298000Y-82710000D01*
G75*
G02*
X26498000Y-82910000I0J-200000D01*
G01*
X26498000Y-83460000D01*
G75*
G02*
X26298000Y-83660000I-200000J0D01*
G01*
X25898000Y-83660000D01*
G75*
G02*
X25698000Y-83460000I0J200000D01*
G01*
G37*
G36*
G01*
X24048000Y-83460000D02*
X24048000Y-82910000D01*
G75*
G02*
X24248000Y-82710000I200000J0D01*
G01*
X24648000Y-82710000D01*
G75*
G02*
X24848000Y-82910000I0J-200000D01*
G01*
X24848000Y-83460000D01*
G75*
G02*
X24648000Y-83660000I-200000J0D01*
G01*
X24248000Y-83660000D01*
G75*
G02*
X24048000Y-83460000I0J200000D01*
G01*
G37*
%TD*%
%TO.C,R56*%
G36*
G01*
X30143000Y-36978000D02*
X30143000Y-36428000D01*
G75*
G02*
X30343000Y-36228000I200000J0D01*
G01*
X30743000Y-36228000D01*
G75*
G02*
X30943000Y-36428000I0J-200000D01*
G01*
X30943000Y-36978000D01*
G75*
G02*
X30743000Y-37178000I-200000J0D01*
G01*
X30343000Y-37178000D01*
G75*
G02*
X30143000Y-36978000I0J200000D01*
G01*
G37*
G36*
G01*
X28493000Y-36978000D02*
X28493000Y-36428000D01*
G75*
G02*
X28693000Y-36228000I200000J0D01*
G01*
X29093000Y-36228000D01*
G75*
G02*
X29293000Y-36428000I0J-200000D01*
G01*
X29293000Y-36978000D01*
G75*
G02*
X29093000Y-37178000I-200000J0D01*
G01*
X28693000Y-37178000D01*
G75*
G02*
X28493000Y-36978000I0J200000D01*
G01*
G37*
%TD*%
%TO.C,R55*%
G36*
G01*
X27919000Y-47923000D02*
X28469000Y-47923000D01*
G75*
G02*
X28669000Y-48123000I0J-200000D01*
G01*
X28669000Y-48523000D01*
G75*
G02*
X28469000Y-48723000I-200000J0D01*
G01*
X27919000Y-48723000D01*
G75*
G02*
X27719000Y-48523000I0J200000D01*
G01*
X27719000Y-48123000D01*
G75*
G02*
X27919000Y-47923000I200000J0D01*
G01*
G37*
G36*
G01*
X27919000Y-46273000D02*
X28469000Y-46273000D01*
G75*
G02*
X28669000Y-46473000I0J-200000D01*
G01*
X28669000Y-46873000D01*
G75*
G02*
X28469000Y-47073000I-200000J0D01*
G01*
X27919000Y-47073000D01*
G75*
G02*
X27719000Y-46873000I0J200000D01*
G01*
X27719000Y-46473000D01*
G75*
G02*
X27919000Y-46273000I200000J0D01*
G01*
G37*
%TD*%
%TO.C,R40*%
G36*
G01*
X89148000Y-39946000D02*
X88598000Y-39946000D01*
G75*
G02*
X88398000Y-39746000I0J200000D01*
G01*
X88398000Y-39346000D01*
G75*
G02*
X88598000Y-39146000I200000J0D01*
G01*
X89148000Y-39146000D01*
G75*
G02*
X89348000Y-39346000I0J-200000D01*
G01*
X89348000Y-39746000D01*
G75*
G02*
X89148000Y-39946000I-200000J0D01*
G01*
G37*
G36*
G01*
X89148000Y-41596000D02*
X88598000Y-41596000D01*
G75*
G02*
X88398000Y-41396000I0J200000D01*
G01*
X88398000Y-40996000D01*
G75*
G02*
X88598000Y-40796000I200000J0D01*
G01*
X89148000Y-40796000D01*
G75*
G02*
X89348000Y-40996000I0J-200000D01*
G01*
X89348000Y-41396000D01*
G75*
G02*
X89148000Y-41596000I-200000J0D01*
G01*
G37*
%TD*%
%TO.C,R25*%
G36*
G01*
X87967000Y-7218000D02*
X87967000Y-7768000D01*
G75*
G02*
X87767000Y-7968000I-200000J0D01*
G01*
X87367000Y-7968000D01*
G75*
G02*
X87167000Y-7768000I0J200000D01*
G01*
X87167000Y-7218000D01*
G75*
G02*
X87367000Y-7018000I200000J0D01*
G01*
X87767000Y-7018000D01*
G75*
G02*
X87967000Y-7218000I0J-200000D01*
G01*
G37*
G36*
G01*
X89617000Y-7218000D02*
X89617000Y-7768000D01*
G75*
G02*
X89417000Y-7968000I-200000J0D01*
G01*
X89017000Y-7968000D01*
G75*
G02*
X88817000Y-7768000I0J200000D01*
G01*
X88817000Y-7218000D01*
G75*
G02*
X89017000Y-7018000I200000J0D01*
G01*
X89417000Y-7018000D01*
G75*
G02*
X89617000Y-7218000I0J-200000D01*
G01*
G37*
%TD*%
%TO.C,R29*%
G36*
G01*
X35160000Y-69272998D02*
X35160000Y-70173002D01*
G75*
G02*
X34910002Y-70423000I-249998J0D01*
G01*
X34384998Y-70423000D01*
G75*
G02*
X34135000Y-70173002I0J249998D01*
G01*
X34135000Y-69272998D01*
G75*
G02*
X34384998Y-69023000I249998J0D01*
G01*
X34910002Y-69023000D01*
G75*
G02*
X35160000Y-69272998I0J-249998D01*
G01*
G37*
G36*
G01*
X36985000Y-69272998D02*
X36985000Y-70173002D01*
G75*
G02*
X36735002Y-70423000I-249998J0D01*
G01*
X36209998Y-70423000D01*
G75*
G02*
X35960000Y-70173002I0J249998D01*
G01*
X35960000Y-69272998D01*
G75*
G02*
X36209998Y-69023000I249998J0D01*
G01*
X36735002Y-69023000D01*
G75*
G02*
X36985000Y-69272998I0J-249998D01*
G01*
G37*
%TD*%
%TO.C,R22*%
G36*
G01*
X72030000Y-51899000D02*
X71480000Y-51899000D01*
G75*
G02*
X71280000Y-51699000I0J200000D01*
G01*
X71280000Y-51299000D01*
G75*
G02*
X71480000Y-51099000I200000J0D01*
G01*
X72030000Y-51099000D01*
G75*
G02*
X72230000Y-51299000I0J-200000D01*
G01*
X72230000Y-51699000D01*
G75*
G02*
X72030000Y-51899000I-200000J0D01*
G01*
G37*
G36*
G01*
X72030000Y-53549000D02*
X71480000Y-53549000D01*
G75*
G02*
X71280000Y-53349000I0J200000D01*
G01*
X71280000Y-52949000D01*
G75*
G02*
X71480000Y-52749000I200000J0D01*
G01*
X72030000Y-52749000D01*
G75*
G02*
X72230000Y-52949000I0J-200000D01*
G01*
X72230000Y-53349000D01*
G75*
G02*
X72030000Y-53549000I-200000J0D01*
G01*
G37*
%TD*%
%TO.C,R39*%
G36*
G01*
X83496998Y-49271500D02*
X84397002Y-49271500D01*
G75*
G02*
X84647000Y-49521498I0J-249998D01*
G01*
X84647000Y-50046502D01*
G75*
G02*
X84397002Y-50296500I-249998J0D01*
G01*
X83496998Y-50296500D01*
G75*
G02*
X83247000Y-50046502I0J249998D01*
G01*
X83247000Y-49521498D01*
G75*
G02*
X83496998Y-49271500I249998J0D01*
G01*
G37*
G36*
G01*
X83496998Y-47446500D02*
X84397002Y-47446500D01*
G75*
G02*
X84647000Y-47696498I0J-249998D01*
G01*
X84647000Y-48221502D01*
G75*
G02*
X84397002Y-48471500I-249998J0D01*
G01*
X83496998Y-48471500D01*
G75*
G02*
X83247000Y-48221502I0J249998D01*
G01*
X83247000Y-47696498D01*
G75*
G02*
X83496998Y-47446500I249998J0D01*
G01*
G37*
%TD*%
%TO.C,R35*%
G36*
G01*
X2648000Y-52508998D02*
X2648000Y-53409002D01*
G75*
G02*
X2398002Y-53659000I-249998J0D01*
G01*
X1872998Y-53659000D01*
G75*
G02*
X1623000Y-53409002I0J249998D01*
G01*
X1623000Y-52508998D01*
G75*
G02*
X1872998Y-52259000I249998J0D01*
G01*
X2398002Y-52259000D01*
G75*
G02*
X2648000Y-52508998I0J-249998D01*
G01*
G37*
G36*
G01*
X4473000Y-52508998D02*
X4473000Y-53409002D01*
G75*
G02*
X4223002Y-53659000I-249998J0D01*
G01*
X3697998Y-53659000D01*
G75*
G02*
X3448000Y-53409002I0J249998D01*
G01*
X3448000Y-52508998D01*
G75*
G02*
X3697998Y-52259000I249998J0D01*
G01*
X4223002Y-52259000D01*
G75*
G02*
X4473000Y-52508998I0J-249998D01*
G01*
G37*
%TD*%
D22*
%TO.C,U4*%
X40273000Y-23139000D03*
X35673000Y-23139000D03*
X37973000Y-23139000D03*
D23*
X37973000Y-29439000D03*
%TD*%
%TO.C,R42*%
G36*
G01*
X52811000Y-66211000D02*
X53361000Y-66211000D01*
G75*
G02*
X53561000Y-66411000I0J-200000D01*
G01*
X53561000Y-66811000D01*
G75*
G02*
X53361000Y-67011000I-200000J0D01*
G01*
X52811000Y-67011000D01*
G75*
G02*
X52611000Y-66811000I0J200000D01*
G01*
X52611000Y-66411000D01*
G75*
G02*
X52811000Y-66211000I200000J0D01*
G01*
G37*
G36*
G01*
X52811000Y-64561000D02*
X53361000Y-64561000D01*
G75*
G02*
X53561000Y-64761000I0J-200000D01*
G01*
X53561000Y-65161000D01*
G75*
G02*
X53361000Y-65361000I-200000J0D01*
G01*
X52811000Y-65361000D01*
G75*
G02*
X52611000Y-65161000I0J200000D01*
G01*
X52611000Y-64761000D01*
G75*
G02*
X52811000Y-64561000I200000J0D01*
G01*
G37*
%TD*%
%TO.C,R32*%
G36*
G01*
X30524000Y-86381000D02*
X30524000Y-85831000D01*
G75*
G02*
X30724000Y-85631000I200000J0D01*
G01*
X31124000Y-85631000D01*
G75*
G02*
X31324000Y-85831000I0J-200000D01*
G01*
X31324000Y-86381000D01*
G75*
G02*
X31124000Y-86581000I-200000J0D01*
G01*
X30724000Y-86581000D01*
G75*
G02*
X30524000Y-86381000I0J200000D01*
G01*
G37*
G36*
G01*
X28874000Y-86381000D02*
X28874000Y-85831000D01*
G75*
G02*
X29074000Y-85631000I200000J0D01*
G01*
X29474000Y-85631000D01*
G75*
G02*
X29674000Y-85831000I0J-200000D01*
G01*
X29674000Y-86381000D01*
G75*
G02*
X29474000Y-86581000I-200000J0D01*
G01*
X29074000Y-86581000D01*
G75*
G02*
X28874000Y-86381000I0J200000D01*
G01*
G37*
%TD*%
%TO.C,R34*%
G36*
G01*
X2242000Y-40492000D02*
X2242000Y-41042000D01*
G75*
G02*
X2042000Y-41242000I-200000J0D01*
G01*
X1642000Y-41242000D01*
G75*
G02*
X1442000Y-41042000I0J200000D01*
G01*
X1442000Y-40492000D01*
G75*
G02*
X1642000Y-40292000I200000J0D01*
G01*
X2042000Y-40292000D01*
G75*
G02*
X2242000Y-40492000I0J-200000D01*
G01*
G37*
G36*
G01*
X3892000Y-40492000D02*
X3892000Y-41042000D01*
G75*
G02*
X3692000Y-41242000I-200000J0D01*
G01*
X3292000Y-41242000D01*
G75*
G02*
X3092000Y-41042000I0J200000D01*
G01*
X3092000Y-40492000D01*
G75*
G02*
X3292000Y-40292000I200000J0D01*
G01*
X3692000Y-40292000D01*
G75*
G02*
X3892000Y-40492000I0J-200000D01*
G01*
G37*
%TD*%
%TO.C,R58*%
G36*
G01*
X19410000Y-47669000D02*
X19960000Y-47669000D01*
G75*
G02*
X20160000Y-47869000I0J-200000D01*
G01*
X20160000Y-48269000D01*
G75*
G02*
X19960000Y-48469000I-200000J0D01*
G01*
X19410000Y-48469000D01*
G75*
G02*
X19210000Y-48269000I0J200000D01*
G01*
X19210000Y-47869000D01*
G75*
G02*
X19410000Y-47669000I200000J0D01*
G01*
G37*
G36*
G01*
X19410000Y-46019000D02*
X19960000Y-46019000D01*
G75*
G02*
X20160000Y-46219000I0J-200000D01*
G01*
X20160000Y-46619000D01*
G75*
G02*
X19960000Y-46819000I-200000J0D01*
G01*
X19410000Y-46819000D01*
G75*
G02*
X19210000Y-46619000I0J200000D01*
G01*
X19210000Y-46219000D01*
G75*
G02*
X19410000Y-46019000I200000J0D01*
G01*
G37*
%TD*%
%TO.C,R59*%
G36*
G01*
X21507000Y-37105000D02*
X21507000Y-36555000D01*
G75*
G02*
X21707000Y-36355000I200000J0D01*
G01*
X22107000Y-36355000D01*
G75*
G02*
X22307000Y-36555000I0J-200000D01*
G01*
X22307000Y-37105000D01*
G75*
G02*
X22107000Y-37305000I-200000J0D01*
G01*
X21707000Y-37305000D01*
G75*
G02*
X21507000Y-37105000I0J200000D01*
G01*
G37*
G36*
G01*
X19857000Y-37105000D02*
X19857000Y-36555000D01*
G75*
G02*
X20057000Y-36355000I200000J0D01*
G01*
X20457000Y-36355000D01*
G75*
G02*
X20657000Y-36555000I0J-200000D01*
G01*
X20657000Y-37105000D01*
G75*
G02*
X20457000Y-37305000I-200000J0D01*
G01*
X20057000Y-37305000D01*
G75*
G02*
X19857000Y-37105000I0J200000D01*
G01*
G37*
%TD*%
%TO.C,U2*%
G36*
G01*
X30372300Y-19635200D02*
X30522300Y-19635200D01*
G75*
G02*
X30597300Y-19710200I0J-75000D01*
G01*
X30597300Y-20410200D01*
G75*
G02*
X30522300Y-20485200I-75000J0D01*
G01*
X30372300Y-20485200D01*
G75*
G02*
X30297300Y-20410200I0J75000D01*
G01*
X30297300Y-19710200D01*
G75*
G02*
X30372300Y-19635200I75000J0D01*
G01*
G37*
G36*
G01*
X29872300Y-19635200D02*
X30022300Y-19635200D01*
G75*
G02*
X30097300Y-19710200I0J-75000D01*
G01*
X30097300Y-20410200D01*
G75*
G02*
X30022300Y-20485200I-75000J0D01*
G01*
X29872300Y-20485200D01*
G75*
G02*
X29797300Y-20410200I0J75000D01*
G01*
X29797300Y-19710200D01*
G75*
G02*
X29872300Y-19635200I75000J0D01*
G01*
G37*
G36*
G01*
X29372300Y-19635200D02*
X29522300Y-19635200D01*
G75*
G02*
X29597300Y-19710200I0J-75000D01*
G01*
X29597300Y-20410200D01*
G75*
G02*
X29522300Y-20485200I-75000J0D01*
G01*
X29372300Y-20485200D01*
G75*
G02*
X29297300Y-20410200I0J75000D01*
G01*
X29297300Y-19710200D01*
G75*
G02*
X29372300Y-19635200I75000J0D01*
G01*
G37*
G36*
G01*
X28872300Y-19635200D02*
X29022300Y-19635200D01*
G75*
G02*
X29097300Y-19710200I0J-75000D01*
G01*
X29097300Y-20410200D01*
G75*
G02*
X29022300Y-20485200I-75000J0D01*
G01*
X28872300Y-20485200D01*
G75*
G02*
X28797300Y-20410200I0J75000D01*
G01*
X28797300Y-19710200D01*
G75*
G02*
X28872300Y-19635200I75000J0D01*
G01*
G37*
G36*
G01*
X28372300Y-19635200D02*
X28522300Y-19635200D01*
G75*
G02*
X28597300Y-19710200I0J-75000D01*
G01*
X28597300Y-20410200D01*
G75*
G02*
X28522300Y-20485200I-75000J0D01*
G01*
X28372300Y-20485200D01*
G75*
G02*
X28297300Y-20410200I0J75000D01*
G01*
X28297300Y-19710200D01*
G75*
G02*
X28372300Y-19635200I75000J0D01*
G01*
G37*
G36*
G01*
X27872300Y-19635200D02*
X28022300Y-19635200D01*
G75*
G02*
X28097300Y-19710200I0J-75000D01*
G01*
X28097300Y-20410200D01*
G75*
G02*
X28022300Y-20485200I-75000J0D01*
G01*
X27872300Y-20485200D01*
G75*
G02*
X27797300Y-20410200I0J75000D01*
G01*
X27797300Y-19710200D01*
G75*
G02*
X27872300Y-19635200I75000J0D01*
G01*
G37*
G36*
G01*
X27672300Y-19285200D02*
X27672300Y-19435200D01*
G75*
G02*
X27597300Y-19510200I-75000J0D01*
G01*
X26897300Y-19510200D01*
G75*
G02*
X26822300Y-19435200I0J75000D01*
G01*
X26822300Y-19285200D01*
G75*
G02*
X26897300Y-19210200I75000J0D01*
G01*
X27597300Y-19210200D01*
G75*
G02*
X27672300Y-19285200I0J-75000D01*
G01*
G37*
G36*
G01*
X27672300Y-18785200D02*
X27672300Y-18935200D01*
G75*
G02*
X27597300Y-19010200I-75000J0D01*
G01*
X26897300Y-19010200D01*
G75*
G02*
X26822300Y-18935200I0J75000D01*
G01*
X26822300Y-18785200D01*
G75*
G02*
X26897300Y-18710200I75000J0D01*
G01*
X27597300Y-18710200D01*
G75*
G02*
X27672300Y-18785200I0J-75000D01*
G01*
G37*
G36*
G01*
X27672300Y-18285200D02*
X27672300Y-18435200D01*
G75*
G02*
X27597300Y-18510200I-75000J0D01*
G01*
X26897300Y-18510200D01*
G75*
G02*
X26822300Y-18435200I0J75000D01*
G01*
X26822300Y-18285200D01*
G75*
G02*
X26897300Y-18210200I75000J0D01*
G01*
X27597300Y-18210200D01*
G75*
G02*
X27672300Y-18285200I0J-75000D01*
G01*
G37*
G36*
G01*
X27672300Y-17785200D02*
X27672300Y-17935200D01*
G75*
G02*
X27597300Y-18010200I-75000J0D01*
G01*
X26897300Y-18010200D01*
G75*
G02*
X26822300Y-17935200I0J75000D01*
G01*
X26822300Y-17785200D01*
G75*
G02*
X26897300Y-17710200I75000J0D01*
G01*
X27597300Y-17710200D01*
G75*
G02*
X27672300Y-17785200I0J-75000D01*
G01*
G37*
G36*
G01*
X27672300Y-17285200D02*
X27672300Y-17435200D01*
G75*
G02*
X27597300Y-17510200I-75000J0D01*
G01*
X26897300Y-17510200D01*
G75*
G02*
X26822300Y-17435200I0J75000D01*
G01*
X26822300Y-17285200D01*
G75*
G02*
X26897300Y-17210200I75000J0D01*
G01*
X27597300Y-17210200D01*
G75*
G02*
X27672300Y-17285200I0J-75000D01*
G01*
G37*
G36*
G01*
X27672300Y-16785200D02*
X27672300Y-16935200D01*
G75*
G02*
X27597300Y-17010200I-75000J0D01*
G01*
X26897300Y-17010200D01*
G75*
G02*
X26822300Y-16935200I0J75000D01*
G01*
X26822300Y-16785200D01*
G75*
G02*
X26897300Y-16710200I75000J0D01*
G01*
X27597300Y-16710200D01*
G75*
G02*
X27672300Y-16785200I0J-75000D01*
G01*
G37*
G36*
G01*
X27872300Y-15735200D02*
X28022300Y-15735200D01*
G75*
G02*
X28097300Y-15810200I0J-75000D01*
G01*
X28097300Y-16510200D01*
G75*
G02*
X28022300Y-16585200I-75000J0D01*
G01*
X27872300Y-16585200D01*
G75*
G02*
X27797300Y-16510200I0J75000D01*
G01*
X27797300Y-15810200D01*
G75*
G02*
X27872300Y-15735200I75000J0D01*
G01*
G37*
G36*
G01*
X28372300Y-15735200D02*
X28522300Y-15735200D01*
G75*
G02*
X28597300Y-15810200I0J-75000D01*
G01*
X28597300Y-16510200D01*
G75*
G02*
X28522300Y-16585200I-75000J0D01*
G01*
X28372300Y-16585200D01*
G75*
G02*
X28297300Y-16510200I0J75000D01*
G01*
X28297300Y-15810200D01*
G75*
G02*
X28372300Y-15735200I75000J0D01*
G01*
G37*
G36*
G01*
X28872300Y-15735200D02*
X29022300Y-15735200D01*
G75*
G02*
X29097300Y-15810200I0J-75000D01*
G01*
X29097300Y-16510200D01*
G75*
G02*
X29022300Y-16585200I-75000J0D01*
G01*
X28872300Y-16585200D01*
G75*
G02*
X28797300Y-16510200I0J75000D01*
G01*
X28797300Y-15810200D01*
G75*
G02*
X28872300Y-15735200I75000J0D01*
G01*
G37*
G36*
G01*
X29372300Y-15735200D02*
X29522300Y-15735200D01*
G75*
G02*
X29597300Y-15810200I0J-75000D01*
G01*
X29597300Y-16510200D01*
G75*
G02*
X29522300Y-16585200I-75000J0D01*
G01*
X29372300Y-16585200D01*
G75*
G02*
X29297300Y-16510200I0J75000D01*
G01*
X29297300Y-15810200D01*
G75*
G02*
X29372300Y-15735200I75000J0D01*
G01*
G37*
G36*
G01*
X29872300Y-15735200D02*
X30022300Y-15735200D01*
G75*
G02*
X30097300Y-15810200I0J-75000D01*
G01*
X30097300Y-16510200D01*
G75*
G02*
X30022300Y-16585200I-75000J0D01*
G01*
X29872300Y-16585200D01*
G75*
G02*
X29797300Y-16510200I0J75000D01*
G01*
X29797300Y-15810200D01*
G75*
G02*
X29872300Y-15735200I75000J0D01*
G01*
G37*
G36*
G01*
X30372300Y-15735200D02*
X30522300Y-15735200D01*
G75*
G02*
X30597300Y-15810200I0J-75000D01*
G01*
X30597300Y-16510200D01*
G75*
G02*
X30522300Y-16585200I-75000J0D01*
G01*
X30372300Y-16585200D01*
G75*
G02*
X30297300Y-16510200I0J75000D01*
G01*
X30297300Y-15810200D01*
G75*
G02*
X30372300Y-15735200I75000J0D01*
G01*
G37*
G36*
G01*
X31572300Y-16785200D02*
X31572300Y-16935200D01*
G75*
G02*
X31497300Y-17010200I-75000J0D01*
G01*
X30797300Y-17010200D01*
G75*
G02*
X30722300Y-16935200I0J75000D01*
G01*
X30722300Y-16785200D01*
G75*
G02*
X30797300Y-16710200I75000J0D01*
G01*
X31497300Y-16710200D01*
G75*
G02*
X31572300Y-16785200I0J-75000D01*
G01*
G37*
G36*
G01*
X31572300Y-17285200D02*
X31572300Y-17435200D01*
G75*
G02*
X31497300Y-17510200I-75000J0D01*
G01*
X30797300Y-17510200D01*
G75*
G02*
X30722300Y-17435200I0J75000D01*
G01*
X30722300Y-17285200D01*
G75*
G02*
X30797300Y-17210200I75000J0D01*
G01*
X31497300Y-17210200D01*
G75*
G02*
X31572300Y-17285200I0J-75000D01*
G01*
G37*
G36*
G01*
X31572300Y-17785200D02*
X31572300Y-17935200D01*
G75*
G02*
X31497300Y-18010200I-75000J0D01*
G01*
X30797300Y-18010200D01*
G75*
G02*
X30722300Y-17935200I0J75000D01*
G01*
X30722300Y-17785200D01*
G75*
G02*
X30797300Y-17710200I75000J0D01*
G01*
X31497300Y-17710200D01*
G75*
G02*
X31572300Y-17785200I0J-75000D01*
G01*
G37*
G36*
G01*
X31572300Y-18285200D02*
X31572300Y-18435200D01*
G75*
G02*
X31497300Y-18510200I-75000J0D01*
G01*
X30797300Y-18510200D01*
G75*
G02*
X30722300Y-18435200I0J75000D01*
G01*
X30722300Y-18285200D01*
G75*
G02*
X30797300Y-18210200I75000J0D01*
G01*
X31497300Y-18210200D01*
G75*
G02*
X31572300Y-18285200I0J-75000D01*
G01*
G37*
G36*
G01*
X31572300Y-18785200D02*
X31572300Y-18935200D01*
G75*
G02*
X31497300Y-19010200I-75000J0D01*
G01*
X30797300Y-19010200D01*
G75*
G02*
X30722300Y-18935200I0J75000D01*
G01*
X30722300Y-18785200D01*
G75*
G02*
X30797300Y-18710200I75000J0D01*
G01*
X31497300Y-18710200D01*
G75*
G02*
X31572300Y-18785200I0J-75000D01*
G01*
G37*
G36*
G01*
X31572300Y-19285200D02*
X31572300Y-19435200D01*
G75*
G02*
X31497300Y-19510200I-75000J0D01*
G01*
X30797300Y-19510200D01*
G75*
G02*
X30722300Y-19435200I0J75000D01*
G01*
X30722300Y-19285200D01*
G75*
G02*
X30797300Y-19210200I75000J0D01*
G01*
X31497300Y-19210200D01*
G75*
G02*
X31572300Y-19285200I0J-75000D01*
G01*
G37*
%TD*%
%TO.C,R20*%
G36*
G01*
X80181000Y-21865000D02*
X80181000Y-21315000D01*
G75*
G02*
X80381000Y-21115000I200000J0D01*
G01*
X80781000Y-21115000D01*
G75*
G02*
X80981000Y-21315000I0J-200000D01*
G01*
X80981000Y-21865000D01*
G75*
G02*
X80781000Y-22065000I-200000J0D01*
G01*
X80381000Y-22065000D01*
G75*
G02*
X80181000Y-21865000I0J200000D01*
G01*
G37*
G36*
G01*
X78531000Y-21865000D02*
X78531000Y-21315000D01*
G75*
G02*
X78731000Y-21115000I200000J0D01*
G01*
X79131000Y-21115000D01*
G75*
G02*
X79331000Y-21315000I0J-200000D01*
G01*
X79331000Y-21865000D01*
G75*
G02*
X79131000Y-22065000I-200000J0D01*
G01*
X78731000Y-22065000D01*
G75*
G02*
X78531000Y-21865000I0J200000D01*
G01*
G37*
%TD*%
%TO.C,R36*%
G36*
G01*
X2242000Y-42143000D02*
X2242000Y-42693000D01*
G75*
G02*
X2042000Y-42893000I-200000J0D01*
G01*
X1642000Y-42893000D01*
G75*
G02*
X1442000Y-42693000I0J200000D01*
G01*
X1442000Y-42143000D01*
G75*
G02*
X1642000Y-41943000I200000J0D01*
G01*
X2042000Y-41943000D01*
G75*
G02*
X2242000Y-42143000I0J-200000D01*
G01*
G37*
G36*
G01*
X3892000Y-42143000D02*
X3892000Y-42693000D01*
G75*
G02*
X3692000Y-42893000I-200000J0D01*
G01*
X3292000Y-42893000D01*
G75*
G02*
X3092000Y-42693000I0J200000D01*
G01*
X3092000Y-42143000D01*
G75*
G02*
X3292000Y-41943000I200000J0D01*
G01*
X3692000Y-41943000D01*
G75*
G02*
X3892000Y-42143000I0J-200000D01*
G01*
G37*
%TD*%
%TO.C,R38*%
G36*
G01*
X82594000Y-27961000D02*
X82594000Y-27411000D01*
G75*
G02*
X82794000Y-27211000I200000J0D01*
G01*
X83194000Y-27211000D01*
G75*
G02*
X83394000Y-27411000I0J-200000D01*
G01*
X83394000Y-27961000D01*
G75*
G02*
X83194000Y-28161000I-200000J0D01*
G01*
X82794000Y-28161000D01*
G75*
G02*
X82594000Y-27961000I0J200000D01*
G01*
G37*
G36*
G01*
X80944000Y-27961000D02*
X80944000Y-27411000D01*
G75*
G02*
X81144000Y-27211000I200000J0D01*
G01*
X81544000Y-27211000D01*
G75*
G02*
X81744000Y-27411000I0J-200000D01*
G01*
X81744000Y-27961000D01*
G75*
G02*
X81544000Y-28161000I-200000J0D01*
G01*
X81144000Y-28161000D01*
G75*
G02*
X80944000Y-27961000I0J200000D01*
G01*
G37*
%TD*%
%TO.C,R37*%
G36*
G01*
X83369998Y-33801000D02*
X84270002Y-33801000D01*
G75*
G02*
X84520000Y-34050998I0J-249998D01*
G01*
X84520000Y-34576002D01*
G75*
G02*
X84270002Y-34826000I-249998J0D01*
G01*
X83369998Y-34826000D01*
G75*
G02*
X83120000Y-34576002I0J249998D01*
G01*
X83120000Y-34050998D01*
G75*
G02*
X83369998Y-33801000I249998J0D01*
G01*
G37*
G36*
G01*
X83369998Y-31976000D02*
X84270002Y-31976000D01*
G75*
G02*
X84520000Y-32225998I0J-249998D01*
G01*
X84520000Y-32751002D01*
G75*
G02*
X84270002Y-33001000I-249998J0D01*
G01*
X83369998Y-33001000D01*
G75*
G02*
X83120000Y-32751002I0J249998D01*
G01*
X83120000Y-32225998D01*
G75*
G02*
X83369998Y-31976000I249998J0D01*
G01*
G37*
%TD*%
%TO.C,R33*%
G36*
G01*
X5188000Y-33077998D02*
X5188000Y-33978002D01*
G75*
G02*
X4938002Y-34228000I-249998J0D01*
G01*
X4412998Y-34228000D01*
G75*
G02*
X4163000Y-33978002I0J249998D01*
G01*
X4163000Y-33077998D01*
G75*
G02*
X4412998Y-32828000I249998J0D01*
G01*
X4938002Y-32828000D01*
G75*
G02*
X5188000Y-33077998I0J-249998D01*
G01*
G37*
G36*
G01*
X7013000Y-33077998D02*
X7013000Y-33978002D01*
G75*
G02*
X6763002Y-34228000I-249998J0D01*
G01*
X6237998Y-34228000D01*
G75*
G02*
X5988000Y-33978002I0J249998D01*
G01*
X5988000Y-33077998D01*
G75*
G02*
X6237998Y-32828000I249998J0D01*
G01*
X6763002Y-32828000D01*
G75*
G02*
X7013000Y-33077998I0J-249998D01*
G01*
G37*
%TD*%
%TO.C,R31*%
G36*
G01*
X55137000Y-70427002D02*
X55137000Y-69526998D01*
G75*
G02*
X55386998Y-69277000I249998J0D01*
G01*
X55912002Y-69277000D01*
G75*
G02*
X56162000Y-69526998I0J-249998D01*
G01*
X56162000Y-70427002D01*
G75*
G02*
X55912002Y-70677000I-249998J0D01*
G01*
X55386998Y-70677000D01*
G75*
G02*
X55137000Y-70427002I0J249998D01*
G01*
G37*
G36*
G01*
X53312000Y-70427002D02*
X53312000Y-69526998D01*
G75*
G02*
X53561998Y-69277000I249998J0D01*
G01*
X54087002Y-69277000D01*
G75*
G02*
X54337000Y-69526998I0J-249998D01*
G01*
X54337000Y-70427002D01*
G75*
G02*
X54087002Y-70677000I-249998J0D01*
G01*
X53561998Y-70677000D01*
G75*
G02*
X53312000Y-70427002I0J249998D01*
G01*
G37*
%TD*%
%TO.C,R43*%
G36*
G01*
X62336000Y-66211000D02*
X62886000Y-66211000D01*
G75*
G02*
X63086000Y-66411000I0J-200000D01*
G01*
X63086000Y-66811000D01*
G75*
G02*
X62886000Y-67011000I-200000J0D01*
G01*
X62336000Y-67011000D01*
G75*
G02*
X62136000Y-66811000I0J200000D01*
G01*
X62136000Y-66411000D01*
G75*
G02*
X62336000Y-66211000I200000J0D01*
G01*
G37*
G36*
G01*
X62336000Y-64561000D02*
X62886000Y-64561000D01*
G75*
G02*
X63086000Y-64761000I0J-200000D01*
G01*
X63086000Y-65161000D01*
G75*
G02*
X62886000Y-65361000I-200000J0D01*
G01*
X62336000Y-65361000D01*
G75*
G02*
X62136000Y-65161000I0J200000D01*
G01*
X62136000Y-64761000D01*
G75*
G02*
X62336000Y-64561000I200000J0D01*
G01*
G37*
%TD*%
D24*
%TO.C,U6*%
X48090000Y-88773000D03*
X48090000Y-87823000D03*
X48090000Y-89723000D03*
X45890000Y-89723000D03*
X45890000Y-88773000D03*
X45890000Y-87823000D03*
%TD*%
%TO.C,U19*%
G36*
G01*
X21312000Y-61491000D02*
X21312000Y-61191000D01*
G75*
G02*
X21462000Y-61041000I150000J0D01*
G01*
X23112000Y-61041000D01*
G75*
G02*
X23262000Y-61191000I0J-150000D01*
G01*
X23262000Y-61491000D01*
G75*
G02*
X23112000Y-61641000I-150000J0D01*
G01*
X21462000Y-61641000D01*
G75*
G02*
X21312000Y-61491000I0J150000D01*
G01*
G37*
G36*
G01*
X21312000Y-62761000D02*
X21312000Y-62461000D01*
G75*
G02*
X21462000Y-62311000I150000J0D01*
G01*
X23112000Y-62311000D01*
G75*
G02*
X23262000Y-62461000I0J-150000D01*
G01*
X23262000Y-62761000D01*
G75*
G02*
X23112000Y-62911000I-150000J0D01*
G01*
X21462000Y-62911000D01*
G75*
G02*
X21312000Y-62761000I0J150000D01*
G01*
G37*
G36*
G01*
X21312000Y-64031000D02*
X21312000Y-63731000D01*
G75*
G02*
X21462000Y-63581000I150000J0D01*
G01*
X23112000Y-63581000D01*
G75*
G02*
X23262000Y-63731000I0J-150000D01*
G01*
X23262000Y-64031000D01*
G75*
G02*
X23112000Y-64181000I-150000J0D01*
G01*
X21462000Y-64181000D01*
G75*
G02*
X21312000Y-64031000I0J150000D01*
G01*
G37*
G36*
G01*
X21312000Y-65301000D02*
X21312000Y-65001000D01*
G75*
G02*
X21462000Y-64851000I150000J0D01*
G01*
X23112000Y-64851000D01*
G75*
G02*
X23262000Y-65001000I0J-150000D01*
G01*
X23262000Y-65301000D01*
G75*
G02*
X23112000Y-65451000I-150000J0D01*
G01*
X21462000Y-65451000D01*
G75*
G02*
X21312000Y-65301000I0J150000D01*
G01*
G37*
G36*
G01*
X16362000Y-65301000D02*
X16362000Y-65001000D01*
G75*
G02*
X16512000Y-64851000I150000J0D01*
G01*
X18162000Y-64851000D01*
G75*
G02*
X18312000Y-65001000I0J-150000D01*
G01*
X18312000Y-65301000D01*
G75*
G02*
X18162000Y-65451000I-150000J0D01*
G01*
X16512000Y-65451000D01*
G75*
G02*
X16362000Y-65301000I0J150000D01*
G01*
G37*
G36*
G01*
X16362000Y-64031000D02*
X16362000Y-63731000D01*
G75*
G02*
X16512000Y-63581000I150000J0D01*
G01*
X18162000Y-63581000D01*
G75*
G02*
X18312000Y-63731000I0J-150000D01*
G01*
X18312000Y-64031000D01*
G75*
G02*
X18162000Y-64181000I-150000J0D01*
G01*
X16512000Y-64181000D01*
G75*
G02*
X16362000Y-64031000I0J150000D01*
G01*
G37*
G36*
G01*
X16362000Y-62761000D02*
X16362000Y-62461000D01*
G75*
G02*
X16512000Y-62311000I150000J0D01*
G01*
X18162000Y-62311000D01*
G75*
G02*
X18312000Y-62461000I0J-150000D01*
G01*
X18312000Y-62761000D01*
G75*
G02*
X18162000Y-62911000I-150000J0D01*
G01*
X16512000Y-62911000D01*
G75*
G02*
X16362000Y-62761000I0J150000D01*
G01*
G37*
G36*
G01*
X16362000Y-61491000D02*
X16362000Y-61191000D01*
G75*
G02*
X16512000Y-61041000I150000J0D01*
G01*
X18162000Y-61041000D01*
G75*
G02*
X18312000Y-61191000I0J-150000D01*
G01*
X18312000Y-61491000D01*
G75*
G02*
X18162000Y-61641000I-150000J0D01*
G01*
X16512000Y-61641000D01*
G75*
G02*
X16362000Y-61491000I0J150000D01*
G01*
G37*
%TD*%
%TO.C,U17*%
G36*
G01*
X3325000Y-76986000D02*
X3025000Y-76986000D01*
G75*
G02*
X2875000Y-76836000I0J150000D01*
G01*
X2875000Y-75186000D01*
G75*
G02*
X3025000Y-75036000I150000J0D01*
G01*
X3325000Y-75036000D01*
G75*
G02*
X3475000Y-75186000I0J-150000D01*
G01*
X3475000Y-76836000D01*
G75*
G02*
X3325000Y-76986000I-150000J0D01*
G01*
G37*
G36*
G01*
X4595000Y-76986000D02*
X4295000Y-76986000D01*
G75*
G02*
X4145000Y-76836000I0J150000D01*
G01*
X4145000Y-75186000D01*
G75*
G02*
X4295000Y-75036000I150000J0D01*
G01*
X4595000Y-75036000D01*
G75*
G02*
X4745000Y-75186000I0J-150000D01*
G01*
X4745000Y-76836000D01*
G75*
G02*
X4595000Y-76986000I-150000J0D01*
G01*
G37*
G36*
G01*
X5865000Y-76986000D02*
X5565000Y-76986000D01*
G75*
G02*
X5415000Y-76836000I0J150000D01*
G01*
X5415000Y-75186000D01*
G75*
G02*
X5565000Y-75036000I150000J0D01*
G01*
X5865000Y-75036000D01*
G75*
G02*
X6015000Y-75186000I0J-150000D01*
G01*
X6015000Y-76836000D01*
G75*
G02*
X5865000Y-76986000I-150000J0D01*
G01*
G37*
G36*
G01*
X7135000Y-76986000D02*
X6835000Y-76986000D01*
G75*
G02*
X6685000Y-76836000I0J150000D01*
G01*
X6685000Y-75186000D01*
G75*
G02*
X6835000Y-75036000I150000J0D01*
G01*
X7135000Y-75036000D01*
G75*
G02*
X7285000Y-75186000I0J-150000D01*
G01*
X7285000Y-76836000D01*
G75*
G02*
X7135000Y-76986000I-150000J0D01*
G01*
G37*
G36*
G01*
X7135000Y-81936000D02*
X6835000Y-81936000D01*
G75*
G02*
X6685000Y-81786000I0J150000D01*
G01*
X6685000Y-80136000D01*
G75*
G02*
X6835000Y-79986000I150000J0D01*
G01*
X7135000Y-79986000D01*
G75*
G02*
X7285000Y-80136000I0J-150000D01*
G01*
X7285000Y-81786000D01*
G75*
G02*
X7135000Y-81936000I-150000J0D01*
G01*
G37*
G36*
G01*
X5865000Y-81936000D02*
X5565000Y-81936000D01*
G75*
G02*
X5415000Y-81786000I0J150000D01*
G01*
X5415000Y-80136000D01*
G75*
G02*
X5565000Y-79986000I150000J0D01*
G01*
X5865000Y-79986000D01*
G75*
G02*
X6015000Y-80136000I0J-150000D01*
G01*
X6015000Y-81786000D01*
G75*
G02*
X5865000Y-81936000I-150000J0D01*
G01*
G37*
G36*
G01*
X4595000Y-81936000D02*
X4295000Y-81936000D01*
G75*
G02*
X4145000Y-81786000I0J150000D01*
G01*
X4145000Y-80136000D01*
G75*
G02*
X4295000Y-79986000I150000J0D01*
G01*
X4595000Y-79986000D01*
G75*
G02*
X4745000Y-80136000I0J-150000D01*
G01*
X4745000Y-81786000D01*
G75*
G02*
X4595000Y-81936000I-150000J0D01*
G01*
G37*
G36*
G01*
X3325000Y-81936000D02*
X3025000Y-81936000D01*
G75*
G02*
X2875000Y-81786000I0J150000D01*
G01*
X2875000Y-80136000D01*
G75*
G02*
X3025000Y-79986000I150000J0D01*
G01*
X3325000Y-79986000D01*
G75*
G02*
X3475000Y-80136000I0J-150000D01*
G01*
X3475000Y-81786000D01*
G75*
G02*
X3325000Y-81936000I-150000J0D01*
G01*
G37*
%TD*%
%TO.C,U13*%
G36*
G01*
X29233000Y-91972000D02*
X28933000Y-91972000D01*
G75*
G02*
X28783000Y-91822000I0J150000D01*
G01*
X28783000Y-90172000D01*
G75*
G02*
X28933000Y-90022000I150000J0D01*
G01*
X29233000Y-90022000D01*
G75*
G02*
X29383000Y-90172000I0J-150000D01*
G01*
X29383000Y-91822000D01*
G75*
G02*
X29233000Y-91972000I-150000J0D01*
G01*
G37*
G36*
G01*
X30503000Y-91972000D02*
X30203000Y-91972000D01*
G75*
G02*
X30053000Y-91822000I0J150000D01*
G01*
X30053000Y-90172000D01*
G75*
G02*
X30203000Y-90022000I150000J0D01*
G01*
X30503000Y-90022000D01*
G75*
G02*
X30653000Y-90172000I0J-150000D01*
G01*
X30653000Y-91822000D01*
G75*
G02*
X30503000Y-91972000I-150000J0D01*
G01*
G37*
G36*
G01*
X31773000Y-91972000D02*
X31473000Y-91972000D01*
G75*
G02*
X31323000Y-91822000I0J150000D01*
G01*
X31323000Y-90172000D01*
G75*
G02*
X31473000Y-90022000I150000J0D01*
G01*
X31773000Y-90022000D01*
G75*
G02*
X31923000Y-90172000I0J-150000D01*
G01*
X31923000Y-91822000D01*
G75*
G02*
X31773000Y-91972000I-150000J0D01*
G01*
G37*
G36*
G01*
X33043000Y-91972000D02*
X32743000Y-91972000D01*
G75*
G02*
X32593000Y-91822000I0J150000D01*
G01*
X32593000Y-90172000D01*
G75*
G02*
X32743000Y-90022000I150000J0D01*
G01*
X33043000Y-90022000D01*
G75*
G02*
X33193000Y-90172000I0J-150000D01*
G01*
X33193000Y-91822000D01*
G75*
G02*
X33043000Y-91972000I-150000J0D01*
G01*
G37*
G36*
G01*
X34313000Y-91972000D02*
X34013000Y-91972000D01*
G75*
G02*
X33863000Y-91822000I0J150000D01*
G01*
X33863000Y-90172000D01*
G75*
G02*
X34013000Y-90022000I150000J0D01*
G01*
X34313000Y-90022000D01*
G75*
G02*
X34463000Y-90172000I0J-150000D01*
G01*
X34463000Y-91822000D01*
G75*
G02*
X34313000Y-91972000I-150000J0D01*
G01*
G37*
G36*
G01*
X35583000Y-91972000D02*
X35283000Y-91972000D01*
G75*
G02*
X35133000Y-91822000I0J150000D01*
G01*
X35133000Y-90172000D01*
G75*
G02*
X35283000Y-90022000I150000J0D01*
G01*
X35583000Y-90022000D01*
G75*
G02*
X35733000Y-90172000I0J-150000D01*
G01*
X35733000Y-91822000D01*
G75*
G02*
X35583000Y-91972000I-150000J0D01*
G01*
G37*
G36*
G01*
X36853000Y-91972000D02*
X36553000Y-91972000D01*
G75*
G02*
X36403000Y-91822000I0J150000D01*
G01*
X36403000Y-90172000D01*
G75*
G02*
X36553000Y-90022000I150000J0D01*
G01*
X36853000Y-90022000D01*
G75*
G02*
X37003000Y-90172000I0J-150000D01*
G01*
X37003000Y-91822000D01*
G75*
G02*
X36853000Y-91972000I-150000J0D01*
G01*
G37*
G36*
G01*
X38123000Y-91972000D02*
X37823000Y-91972000D01*
G75*
G02*
X37673000Y-91822000I0J150000D01*
G01*
X37673000Y-90172000D01*
G75*
G02*
X37823000Y-90022000I150000J0D01*
G01*
X38123000Y-90022000D01*
G75*
G02*
X38273000Y-90172000I0J-150000D01*
G01*
X38273000Y-91822000D01*
G75*
G02*
X38123000Y-91972000I-150000J0D01*
G01*
G37*
G36*
G01*
X38123000Y-96922000D02*
X37823000Y-96922000D01*
G75*
G02*
X37673000Y-96772000I0J150000D01*
G01*
X37673000Y-95122000D01*
G75*
G02*
X37823000Y-94972000I150000J0D01*
G01*
X38123000Y-94972000D01*
G75*
G02*
X38273000Y-95122000I0J-150000D01*
G01*
X38273000Y-96772000D01*
G75*
G02*
X38123000Y-96922000I-150000J0D01*
G01*
G37*
G36*
G01*
X36853000Y-96922000D02*
X36553000Y-96922000D01*
G75*
G02*
X36403000Y-96772000I0J150000D01*
G01*
X36403000Y-95122000D01*
G75*
G02*
X36553000Y-94972000I150000J0D01*
G01*
X36853000Y-94972000D01*
G75*
G02*
X37003000Y-95122000I0J-150000D01*
G01*
X37003000Y-96772000D01*
G75*
G02*
X36853000Y-96922000I-150000J0D01*
G01*
G37*
G36*
G01*
X35583000Y-96922000D02*
X35283000Y-96922000D01*
G75*
G02*
X35133000Y-96772000I0J150000D01*
G01*
X35133000Y-95122000D01*
G75*
G02*
X35283000Y-94972000I150000J0D01*
G01*
X35583000Y-94972000D01*
G75*
G02*
X35733000Y-95122000I0J-150000D01*
G01*
X35733000Y-96772000D01*
G75*
G02*
X35583000Y-96922000I-150000J0D01*
G01*
G37*
G36*
G01*
X34313000Y-96922000D02*
X34013000Y-96922000D01*
G75*
G02*
X33863000Y-96772000I0J150000D01*
G01*
X33863000Y-95122000D01*
G75*
G02*
X34013000Y-94972000I150000J0D01*
G01*
X34313000Y-94972000D01*
G75*
G02*
X34463000Y-95122000I0J-150000D01*
G01*
X34463000Y-96772000D01*
G75*
G02*
X34313000Y-96922000I-150000J0D01*
G01*
G37*
G36*
G01*
X33043000Y-96922000D02*
X32743000Y-96922000D01*
G75*
G02*
X32593000Y-96772000I0J150000D01*
G01*
X32593000Y-95122000D01*
G75*
G02*
X32743000Y-94972000I150000J0D01*
G01*
X33043000Y-94972000D01*
G75*
G02*
X33193000Y-95122000I0J-150000D01*
G01*
X33193000Y-96772000D01*
G75*
G02*
X33043000Y-96922000I-150000J0D01*
G01*
G37*
G36*
G01*
X31773000Y-96922000D02*
X31473000Y-96922000D01*
G75*
G02*
X31323000Y-96772000I0J150000D01*
G01*
X31323000Y-95122000D01*
G75*
G02*
X31473000Y-94972000I150000J0D01*
G01*
X31773000Y-94972000D01*
G75*
G02*
X31923000Y-95122000I0J-150000D01*
G01*
X31923000Y-96772000D01*
G75*
G02*
X31773000Y-96922000I-150000J0D01*
G01*
G37*
G36*
G01*
X30503000Y-96922000D02*
X30203000Y-96922000D01*
G75*
G02*
X30053000Y-96772000I0J150000D01*
G01*
X30053000Y-95122000D01*
G75*
G02*
X30203000Y-94972000I150000J0D01*
G01*
X30503000Y-94972000D01*
G75*
G02*
X30653000Y-95122000I0J-150000D01*
G01*
X30653000Y-96772000D01*
G75*
G02*
X30503000Y-96922000I-150000J0D01*
G01*
G37*
G36*
G01*
X29233000Y-96922000D02*
X28933000Y-96922000D01*
G75*
G02*
X28783000Y-96772000I0J150000D01*
G01*
X28783000Y-95122000D01*
G75*
G02*
X28933000Y-94972000I150000J0D01*
G01*
X29233000Y-94972000D01*
G75*
G02*
X29383000Y-95122000I0J-150000D01*
G01*
X29383000Y-96772000D01*
G75*
G02*
X29233000Y-96922000I-150000J0D01*
G01*
G37*
%TD*%
%TO.C,U15*%
G36*
G01*
X15470000Y-79779000D02*
X15470000Y-79479000D01*
G75*
G02*
X15620000Y-79329000I150000J0D01*
G01*
X17270000Y-79329000D01*
G75*
G02*
X17420000Y-79479000I0J-150000D01*
G01*
X17420000Y-79779000D01*
G75*
G02*
X17270000Y-79929000I-150000J0D01*
G01*
X15620000Y-79929000D01*
G75*
G02*
X15470000Y-79779000I0J150000D01*
G01*
G37*
G36*
G01*
X15470000Y-81049000D02*
X15470000Y-80749000D01*
G75*
G02*
X15620000Y-80599000I150000J0D01*
G01*
X17270000Y-80599000D01*
G75*
G02*
X17420000Y-80749000I0J-150000D01*
G01*
X17420000Y-81049000D01*
G75*
G02*
X17270000Y-81199000I-150000J0D01*
G01*
X15620000Y-81199000D01*
G75*
G02*
X15470000Y-81049000I0J150000D01*
G01*
G37*
G36*
G01*
X15470000Y-82319000D02*
X15470000Y-82019000D01*
G75*
G02*
X15620000Y-81869000I150000J0D01*
G01*
X17270000Y-81869000D01*
G75*
G02*
X17420000Y-82019000I0J-150000D01*
G01*
X17420000Y-82319000D01*
G75*
G02*
X17270000Y-82469000I-150000J0D01*
G01*
X15620000Y-82469000D01*
G75*
G02*
X15470000Y-82319000I0J150000D01*
G01*
G37*
G36*
G01*
X15470000Y-83589000D02*
X15470000Y-83289000D01*
G75*
G02*
X15620000Y-83139000I150000J0D01*
G01*
X17270000Y-83139000D01*
G75*
G02*
X17420000Y-83289000I0J-150000D01*
G01*
X17420000Y-83589000D01*
G75*
G02*
X17270000Y-83739000I-150000J0D01*
G01*
X15620000Y-83739000D01*
G75*
G02*
X15470000Y-83589000I0J150000D01*
G01*
G37*
G36*
G01*
X15470000Y-84859000D02*
X15470000Y-84559000D01*
G75*
G02*
X15620000Y-84409000I150000J0D01*
G01*
X17270000Y-84409000D01*
G75*
G02*
X17420000Y-84559000I0J-150000D01*
G01*
X17420000Y-84859000D01*
G75*
G02*
X17270000Y-85009000I-150000J0D01*
G01*
X15620000Y-85009000D01*
G75*
G02*
X15470000Y-84859000I0J150000D01*
G01*
G37*
G36*
G01*
X15470000Y-86129000D02*
X15470000Y-85829000D01*
G75*
G02*
X15620000Y-85679000I150000J0D01*
G01*
X17270000Y-85679000D01*
G75*
G02*
X17420000Y-85829000I0J-150000D01*
G01*
X17420000Y-86129000D01*
G75*
G02*
X17270000Y-86279000I-150000J0D01*
G01*
X15620000Y-86279000D01*
G75*
G02*
X15470000Y-86129000I0J150000D01*
G01*
G37*
G36*
G01*
X15470000Y-87399000D02*
X15470000Y-87099000D01*
G75*
G02*
X15620000Y-86949000I150000J0D01*
G01*
X17270000Y-86949000D01*
G75*
G02*
X17420000Y-87099000I0J-150000D01*
G01*
X17420000Y-87399000D01*
G75*
G02*
X17270000Y-87549000I-150000J0D01*
G01*
X15620000Y-87549000D01*
G75*
G02*
X15470000Y-87399000I0J150000D01*
G01*
G37*
G36*
G01*
X15470000Y-88669000D02*
X15470000Y-88369000D01*
G75*
G02*
X15620000Y-88219000I150000J0D01*
G01*
X17270000Y-88219000D01*
G75*
G02*
X17420000Y-88369000I0J-150000D01*
G01*
X17420000Y-88669000D01*
G75*
G02*
X17270000Y-88819000I-150000J0D01*
G01*
X15620000Y-88819000D01*
G75*
G02*
X15470000Y-88669000I0J150000D01*
G01*
G37*
G36*
G01*
X10520000Y-88669000D02*
X10520000Y-88369000D01*
G75*
G02*
X10670000Y-88219000I150000J0D01*
G01*
X12320000Y-88219000D01*
G75*
G02*
X12470000Y-88369000I0J-150000D01*
G01*
X12470000Y-88669000D01*
G75*
G02*
X12320000Y-88819000I-150000J0D01*
G01*
X10670000Y-88819000D01*
G75*
G02*
X10520000Y-88669000I0J150000D01*
G01*
G37*
G36*
G01*
X10520000Y-87399000D02*
X10520000Y-87099000D01*
G75*
G02*
X10670000Y-86949000I150000J0D01*
G01*
X12320000Y-86949000D01*
G75*
G02*
X12470000Y-87099000I0J-150000D01*
G01*
X12470000Y-87399000D01*
G75*
G02*
X12320000Y-87549000I-150000J0D01*
G01*
X10670000Y-87549000D01*
G75*
G02*
X10520000Y-87399000I0J150000D01*
G01*
G37*
G36*
G01*
X10520000Y-86129000D02*
X10520000Y-85829000D01*
G75*
G02*
X10670000Y-85679000I150000J0D01*
G01*
X12320000Y-85679000D01*
G75*
G02*
X12470000Y-85829000I0J-150000D01*
G01*
X12470000Y-86129000D01*
G75*
G02*
X12320000Y-86279000I-150000J0D01*
G01*
X10670000Y-86279000D01*
G75*
G02*
X10520000Y-86129000I0J150000D01*
G01*
G37*
G36*
G01*
X10520000Y-84859000D02*
X10520000Y-84559000D01*
G75*
G02*
X10670000Y-84409000I150000J0D01*
G01*
X12320000Y-84409000D01*
G75*
G02*
X12470000Y-84559000I0J-150000D01*
G01*
X12470000Y-84859000D01*
G75*
G02*
X12320000Y-85009000I-150000J0D01*
G01*
X10670000Y-85009000D01*
G75*
G02*
X10520000Y-84859000I0J150000D01*
G01*
G37*
G36*
G01*
X10520000Y-83589000D02*
X10520000Y-83289000D01*
G75*
G02*
X10670000Y-83139000I150000J0D01*
G01*
X12320000Y-83139000D01*
G75*
G02*
X12470000Y-83289000I0J-150000D01*
G01*
X12470000Y-83589000D01*
G75*
G02*
X12320000Y-83739000I-150000J0D01*
G01*
X10670000Y-83739000D01*
G75*
G02*
X10520000Y-83589000I0J150000D01*
G01*
G37*
G36*
G01*
X10520000Y-82319000D02*
X10520000Y-82019000D01*
G75*
G02*
X10670000Y-81869000I150000J0D01*
G01*
X12320000Y-81869000D01*
G75*
G02*
X12470000Y-82019000I0J-150000D01*
G01*
X12470000Y-82319000D01*
G75*
G02*
X12320000Y-82469000I-150000J0D01*
G01*
X10670000Y-82469000D01*
G75*
G02*
X10520000Y-82319000I0J150000D01*
G01*
G37*
G36*
G01*
X10520000Y-81049000D02*
X10520000Y-80749000D01*
G75*
G02*
X10670000Y-80599000I150000J0D01*
G01*
X12320000Y-80599000D01*
G75*
G02*
X12470000Y-80749000I0J-150000D01*
G01*
X12470000Y-81049000D01*
G75*
G02*
X12320000Y-81199000I-150000J0D01*
G01*
X10670000Y-81199000D01*
G75*
G02*
X10520000Y-81049000I0J150000D01*
G01*
G37*
G36*
G01*
X10520000Y-79779000D02*
X10520000Y-79479000D01*
G75*
G02*
X10670000Y-79329000I150000J0D01*
G01*
X12320000Y-79329000D01*
G75*
G02*
X12470000Y-79479000I0J-150000D01*
G01*
X12470000Y-79779000D01*
G75*
G02*
X12320000Y-79929000I-150000J0D01*
G01*
X10670000Y-79929000D01*
G75*
G02*
X10520000Y-79779000I0J150000D01*
G01*
G37*
%TD*%
%TO.C,U14*%
G36*
G01*
X16406000Y-91845000D02*
X16106000Y-91845000D01*
G75*
G02*
X15956000Y-91695000I0J150000D01*
G01*
X15956000Y-90045000D01*
G75*
G02*
X16106000Y-89895000I150000J0D01*
G01*
X16406000Y-89895000D01*
G75*
G02*
X16556000Y-90045000I0J-150000D01*
G01*
X16556000Y-91695000D01*
G75*
G02*
X16406000Y-91845000I-150000J0D01*
G01*
G37*
G36*
G01*
X17676000Y-91845000D02*
X17376000Y-91845000D01*
G75*
G02*
X17226000Y-91695000I0J150000D01*
G01*
X17226000Y-90045000D01*
G75*
G02*
X17376000Y-89895000I150000J0D01*
G01*
X17676000Y-89895000D01*
G75*
G02*
X17826000Y-90045000I0J-150000D01*
G01*
X17826000Y-91695000D01*
G75*
G02*
X17676000Y-91845000I-150000J0D01*
G01*
G37*
G36*
G01*
X18946000Y-91845000D02*
X18646000Y-91845000D01*
G75*
G02*
X18496000Y-91695000I0J150000D01*
G01*
X18496000Y-90045000D01*
G75*
G02*
X18646000Y-89895000I150000J0D01*
G01*
X18946000Y-89895000D01*
G75*
G02*
X19096000Y-90045000I0J-150000D01*
G01*
X19096000Y-91695000D01*
G75*
G02*
X18946000Y-91845000I-150000J0D01*
G01*
G37*
G36*
G01*
X20216000Y-91845000D02*
X19916000Y-91845000D01*
G75*
G02*
X19766000Y-91695000I0J150000D01*
G01*
X19766000Y-90045000D01*
G75*
G02*
X19916000Y-89895000I150000J0D01*
G01*
X20216000Y-89895000D01*
G75*
G02*
X20366000Y-90045000I0J-150000D01*
G01*
X20366000Y-91695000D01*
G75*
G02*
X20216000Y-91845000I-150000J0D01*
G01*
G37*
G36*
G01*
X21486000Y-91845000D02*
X21186000Y-91845000D01*
G75*
G02*
X21036000Y-91695000I0J150000D01*
G01*
X21036000Y-90045000D01*
G75*
G02*
X21186000Y-89895000I150000J0D01*
G01*
X21486000Y-89895000D01*
G75*
G02*
X21636000Y-90045000I0J-150000D01*
G01*
X21636000Y-91695000D01*
G75*
G02*
X21486000Y-91845000I-150000J0D01*
G01*
G37*
G36*
G01*
X22756000Y-91845000D02*
X22456000Y-91845000D01*
G75*
G02*
X22306000Y-91695000I0J150000D01*
G01*
X22306000Y-90045000D01*
G75*
G02*
X22456000Y-89895000I150000J0D01*
G01*
X22756000Y-89895000D01*
G75*
G02*
X22906000Y-90045000I0J-150000D01*
G01*
X22906000Y-91695000D01*
G75*
G02*
X22756000Y-91845000I-150000J0D01*
G01*
G37*
G36*
G01*
X24026000Y-91845000D02*
X23726000Y-91845000D01*
G75*
G02*
X23576000Y-91695000I0J150000D01*
G01*
X23576000Y-90045000D01*
G75*
G02*
X23726000Y-89895000I150000J0D01*
G01*
X24026000Y-89895000D01*
G75*
G02*
X24176000Y-90045000I0J-150000D01*
G01*
X24176000Y-91695000D01*
G75*
G02*
X24026000Y-91845000I-150000J0D01*
G01*
G37*
G36*
G01*
X25296000Y-91845000D02*
X24996000Y-91845000D01*
G75*
G02*
X24846000Y-91695000I0J150000D01*
G01*
X24846000Y-90045000D01*
G75*
G02*
X24996000Y-89895000I150000J0D01*
G01*
X25296000Y-89895000D01*
G75*
G02*
X25446000Y-90045000I0J-150000D01*
G01*
X25446000Y-91695000D01*
G75*
G02*
X25296000Y-91845000I-150000J0D01*
G01*
G37*
G36*
G01*
X25296000Y-96795000D02*
X24996000Y-96795000D01*
G75*
G02*
X24846000Y-96645000I0J150000D01*
G01*
X24846000Y-94995000D01*
G75*
G02*
X24996000Y-94845000I150000J0D01*
G01*
X25296000Y-94845000D01*
G75*
G02*
X25446000Y-94995000I0J-150000D01*
G01*
X25446000Y-96645000D01*
G75*
G02*
X25296000Y-96795000I-150000J0D01*
G01*
G37*
G36*
G01*
X24026000Y-96795000D02*
X23726000Y-96795000D01*
G75*
G02*
X23576000Y-96645000I0J150000D01*
G01*
X23576000Y-94995000D01*
G75*
G02*
X23726000Y-94845000I150000J0D01*
G01*
X24026000Y-94845000D01*
G75*
G02*
X24176000Y-94995000I0J-150000D01*
G01*
X24176000Y-96645000D01*
G75*
G02*
X24026000Y-96795000I-150000J0D01*
G01*
G37*
G36*
G01*
X22756000Y-96795000D02*
X22456000Y-96795000D01*
G75*
G02*
X22306000Y-96645000I0J150000D01*
G01*
X22306000Y-94995000D01*
G75*
G02*
X22456000Y-94845000I150000J0D01*
G01*
X22756000Y-94845000D01*
G75*
G02*
X22906000Y-94995000I0J-150000D01*
G01*
X22906000Y-96645000D01*
G75*
G02*
X22756000Y-96795000I-150000J0D01*
G01*
G37*
G36*
G01*
X21486000Y-96795000D02*
X21186000Y-96795000D01*
G75*
G02*
X21036000Y-96645000I0J150000D01*
G01*
X21036000Y-94995000D01*
G75*
G02*
X21186000Y-94845000I150000J0D01*
G01*
X21486000Y-94845000D01*
G75*
G02*
X21636000Y-94995000I0J-150000D01*
G01*
X21636000Y-96645000D01*
G75*
G02*
X21486000Y-96795000I-150000J0D01*
G01*
G37*
G36*
G01*
X20216000Y-96795000D02*
X19916000Y-96795000D01*
G75*
G02*
X19766000Y-96645000I0J150000D01*
G01*
X19766000Y-94995000D01*
G75*
G02*
X19916000Y-94845000I150000J0D01*
G01*
X20216000Y-94845000D01*
G75*
G02*
X20366000Y-94995000I0J-150000D01*
G01*
X20366000Y-96645000D01*
G75*
G02*
X20216000Y-96795000I-150000J0D01*
G01*
G37*
G36*
G01*
X18946000Y-96795000D02*
X18646000Y-96795000D01*
G75*
G02*
X18496000Y-96645000I0J150000D01*
G01*
X18496000Y-94995000D01*
G75*
G02*
X18646000Y-94845000I150000J0D01*
G01*
X18946000Y-94845000D01*
G75*
G02*
X19096000Y-94995000I0J-150000D01*
G01*
X19096000Y-96645000D01*
G75*
G02*
X18946000Y-96795000I-150000J0D01*
G01*
G37*
G36*
G01*
X17676000Y-96795000D02*
X17376000Y-96795000D01*
G75*
G02*
X17226000Y-96645000I0J150000D01*
G01*
X17226000Y-94995000D01*
G75*
G02*
X17376000Y-94845000I150000J0D01*
G01*
X17676000Y-94845000D01*
G75*
G02*
X17826000Y-94995000I0J-150000D01*
G01*
X17826000Y-96645000D01*
G75*
G02*
X17676000Y-96795000I-150000J0D01*
G01*
G37*
G36*
G01*
X16406000Y-96795000D02*
X16106000Y-96795000D01*
G75*
G02*
X15956000Y-96645000I0J150000D01*
G01*
X15956000Y-94995000D01*
G75*
G02*
X16106000Y-94845000I150000J0D01*
G01*
X16406000Y-94845000D01*
G75*
G02*
X16556000Y-94995000I0J-150000D01*
G01*
X16556000Y-96645000D01*
G75*
G02*
X16406000Y-96795000I-150000J0D01*
G01*
G37*
%TD*%
D25*
%TO.C,U1*%
X53500000Y-1745000D03*
X53500000Y-3015000D03*
X53500000Y-4285000D03*
X53500000Y-5555000D03*
X53500000Y-6825000D03*
X53500000Y-8095000D03*
X53500000Y-9365000D03*
X53500000Y-10635000D03*
X53500000Y-11905000D03*
X53500000Y-13175000D03*
X53500000Y-14445000D03*
X53500000Y-15715000D03*
X53500000Y-16985000D03*
X53500000Y-18255000D03*
D26*
X50715000Y-19255000D03*
X49445000Y-19255000D03*
X48175000Y-19255000D03*
X46905000Y-19255000D03*
X45635000Y-19255000D03*
X44365000Y-19255000D03*
X43095000Y-19255000D03*
X41825000Y-19255000D03*
X40555000Y-19255000D03*
X39285000Y-19255000D03*
D25*
X36500000Y-18255000D03*
X36500000Y-16985000D03*
X36500000Y-15715000D03*
X36500000Y-14445000D03*
X36500000Y-13175000D03*
X36500000Y-11905000D03*
X36500000Y-10635000D03*
X36500000Y-9365000D03*
X36500000Y-8095000D03*
X36500000Y-6825000D03*
X36500000Y-5555000D03*
X36500000Y-4285000D03*
X36500000Y-3015000D03*
X36500000Y-1745000D03*
D27*
X44000000Y-9245000D03*
%TD*%
M02*
