M48
; DRILL file {KiCad (5.1.9)-1} date 03/19/21 23:07:47
; FORMAT={-:-/ absolute / inch / decimal}
; #@! TF.CreationDate,2021-03-19T23:07:47+01:00
; #@! TF.GenerationSoftware,Kicad,Pcbnew,(5.1.9)-1
; #@! TF.FileFunction,Plated,1,2,PTH
FMAT,2
INCH
T1C0.0079
T2C0.0118
T3C0.0130
T4C0.0157
T5C0.0197
T6C0.0236
T7C0.0276
T8C0.0315
T9C0.0354
T10C0.0374
T11C0.0394
T12C0.0591
T13C0.0787
%
G90
G05
T1
X3.2721Y-0.4072
X3.2721Y-0.4624
X3.2798Y-3.295
X3.3093Y-3.2645
X3.3093Y-3.295
X3.3093Y-3.3255
X3.3115Y-0.4072
X3.3115Y-0.4624
X3.3507Y-3.2645
X3.3507Y-3.295
X3.3507Y-3.3255
X3.3509Y-0.4072
X3.3509Y-0.4624
X3.3802Y-3.295
T2
X0.26Y-3.645
X0.31Y-0.7
X0.315Y-0.615
X0.33Y-2.15
X0.39Y-3.385
X0.39Y-3.435
X0.39Y-3.485
X0.435Y-2.94
X0.575Y-3.67
X0.615Y-1.87
X0.63Y-1.485
X0.71Y-3.075
X0.735Y-1.915
X0.82Y-1.495
X0.91Y-3.295
X0.915Y-3.495
X0.95Y-1.88
X0.975Y-1.485
X1.01Y-0.865
X1.0142Y-0.5807
X1.03Y-0.76
X1.065Y-3.395
X1.07Y-1.9
X1.08Y-3.67
X1.085Y-1.785
X1.165Y-0.5405
X1.17Y-0.08
X1.2Y-3.23
X1.205Y-1.79
X1.26Y-0.765
X1.5375Y-0.0675
X1.55Y-0.66
X1.6575Y-0.2875
X1.6575Y-0.3125
X1.6575Y-0.3375
X1.6575Y-0.3625
X1.6575Y-0.3875
X1.6575Y-0.4125
X1.6575Y-0.4375
X1.6825Y-0.2875
X1.6825Y-0.3125
X1.6825Y-0.3375
X1.6825Y-0.3625
X1.6825Y-0.3875
X1.6825Y-0.4125
X1.6825Y-0.4375
X1.69Y-3.415
X1.7075Y-0.2875
X1.7075Y-0.3125
X1.7075Y-0.3375
X1.7075Y-0.3625
X1.7075Y-0.3875
X1.7075Y-0.4125
X1.7075Y-0.4375
X1.7325Y-0.2875
X1.7325Y-0.3125
X1.7325Y-0.3375
X1.7325Y-0.3625
X1.7325Y-0.3875
X1.7325Y-0.4125
X1.7325Y-0.4375
X1.755Y-3.295
X1.7575Y-0.2875
X1.7575Y-0.3125
X1.7575Y-0.3375
X1.7575Y-0.3625
X1.7575Y-0.3875
X1.7575Y-0.4125
X1.7575Y-0.4375
X1.765Y-3.495
X1.765Y-3.65
X1.7825Y-0.2875
X1.7825Y-0.3125
X1.7825Y-0.3375
X1.7825Y-0.3625
X1.7825Y-0.3875
X1.7825Y-0.4125
X1.7825Y-0.4375
X1.8075Y-0.2875
X1.8075Y-0.3125
X1.8075Y-0.3375
X1.8075Y-0.3625
X1.8075Y-0.3875
X1.8075Y-0.4125
X1.8075Y-0.4375
X1.835Y-3.6
X1.855Y-1.535
X1.915Y-1.605
X2.005Y-0.07
X2.38Y-0.91
X2.535Y-1.015
X2.705Y-1.99
X2.8932Y-0.994
X2.8993Y-0.9281
X2.9245Y-0.9982
X2.935Y-0.93
X2.9526Y-0.5099
X2.96Y-1.13
X3.0048Y-0.51
X3.015Y-2.145
X3.03Y-1.16
X3.065Y-2.805
X3.115Y-3.28
X3.16Y-3.405
X3.43Y-3.61
X3.445Y-3.465
X3.45Y-3.4153
X3.5Y-3.77
X3.51Y-3.34
X3.51Y-3.6
T3
X0.3038Y-1.91
X0.3038Y-1.9612
X0.355Y-1.91
X0.355Y-1.9612
X0.4062Y-1.91
X0.4062Y-1.9612
X2.9838Y-1.9144
X2.9838Y-1.9656
X3.035Y-1.9144
X3.035Y-1.9656
X3.0862Y-1.9144
X3.0862Y-1.9656
T4
X2.4625Y-0.89
X2.5675Y-0.8275
X2.73Y-0.265
X2.815Y-0.405
X2.815Y-0.465
X2.855Y-0.1
X3.0425Y-0.78
X3.125Y-0.1
X3.16Y-0.405
X3.16Y-0.465
X3.52Y-0.35
T5
X0.36Y-2.67
X0.535Y-1.615
X1.285Y-0.84
X2.59Y-2.77
X2.655Y-3.155
X3.185Y-1.735
T6
X1.4217Y-1.3976
X1.4217Y-2.3425
X1.5217Y-1.3976
X1.5217Y-2.3425
X1.6217Y-1.3976
X1.6217Y-2.3425
X1.7217Y-1.3976
X1.7217Y-2.3425
X1.8217Y-1.3976
X1.8217Y-2.3425
X1.9217Y-1.3976
X1.9217Y-2.3425
X2.0217Y-1.3976
X2.0217Y-2.3425
X2.1217Y-1.3976
X2.1217Y-2.3425
T7
X1.65Y-0.91
X3.035Y-2.28
X3.1Y-2.28
T8
X1.625Y-2.955
X1.7628Y-2.955
X1.815Y-1.075
X1.815Y-1.1537
X1.99Y-2.9713
X1.99Y-3.05
X2.6829Y-0.855
X2.875Y-0.855
X3.0022Y-2.5
X3.14Y-2.5
X3.195Y-3.765
X3.3328Y-3.765
X3.3713Y-0.115
X3.45Y-0.115
T9
X1.965Y-2.58
X1.965Y-2.68
X2.34Y-2.58
X2.34Y-2.68
X3.275Y-0.67
X3.275Y-0.77
X3.455Y-0.67
X3.455Y-0.77
T10
X0.375Y-1.035
X0.3754Y-1.305
X0.4734Y-1.035
X0.4738Y-1.305
X0.5719Y-1.035
X0.5722Y-1.305
X0.6703Y-1.035
X0.6706Y-1.305
X0.7687Y-1.035
X0.7691Y-1.305
X0.8671Y-1.035
X0.8675Y-1.305
T11
X0.1Y-2.265
X0.1Y-2.365
X0.1Y-2.465
X0.2Y-2.265
X0.2Y-2.365
X0.2Y-2.465
X0.245Y-0.0958
X0.245Y-0.395
X0.3Y-2.265
X0.3Y-2.365
X0.3Y-2.465
X0.355Y-1.54
X0.355Y-1.6384
X0.6299Y-0.675
X0.7016Y-1.625
X0.7016Y-2.01
X0.7283Y-0.675
X0.8Y-1.625
X0.8Y-2.01
X0.8268Y-0.675
X1.0366Y-1.625
X1.0366Y-2.01
X1.135Y-1.625
X1.135Y-2.01
X1.1886Y-2.89
X1.1886Y-2.99
X1.4051Y-2.89
X1.4051Y-2.99
X1.93Y-0.925
X2.075Y-0.955
X2.075Y-1.1322
X2.2086Y-2.89
X2.2086Y-2.99
X2.3309Y-0.955
X2.3309Y-1.1322
X2.355Y-0.1041
X2.355Y-0.675
X2.4251Y-2.89
X2.4251Y-2.99
X2.4534Y-0.675
X2.48Y-1.805
X2.48Y-1.905
X2.48Y-2.005
X2.48Y-2.105
X2.48Y-2.205
X2.5519Y-0.1041
X2.5519Y-0.675
X2.58Y-1.805
X2.58Y-1.905
X2.58Y-2.005
X2.58Y-2.105
X2.58Y-2.205
X3.095Y-0.59
X3.095Y-0.69
X3.115Y-1.5316
X3.115Y-1.63
T13
X0.1304Y-3.525
X2.965Y-3.525
T6
G00X2.8186Y-0.1255
M15
G01X2.8186Y-0.1019
M16
G05
G00X2.8186Y-0.2999
M15
G01X2.8186Y-0.2566
M16
G05
G00X3.1588Y-0.1255
M15
G01X3.1588Y-0.1019
M16
G05
G00X3.1588Y-0.2999
M15
G01X3.1588Y-0.2566
M16
G05
T9
G00X3.3497Y-2.18
M15
G01X3.4403Y-2.18
M16
G05
G00X3.3497Y-2.365
M15
G01X3.4403Y-2.365
M16
G05
G00X3.3497Y-2.55
M15
G01X3.4403Y-2.55
M16
G05
T12
G00X2.233Y-0.4053
M15
G01X2.233Y-0.3541
M16
G05
G00X2.6739Y-0.4053
M15
G01X2.6739Y-0.3541
M16
G05
T0
M30
