M48
; DRILL file {KiCad (5.1.9)-1} date 03/23/21 14:56:29
; FORMAT={-:-/ absolute / inch / decimal}
; #@! TF.CreationDate,2021-03-23T14:56:29+01:00
; #@! TF.GenerationSoftware,Kicad,Pcbnew,(5.1.9)-1
; #@! TF.FileFunction,Plated,1,2,PTH
FMAT,2
INCH
T1C0.0079
T2C0.0118
T3C0.0130
T4C0.0157
T5C0.0197
T6C0.0236
T7C0.0276
T8C0.0315
T9C0.0354
T10C0.0374
T11C0.0394
T12C0.0591
T13C0.0787
%
G90
G05
T1
X3.2721Y-0.4072
X3.2721Y-0.4624
X3.2798Y-3.295
X3.3093Y-3.2645
X3.3093Y-3.295
X3.3093Y-3.3255
X3.3115Y-0.4072
X3.3115Y-0.4624
X3.3507Y-3.2645
X3.3507Y-3.295
X3.3507Y-3.3255
X3.3509Y-0.4072
X3.3509Y-0.4624
X3.3802Y-3.295
T2
X0.0445Y-2.9456
X0.1253Y-2.216
X0.1295Y-2.7947
X0.1658Y-1.6416
X0.169Y-0.8319
X0.1741Y-2.0344
X0.1774Y-1.9113
X0.198Y-0.8319
X0.2235Y-2.216
X0.2478Y-2.0344
X0.26Y-3.645
X0.2666Y-1.1818
X0.285Y-2.8136
X0.2877Y-1.3863
X0.2896Y-1.2868
X0.3039Y-3.1874
X0.31Y-0.7
X0.315Y-0.615
X0.323Y-3.2575
X0.33Y-2.15
X0.3315Y-1.3862
X0.3445Y-3.0647
X0.3588Y-3.254
X0.3757Y-3.8273
X0.3826Y-2.9036
X0.39Y-3.385
X0.39Y-3.435
X0.39Y-3.485
X0.3951Y-3.2798
X0.4093Y-2.7703
X0.4096Y-2.5544
X0.4098Y-2.6069
X0.4208Y-3.8964
X0.4232Y-2.3947
X0.435Y-2.94
X0.4532Y-2.2219
X0.4644Y-2.8848
X0.4649Y-3.8944
X0.467Y-2.9988
X0.4693Y-1.9092
X0.4749Y-3.8399
X0.493Y-2.0318
X0.4986Y-2.2615
X0.5019Y-3.2074
X0.5182Y-1.2722
X0.5237Y-3.1744
X0.5292Y-3.5682
X0.5316Y-3.0882
X0.575Y-3.67
X0.5783Y-1.1436
X0.58Y-2.6115
X0.5921Y-1.4234
X0.6021Y-2.2416
X0.615Y-1.87
X0.6188Y-3.0184
X0.6213Y-3.63
X0.63Y-1.485
X0.6302Y-2.2696
X0.6376Y-2.3003
X0.6434Y-3.0487
X0.6826Y-2.5937
X0.6935Y-3.5183
X0.6944Y-2.3787
X0.6981Y-0.7874
X0.71Y-3.075
X0.7153Y-0.7323
X0.7186Y-3.7228
X0.7212Y-1.4808
X0.7214Y-2.1223
X0.7286Y-2.9305
X0.7305Y-3.4878
X0.7327Y-2.6624
X0.735Y-1.915
X0.7355Y-2.1728
X0.7459Y-2.6993
X0.7542Y-3.1616
X0.7565Y-3.4115
X0.7584Y-2.1008
X0.78Y-3.055
X0.7807Y-2.172
X0.7807Y-2.257
X0.7867Y-1.7529
X0.7912Y-2.6012
X0.811Y-3.6796
X0.8189Y-3.1164
X0.82Y-1.495
X0.8325Y-2.7227
X0.8663Y-1.8181
X0.8739Y-3.093
X0.894Y-3.6805
X0.91Y-3.295
X0.9104Y-3.1644
X0.915Y-3.495
X0.9354Y-3.1088
X0.9374Y-2.2819
X0.95Y-1.88
X0.9542Y-2.2581
X0.96Y-2.3097
X0.962Y-3.7228
X0.975Y-1.485
X0.9876Y-3.0564
X0.997Y-2.1717
X1.005Y-1.8337
X1.0091Y-3.4936
X1.01Y-0.865
X1.0142Y-0.5807
X1.0187Y-3.777
X1.0259Y-3.586
X1.0292Y-2.1831
X1.03Y-0.76
X1.0442Y-3.5617
X1.0549Y-3.4924
X1.065Y-3.395
X1.07Y-1.9
X1.0704Y-3.1797
X1.073Y-3.1511
X1.077Y-0.622
X1.079Y-3.2384
X1.08Y-3.67
X1.0843Y-1.2429
X1.085Y-1.785
X1.0852Y-0.4511
X1.0878Y-2.736
X1.1018Y-3.1289
X1.1125Y-3.2221
X1.1158Y-3.7675
X1.1186Y-1.7469
X1.1246Y-3.1472
X1.1315Y-3.2003
X1.1467Y-3.4268
X1.1475Y-1.0662
X1.1512Y-0.4618
X1.1521Y-0.363
X1.1525Y-0.4253
X1.165Y-0.5405
X1.1677Y-0.8468
X1.17Y-0.08
X1.1896Y-3.6474
X1.2Y-3.23
X1.2028Y-2.042
X1.205Y-1.79
X1.207Y-0.9421
X1.2073Y-1.6701
X1.2144Y-0.4916
X1.2176Y-0.4516
X1.2178Y-0.3868
X1.22Y-0.3573
X1.2281Y-3.0724
X1.2361Y-3.8328
X1.2364Y-1.445
X1.2452Y-1.8634
X1.26Y-0.765
X1.2603Y-1.7985
X1.2616Y-1.9188
X1.2623Y-1.8287
X1.2629Y-1.0201
X1.2663Y-3.2346
X1.2673Y-2.5943
X1.2678Y-3.6422
X1.2711Y-2.7558
X1.2786Y-3.3737
X1.2797Y-0.5526
X1.291Y-2.4079
X1.302Y-3.2064
X1.3034Y-3.9046
X1.3116Y-0.0972
X1.3134Y-0.4094
X1.3224Y-3.6551
X1.3305Y-3.709
X1.3388Y-3.222
X1.3408Y-2.8091
X1.3433Y-0.2467
X1.3452Y-3.5075
X1.3476Y-3.0768
X1.3483Y-3.8453
X1.3541Y-3.6851
X1.369Y-3.2434
X1.3732Y-3.6323
X1.3777Y-3.4878
X1.3778Y-2.3006
X1.378Y-1.9146
X1.3798Y-0.2718
X1.3845Y-2.8177
X1.3869Y-3.3207
X1.3883Y-3.4341
X1.3973Y-3.063
X1.3986Y-1.7236
X1.4061Y-3.5122
X1.408Y-3.3401
X1.4118Y-0.7882
X1.4167Y-3.3719
X1.4248Y-3.0777
X1.4278Y-1.72
X1.4292Y-1.524
X1.4319Y-3.4295
X1.4467Y-1.9992
X1.4574Y-2.575
X1.4628Y-1.3009
X1.4629Y-3.4932
X1.464Y-1.3785
X1.4642Y-2.0713
X1.4718Y-3.5355
X1.4841Y-2.7365
X1.4894Y-1.5824
X1.4914Y-3.0775
X1.4918Y-1.9866
X1.4933Y-0.5991
X1.4934Y-1.7965
X1.4938Y-2.0713
X1.4946Y-0.6765
X1.4951Y-0.4869
X1.4956Y-2.1739
X1.4973Y-2.1368
X1.4983Y-3.6751
X1.4999Y-0.2011
X1.5039Y-0.1462
X1.509Y-0.7294
X1.5113Y-2.3994
X1.5178Y-2.7208
X1.5258Y-3.7626
X1.5353Y-3.1972
X1.5375Y-0.0675
X1.543Y-3.3695
X1.55Y-0.66
X1.5501Y-1.9802
X1.551Y-2.8676
X1.5558Y-2.4767
X1.5681Y-3.1027
X1.5779Y-2.9957
X1.5959Y-1.5307
X1.6029Y-2.1643
X1.6119Y-2.5652
X1.6251Y-1.923
X1.6284Y-3.688
X1.6319Y-2.7591
X1.6329Y-2.7208
X1.6557Y-3.0603
X1.6575Y-0.2875
X1.6575Y-0.3125
X1.6575Y-0.3375
X1.6575Y-0.3625
X1.6575Y-0.3875
X1.6575Y-0.4125
X1.6575Y-0.4375
X1.6825Y-0.2875
X1.6825Y-0.3125
X1.6825Y-0.3375
X1.6825Y-0.3625
X1.6825Y-0.3875
X1.6825Y-0.4125
X1.6825Y-0.4375
X1.685Y-2.0546
X1.6886Y-2.8676
X1.69Y-3.415
X1.6977Y-2.9537
X1.7075Y-0.2875
X1.7075Y-0.3125
X1.7075Y-0.3375
X1.7075Y-0.3625
X1.7075Y-0.3875
X1.7075Y-0.4125
X1.7075Y-0.4375
X1.7169Y-0.8787
X1.7307Y-0.9116
X1.7325Y-0.2875
X1.7325Y-0.3125
X1.7325Y-0.3375
X1.7325Y-0.3625
X1.7325Y-0.3875
X1.7325Y-0.4125
X1.7325Y-0.4375
X1.7338Y-3.3287
X1.7366Y-0.5977
X1.755Y-3.295
X1.7575Y-0.2875
X1.7575Y-0.3125
X1.7575Y-0.3375
X1.7575Y-0.3625
X1.7575Y-0.3875
X1.7575Y-0.4125
X1.7575Y-0.4375
X1.7626Y-3.0119
X1.765Y-3.495
X1.765Y-3.65
X1.7717Y-0.6001
X1.7725Y-1.5696
X1.7825Y-0.2875
X1.7825Y-0.3125
X1.7825Y-0.3375
X1.7825Y-0.3625
X1.7825Y-0.3875
X1.7825Y-0.4125
X1.7825Y-0.4375
X1.801Y-0.592
X1.8047Y-3.0132
X1.8068Y-1.7413
X1.8075Y-0.2875
X1.8075Y-0.3125
X1.8075Y-0.3375
X1.8075Y-0.3625
X1.8075Y-0.3875
X1.8075Y-0.4125
X1.8075Y-0.4375
X1.8097Y-1.9363
X1.8126Y-2.9525
X1.8138Y-1.6714
X1.8177Y-1.8206
X1.8221Y-1.4485
X1.835Y-3.6
X1.855Y-1.535
X1.8838Y-2.9997
X1.915Y-1.605
X1.9645Y-0.569
X1.9655Y-0.3909
X2.0042Y-0.6233
X2.0046Y-0.54
X2.0049Y-0.4509
X2.005Y-0.07
X2.0073Y-0.3485
X2.0141Y-0.4021
X2.0403Y-1.6036
X2.0464Y-0.8089
X2.0651Y-1.2652
X2.0748Y-1.7127
X2.0928Y-1.2929
X2.0962Y-1.4675
X2.1131Y-2.2348
X2.1167Y-0.7542
X2.128Y-0.9544
X2.13Y-1.6029
X2.1504Y-2.2805
X2.1631Y-0.596
X2.1631Y-0.5437
X2.1687Y-1.8434
X2.1821Y-1.1728
X2.1824Y-1.9011
X2.1853Y-0.7167
X2.1922Y-0.5465
X2.2161Y-0.2448
X2.2348Y-2.2036
X2.239Y-1.8445
X2.2496Y-0.2251
X2.2634Y-0.1366
X2.2701Y-0.977
X2.2711Y-0.9106
X2.2762Y-0.1644
X2.3004Y-1.9851
X2.3782Y-2.1283
X2.38Y-0.91
X2.4097Y-2.3245
X2.4178Y-2.1679
X2.421Y-2.054
X2.4885Y-3.1674
X2.5064Y-1.8602
X2.5075Y-2.9996
X2.535Y-1.015
X2.576Y-2.3816
X2.705Y-1.99
X2.7186Y-1.8364
X2.7221Y-1.9593
X2.7435Y-1.8816
X2.7736Y-1.7944
X2.7918Y-1.9121
X2.8093Y-3.8913
X2.83Y-0.355
X2.8418Y-2.7145
X2.8425Y-3.7226
X2.8748Y-1.7944
X2.8932Y-0.994
X2.8993Y-0.9281
X2.903Y-3.8233
X2.9245Y-0.9982
X2.9264Y-2.1671
X2.935Y-0.93
X2.9526Y-0.5099
X2.9578Y-3.8241
X2.96Y-1.13
X2.9833Y-3.6853
X2.9875Y-3.722
X3.0048Y-0.51
X3.015Y-2.145
X3.0201Y-3.7222
X3.0201Y-3.8075
X3.03Y-1.16
X3.05Y-0.929
X3.0525Y-3.1339
X3.065Y-2.805
X3.107Y-1.2918
X3.115Y-3.28
X3.1425Y-2.0413
X3.16Y-3.405
X3.1776Y-1.635
X3.18Y-0.34
X3.1854Y-1.3038
X3.2125Y-1.6927
X3.2176Y-2.9885
X3.2776Y-2.0413
X3.3315Y-1.3166
X3.3475Y-1.207
X3.3483Y-1.9907
X3.3489Y-1.7571
X3.3661Y-1.3709
X3.43Y-3.61
X3.44Y-1.2676
X3.4449Y-1.4854
X3.4449Y-2.0267
X3.445Y-3.465
X3.4481Y-3.2247
X3.45Y-3.4153
X3.464Y-3.7082
X3.5Y-3.77
X3.51Y-3.34
X3.51Y-3.6
T3
X0.3038Y-1.91
X0.3038Y-1.9612
X0.355Y-1.91
X0.355Y-1.9612
X0.4062Y-1.91
X0.4062Y-1.9612
X2.9838Y-1.9144
X2.9838Y-1.9656
X3.035Y-1.9144
X3.035Y-1.9656
X3.0862Y-1.9144
X3.0862Y-1.9656
T4
X2.4625Y-0.89
X2.5675Y-0.8275
X2.815Y-0.405
X2.815Y-0.465
X3.0425Y-0.78
X3.16Y-0.405
X3.16Y-0.465
X3.52Y-0.35
T5
X0.36Y-2.67
X0.535Y-1.615
X1.285Y-0.84
X2.59Y-2.77
X2.655Y-3.155
X3.185Y-1.735
T6
X1.4217Y-1.3976
X1.4217Y-2.3425
X1.5217Y-1.3976
X1.5217Y-2.3425
X1.6217Y-1.3976
X1.6217Y-2.3425
X1.7217Y-1.3976
X1.7217Y-2.3425
X1.8217Y-1.3976
X1.8217Y-2.3425
X1.9217Y-1.3976
X1.9217Y-2.3425
X2.0217Y-1.3976
X2.0217Y-2.3425
X2.1217Y-1.3976
X2.1217Y-2.3425
T7
X1.65Y-0.91
X3.035Y-2.28
X3.1Y-2.28
T8
X1.625Y-2.955
X1.7628Y-2.955
X1.815Y-1.075
X1.815Y-1.1537
X1.99Y-2.9713
X1.99Y-3.05
X2.6829Y-0.855
X2.875Y-0.855
X3.0022Y-2.5
X3.14Y-2.5
X3.195Y-3.765
X3.3328Y-3.765
X3.3713Y-0.115
X3.45Y-0.115
T9
X1.965Y-2.58
X1.965Y-2.68
X2.34Y-2.58
X2.34Y-2.68
X3.275Y-0.67
X3.275Y-0.77
X3.455Y-0.67
X3.455Y-0.77
T10
X0.375Y-1.035
X0.3754Y-1.305
X0.4734Y-1.035
X0.4738Y-1.305
X0.5719Y-1.035
X0.5722Y-1.305
X0.6703Y-1.035
X0.6706Y-1.305
X0.7687Y-1.035
X0.7691Y-1.305
X0.8671Y-1.035
X0.8675Y-1.305
T11
X0.1Y-2.265
X0.1Y-2.365
X0.1Y-2.465
X0.2Y-2.265
X0.2Y-2.365
X0.2Y-2.465
X0.245Y-0.0958
X0.245Y-0.395
X0.3Y-2.265
X0.3Y-2.365
X0.3Y-2.465
X0.355Y-1.54
X0.355Y-1.6384
X0.6299Y-0.675
X0.7016Y-1.625
X0.7016Y-2.01
X0.7283Y-0.675
X0.8Y-1.625
X0.8Y-2.01
X0.8268Y-0.675
X1.0366Y-1.625
X1.0366Y-2.01
X1.135Y-1.625
X1.135Y-2.01
X1.1886Y-2.89
X1.1886Y-2.99
X1.4051Y-2.89
X1.4051Y-2.99
X1.93Y-0.925
X2.075Y-0.955
X2.075Y-1.1322
X2.2086Y-2.89
X2.2086Y-2.99
X2.3309Y-0.955
X2.3309Y-1.1322
X2.355Y-0.1041
X2.355Y-0.675
X2.4251Y-2.89
X2.4251Y-2.99
X2.4534Y-0.675
X2.48Y-1.805
X2.48Y-1.905
X2.48Y-2.005
X2.48Y-2.105
X2.48Y-2.205
X2.5519Y-0.1041
X2.5519Y-0.675
X2.58Y-1.805
X2.58Y-1.905
X2.58Y-2.005
X2.58Y-2.105
X2.58Y-2.205
X3.095Y-0.59
X3.095Y-0.69
X3.115Y-1.5316
X3.115Y-1.63
T13
X0.1304Y-3.525
X2.965Y-3.525
T6
G00X2.8186Y-0.1255
M15
G01X2.8186Y-0.1019
M16
G05
G00X2.8186Y-0.2999
M15
G01X2.8186Y-0.2566
M16
G05
G00X3.1588Y-0.1255
M15
G01X3.1588Y-0.1019
M16
G05
G00X3.1588Y-0.2999
M15
G01X3.1588Y-0.2566
M16
G05
T9
G00X3.3497Y-2.18
M15
G01X3.4403Y-2.18
M16
G05
G00X3.3497Y-2.365
M15
G01X3.4403Y-2.365
M16
G05
G00X3.3497Y-2.55
M15
G01X3.4403Y-2.55
M16
G05
T12
G00X2.233Y-0.4053
M15
G01X2.233Y-0.3541
M16
G05
G00X2.6739Y-0.4053
M15
G01X2.6739Y-0.3541
M16
G05
T0
M30
