%TF.GenerationSoftware,KiCad,Pcbnew,(5.1.9)-1*%
%TF.CreationDate,2021-03-23T14:56:38+01:00*%
%TF.ProjectId,Sergej_H00,53657267-656a-45f4-9830-302e6b696361,rev?*%
%TF.SameCoordinates,Original*%
%TF.FileFunction,Soldermask,Bot*%
%TF.FilePolarity,Negative*%
%FSLAX46Y46*%
G04 Gerber Fmt 4.6, Leading zero omitted, Abs format (unit mm)*
G04 Created by KiCad (PCBNEW (5.1.9)-1) date 2021-03-23 14:56:38*
%MOMM*%
%LPD*%
G01*
G04 APERTURE LIST*
%ADD10R,3.500000X3.500000*%
%ADD11C,3.500000*%
%ADD12O,5.500000X1.500000*%
%ADD13O,1.700000X1.700000*%
%ADD14R,1.700000X1.700000*%
%ADD15C,1.500000*%
%ADD16C,1.000000*%
%ADD17C,2.500000*%
%ADD18R,4.000000X2.000000*%
%ADD19C,1.200000*%
%ADD20O,1.000000X2.100000*%
%ADD21C,0.650000*%
%ADD22O,1.000000X1.600000*%
%ADD23C,0.300000*%
%ADD24C,3.200000*%
%ADD25O,4.200000X1.900000*%
%ADD26C,2.000000*%
%ADD27R,2.000000X2.000000*%
%ADD28C,1.600000*%
%ADD29R,1.600000X1.600000*%
%ADD30O,1.700000X1.950000*%
%ADD31C,1.800000*%
%ADD32R,1.800000X1.800000*%
%ADD33O,1.700000X2.000000*%
%ADD34O,2.000000X1.700000*%
%ADD35C,4.000000*%
%ADD36R,2.000000X3.200000*%
%ADD37C,0.770000*%
%ADD38C,1.700000*%
G04 APERTURE END LIST*
D10*
%TO.C,BT1*%
X75311000Y-89535000D03*
D11*
X3311000Y-89535000D03*
%TD*%
D12*
%TO.C,H6*%
X70100000Y-76000000D03*
%TD*%
%TO.C,H5*%
X21600000Y-76000000D03*
%TD*%
D13*
%TO.C,J16*%
X78613000Y-17526000D03*
D14*
X78613000Y-14986000D03*
%TD*%
%TO.C,J6*%
X49022000Y-23495000D03*
%TD*%
D15*
%TO.C,U8*%
X61598000Y-73406000D03*
X61598000Y-75946000D03*
X56098000Y-73406000D03*
X56098000Y-75946000D03*
D16*
X63498000Y-77126000D03*
D17*
X58848000Y-76576000D03*
X58848000Y-72776000D03*
%TD*%
D15*
%TO.C,U7*%
X30190000Y-75946000D03*
X30190000Y-73406000D03*
X35690000Y-75946000D03*
X35690000Y-73406000D03*
D16*
X28290000Y-72226000D03*
D17*
X32940000Y-72776000D03*
X32940000Y-76576000D03*
%TD*%
D18*
%TO.C,U12*%
X87500000Y-44500000D03*
X87500000Y-50000000D03*
%TD*%
%TO.C,U11*%
X87500000Y-30750000D03*
X87500000Y-36250000D03*
%TD*%
%TO.C,U10*%
X2500000Y-44500000D03*
X2500000Y-50000000D03*
%TD*%
%TO.C,U9*%
X2500000Y-30750000D03*
X2500000Y-36250000D03*
%TD*%
D19*
%TO.C,D5*%
X51350000Y-59500000D03*
X53890000Y-59500000D03*
X46270000Y-59500000D03*
X43730000Y-59500000D03*
X38650000Y-59500000D03*
X36110000Y-59500000D03*
X48810000Y-59500000D03*
X41190000Y-59500000D03*
X36110000Y-35500000D03*
X38650000Y-35500000D03*
X41190000Y-35500000D03*
X43730000Y-35500000D03*
X46270000Y-35500000D03*
X48810000Y-35500000D03*
X51350000Y-35500000D03*
X53890000Y-35500000D03*
%TD*%
D20*
%TO.C,J5*%
X71593000Y-7067000D03*
X80233000Y-7067000D03*
D21*
X78803000Y-6537000D03*
D22*
X80233000Y-2887000D03*
D21*
X73023000Y-6537000D03*
D22*
X71593000Y-2887000D03*
%TD*%
D23*
%TO.C,U5*%
X84057000Y-83693000D03*
X84057000Y-82918000D03*
X84057000Y-84468000D03*
X85107000Y-83693000D03*
X85107000Y-82918000D03*
X85107000Y-84468000D03*
X83307000Y-83693000D03*
X85857000Y-83693000D03*
%TD*%
D24*
%TO.C,H4*%
X86500000Y-24600000D03*
%TD*%
%TO.C,H3*%
X21600000Y-76000000D03*
%TD*%
%TO.C,H2*%
X70100000Y-76000000D03*
%TD*%
%TO.C,H1*%
X3500000Y-24600000D03*
%TD*%
D25*
%TO.C,SW3*%
X86233000Y-64770000D03*
X86233000Y-60071000D03*
X86233000Y-55372000D03*
%TD*%
D13*
%TO.C,J8*%
X7620000Y-57531000D03*
X7620000Y-60071000D03*
D14*
X7620000Y-62611000D03*
%TD*%
D26*
%TO.C,BZ1*%
X6223000Y-2433000D03*
D27*
X6223000Y-10033000D03*
%TD*%
D28*
%TO.C,C54*%
X50546000Y-75470000D03*
D29*
X50546000Y-77470000D03*
%TD*%
D28*
%TO.C,C49*%
X84653000Y-95631000D03*
D29*
X81153000Y-95631000D03*
%TD*%
D28*
%TO.C,C45*%
X46101000Y-29305000D03*
D29*
X46101000Y-27305000D03*
%TD*%
D28*
%TO.C,C57*%
X44775000Y-75057000D03*
D29*
X41275000Y-75057000D03*
%TD*%
D28*
%TO.C,C51*%
X87630000Y-2921000D03*
D29*
X85630000Y-2921000D03*
%TD*%
D28*
%TO.C,C52*%
X76256000Y-63500000D03*
D29*
X79756000Y-63500000D03*
%TD*%
D30*
%TO.C,J1*%
X22025000Y-26289000D03*
X19525000Y-26289000D03*
X17025000Y-26289000D03*
X14525000Y-26289000D03*
X12025000Y-26289000D03*
G36*
G01*
X8675000Y-27014000D02*
X8675000Y-25564000D01*
G75*
G02*
X8925000Y-25314000I250000J0D01*
G01*
X10125000Y-25314000D01*
G75*
G02*
X10375000Y-25564000I0J-250000D01*
G01*
X10375000Y-27014000D01*
G75*
G02*
X10125000Y-27264000I-250000J0D01*
G01*
X8925000Y-27264000D01*
G75*
G02*
X8675000Y-27014000I0J250000D01*
G01*
G37*
%TD*%
D31*
%TO.C,D2*%
X49911000Y-65532000D03*
D32*
X49911000Y-68072000D03*
%TD*%
D31*
%TO.C,D4*%
X87757000Y-19558000D03*
D32*
X87757000Y-17018000D03*
%TD*%
D31*
%TO.C,D3*%
X83185000Y-19558000D03*
D32*
X83185000Y-17018000D03*
%TD*%
D31*
%TO.C,D1*%
X59436000Y-65532000D03*
D32*
X59436000Y-68072000D03*
%TD*%
D13*
%TO.C,J4*%
X62992000Y-56007000D03*
X62992000Y-53467000D03*
X62992000Y-50927000D03*
X62992000Y-48387000D03*
D14*
X62992000Y-45847000D03*
%TD*%
D13*
%TO.C,J3*%
X65532000Y-56007000D03*
X65532000Y-53467000D03*
X65532000Y-50927000D03*
X65532000Y-48387000D03*
D14*
X65532000Y-45847000D03*
%TD*%
D33*
%TO.C,J10*%
X26329000Y-51054000D03*
G36*
G01*
X29679000Y-50304000D02*
X29679000Y-51804000D01*
G75*
G02*
X29429000Y-52054000I-250000J0D01*
G01*
X28229000Y-52054000D01*
G75*
G02*
X27979000Y-51804000I0J250000D01*
G01*
X27979000Y-50304000D01*
G75*
G02*
X28229000Y-50054000I250000J0D01*
G01*
X29429000Y-50054000D01*
G75*
G02*
X29679000Y-50304000I0J-250000D01*
G01*
G37*
%TD*%
%TO.C,J13*%
X17820000Y-51054000D03*
G36*
G01*
X21170000Y-50304000D02*
X21170000Y-51804000D01*
G75*
G02*
X20920000Y-52054000I-250000J0D01*
G01*
X19720000Y-52054000D01*
G75*
G02*
X19470000Y-51804000I0J250000D01*
G01*
X19470000Y-50304000D01*
G75*
G02*
X19720000Y-50054000I250000J0D01*
G01*
X20920000Y-50054000D01*
G75*
G02*
X21170000Y-50304000I0J-250000D01*
G01*
G37*
%TD*%
%TO.C,J14*%
X17820000Y-41275000D03*
G36*
G01*
X21170000Y-40525000D02*
X21170000Y-42025000D01*
G75*
G02*
X20920000Y-42275000I-250000J0D01*
G01*
X19720000Y-42275000D01*
G75*
G02*
X19470000Y-42025000I0J250000D01*
G01*
X19470000Y-40525000D01*
G75*
G02*
X19720000Y-40275000I250000J0D01*
G01*
X20920000Y-40275000D01*
G75*
G02*
X21170000Y-40525000I0J-250000D01*
G01*
G37*
%TD*%
D13*
%TO.C,J15*%
X2540000Y-57531000D03*
X2540000Y-60071000D03*
D14*
X2540000Y-62611000D03*
%TD*%
D33*
%TO.C,J11*%
X26329000Y-41275000D03*
G36*
G01*
X29679000Y-40525000D02*
X29679000Y-42025000D01*
G75*
G02*
X29429000Y-42275000I-250000J0D01*
G01*
X28229000Y-42275000D01*
G75*
G02*
X27979000Y-42025000I0J250000D01*
G01*
X27979000Y-40525000D01*
G75*
G02*
X28229000Y-40275000I250000J0D01*
G01*
X29429000Y-40275000D01*
G75*
G02*
X29679000Y-40525000I0J-250000D01*
G01*
G37*
%TD*%
D34*
%TO.C,J9*%
X79121000Y-38902000D03*
G36*
G01*
X79871000Y-42252000D02*
X78371000Y-42252000D01*
G75*
G02*
X78121000Y-42002000I0J250000D01*
G01*
X78121000Y-40802000D01*
G75*
G02*
X78371000Y-40552000I250000J0D01*
G01*
X79871000Y-40552000D01*
G75*
G02*
X80121000Y-40802000I0J-250000D01*
G01*
X80121000Y-42002000D01*
G75*
G02*
X79871000Y-42252000I-250000J0D01*
G01*
G37*
%TD*%
D13*
%TO.C,J12*%
X5080000Y-57531000D03*
X5080000Y-60071000D03*
D14*
X5080000Y-62611000D03*
%TD*%
D30*
%TO.C,J2*%
X22034500Y-33147000D03*
X19534500Y-33147000D03*
X17034500Y-33147000D03*
X14534500Y-33147000D03*
X12034500Y-33147000D03*
G36*
G01*
X8684500Y-33872000D02*
X8684500Y-32422000D01*
G75*
G02*
X8934500Y-32172000I250000J0D01*
G01*
X10134500Y-32172000D01*
G75*
G02*
X10384500Y-32422000I0J-250000D01*
G01*
X10384500Y-33872000D01*
G75*
G02*
X10134500Y-34122000I-250000J0D01*
G01*
X8934500Y-34122000D01*
G75*
G02*
X8684500Y-33872000I0J250000D01*
G01*
G37*
%TD*%
D34*
%TO.C,J7*%
X9017000Y-41616000D03*
G36*
G01*
X8267000Y-38266000D02*
X9767000Y-38266000D01*
G75*
G02*
X10017000Y-38516000I0J-250000D01*
G01*
X10017000Y-39716000D01*
G75*
G02*
X9767000Y-39966000I-250000J0D01*
G01*
X8267000Y-39966000D01*
G75*
G02*
X8017000Y-39716000I0J250000D01*
G01*
X8017000Y-38516000D01*
G75*
G02*
X8267000Y-38266000I250000J0D01*
G01*
G37*
%TD*%
D35*
%TO.C,RV1*%
X22900000Y-10145000D03*
X14100000Y-10145000D03*
D31*
X21000000Y-17145000D03*
X18500000Y-17145000D03*
X16000000Y-17145000D03*
%TD*%
D27*
%TO.C,SW1*%
X59817000Y-17145000D03*
D26*
X62317000Y-17145000D03*
X64817000Y-17145000D03*
D36*
X56717000Y-9645000D03*
X67917000Y-9645000D03*
D26*
X59817000Y-2645000D03*
X64817000Y-2645000D03*
%TD*%
D37*
%TO.C,U18*%
X78389000Y-48626000D03*
X78389000Y-49926000D03*
X75789000Y-48626000D03*
X77089000Y-48626000D03*
X77089000Y-49926000D03*
X75789000Y-49926000D03*
%TD*%
D38*
%TO.C,SW2*%
X52705000Y-24257000D03*
X59205000Y-24257000D03*
X52705000Y-28757000D03*
X59205000Y-28757000D03*
%TD*%
D37*
%TO.C,U16*%
X10317000Y-48514000D03*
X10317000Y-49814000D03*
X7717000Y-48514000D03*
X9017000Y-48514000D03*
X9017000Y-49814000D03*
X7717000Y-49814000D03*
%TD*%
D15*
%TO.C,Y1*%
X68145000Y-21717000D03*
X73025000Y-21717000D03*
%TD*%
M02*
